<?xml version="1.0" encoding="UTF-8" standalone="no"?>
<svg
   xmlns:dc="http://purl.org/dc/elements/1.1/"
   xmlns:cc="http://creativecommons.org/ns#"
   xmlns:rdf="http://www.w3.org/1999/02/22-rdf-syntax-ns#"
   xmlns:svg="http://www.w3.org/2000/svg"
   xmlns="http://www.w3.org/2000/svg"
   xmlns:sodipodi="http://sodipodi.sourceforge.net/DTD/sodipodi-0.dtd"
   xmlns:inkscape="http://www.inkscape.org/namespaces/inkscape"
   height="488.00042pt"
   viewBox="0 0 488.00042 488.00042"
   width="488.00042pt"
   version="1.1"
   id="svg2163"
   sodipodi:docname="artificial-intelligence.svg"
   inkscape:version="1.0.2-2 (e86c870879, 2021-01-15)">
  <metadata
     id="metadata2169">
    <rdf:RDF>
      <cc:Work
         rdf:about="">
        <dc:format>image/svg+xml</dc:format>
        <dc:type
           rdf:resource="http://purl.org/dc/dcmitype/StillImage" />
        <dc:title></dc:title>
      </cc:Work>
    </rdf:RDF>
  </metadata>
  <defs
     id="defs2167" />
  <sodipodi:namedview
     pagecolor="#ffffff"
     bordercolor="#666666"
     borderopacity="1"
     objecttolerance="10"
     gridtolerance="10"
     guidetolerance="10"
     inkscape:pageopacity="0"
     inkscape:pageshadow="2"
     inkscape:window-width="3840"
     inkscape:window-height="2050"
     id="namedview2165"
     showgrid="false"
     inkscape:pagecheckerboard="true"
     showborder="false"
     inkscape:zoom="1.549179"
     inkscape:cx="325.33362"
     inkscape:cy="320.8151"
     inkscape:window-x="5108"
     inkscape:window-y="-12"
     inkscape:window-maximized="1"
     inkscape:current-layer="svg2163" />
  <path
     d="m388.542969 264.542969c7.167969-20.878907 10.816406-42.804688 10.785156-64.878907 0-110.09375-89.566406-199.664062-199.664063-199.664062-110.09375 0-199.664062 89.570312-199.664062 199.664062 0 110.097657 89.570312 199.664063 199.664062 199.664063 22.074219.03125 44-3.617187 64.878907-10.785156 6.605469 58.257812 56.996093 101.585937 115.589843 99.378906 58.589844-2.207031 105.582032-49.199219 107.789063-107.789063 2.207031-58.59375-41.121094-108.984374-99.378906-115.589843zm-12.628907-.71875c-24.5625-.023438-48.449218 8.0625-67.945312 23-1.511719-.976563-3.035156-1.933594-4.570312-2.863281 7.816406-23.921876 12.183593-50.257813 12.726562-78.300782h71.101562c-.597656 19.855469-4.359374 39.492188-11.152343 58.160156zm-321.742187 54.230469c-26.003906-31.816407-40.792969-71.320313-42.066406-112.390626h71.09375c.546875 28.117188 4.9375 54.519532 12.792969 78.492188-15.410157 9.355469-29.480469 20.757812-41.820313 33.898438zm41.828125-202.875c-7.851562 23.96875-12.242188 50.367187-12.792969 78.484374h-71.097656c1.273437-41.070312 16.058594-80.574218 42.0625-112.386718 12.34375 13.140625 26.414063 24.542968 41.828125 33.902344zm249.179688-33.878907c25.992187 31.808594 40.769531 71.304688 42.046874 112.363281h-71.101562c-.546875-28.042968-4.914062-54.378906-12.730469-78.300781 15.421875-9.386719 29.484375-20.851562 41.785157-34.0625zm-139.515626 124.363281h98.460938c-.351562 24.496094-4.1875 48.816407-11.402344 72.230469-26.875-14.183593-56.679687-21.929687-87.058594-22.625zm98.460938-12h-98.460938v-49.605468c30.375-.730469 60.171876-8.476563 87.058594-22.625 7.210938 23.414062 11.050782 47.734375 11.402344 72.230468zm-98.460938-61.605468v-118.800782c38.179688 19.492188 66.800782 53.410157 83.09375 96.675782-25.578124 13.792968-54.042968 21.371094-83.09375 22.125zm-12-.03125c-29.027343-.890625-57.449218-8.523438-83.019531-22.289063 16.300781-43.171875 44.902344-77.015625 83.019531-96.480469zm0 12.007812v49.628906h-98.457031c.347657-24.570312 4.210938-48.960937 11.46875-72.4375 26.875 14.136719 56.632813 21.9375 86.988281 22.808594zm-98.457031 61.628906h98.457031v49.628907c-30.355468.875-60.113281 8.679687-86.992187 22.8125-7.257813-23.476563-11.117187-47.871094-11.464844-72.441407zm98.457031 61.636719v118.78125c-38.121093-19.464843-66.714843-53.316406-83.019531-96.488281 25.570313-13.765625 53.992188-21.398438 83.019531-22.292969zm12-.03125c29.058594.71875 57.53125 8.296875 83.101563 22.117188-16.292969 43.269531-44.914063 77.195312-83.101563 96.691406zm131.601563-195.070312c-11.191406 12.191406-23.96875 22.824219-37.984375 31.621093-14.398438-37.273437-37.59375-67.96875-67.957031-89.136718 40.679687 6.988281 77.921875 27.207031 105.941406 57.515625zm-169.257813-57.515625c-30.316406 21.132812-53.480468 51.765625-67.886718 88.957031-14.011719-8.761719-26.800782-19.339844-38.039063-31.457031 28.019531-30.300782 65.25-50.511719 105.925781-57.5zm-105.925781 312.464844c11.234375-12.117188 24.023438-22.695313 38.035157-31.457032 14.40625 37.183594 37.5625 67.816406 67.871093 88.953125-40.664062-6.992187-77.890625-27.203125-105.90625-57.496093zm169.21875 57.523437c13.074219-9.144531 24.855469-20.011719 35.023438-32.308594-1.664063 7.738281-2.5 15.632813-2.5 23.550781v.160157c-10.558594 3.84375-21.445313 6.71875-32.523438 8.597656zm144.613281 91.328125c-55.277343 0-100.089843-44.808594-100.089843-100.085938 0-55.277343 44.8125-100.089843 100.089843-100.089843 55.277344 0 100.085938 44.8125 100.085938 100.089843-.0625 55.25-44.835938 100.023438-100.085938 100.085938zm0 0"
     id="path2157" />
  <path
     d="m368.773438 321.769531c-1.121094-3.363281-5.320313-5.042969-9.519532-5.042969-4.199218 0-8.261718 1.679688-9.378906 5.042969l-27.859375 90.71875c-.117187.40625-.164063.832031-.140625 1.257813 0 3.640625 5.179688 6.160156 9.238281 6.160156 2.519531 0 4.480469-.839844 5.179688-3.078125l5.742187-19.882813h34.578125l5.742188 19.882813c.699219 2.238281 2.660156 3.078125 5.039062 3.078125 4.199219 0 9.378907-2.660156 9.378907-6.160156-.027344-.429688-.121094-.855469-.28125-1.257813zm-23.519532 63.277344 14-48.019531 14 48.019531zm0 0"
     id="path2159" />
  <path
     d="m415.253906 317.566406c-3.640625 0-7.417968 1.402344-7.417968 4.761719v92.679687c0 3.21875 3.777343 4.898438 7.417968 4.898438 3.777344 0 7.421875-1.679688 7.421875-4.898438v-92.679687c0-3.359375-3.644531-4.761719-7.421875-4.761719zm0 0"
     id="path2161" />
  <path
     style="fill:#ffffff;stroke-width:0.645503"
     d="m 489.33249,633.78731 c -45.33584,-3.99274 -86.55244,-32.16381 -107.05051,-73.16777 -9.07653,-18.1565 -13.23219,-34.82314 -13.84305,-55.51875 -0.39907,-13.51996 0.68949,-24.14074 3.69325,-36.03435 10.50988,-41.61448 40.59338,-75.92395 80.36557,-91.65489 42.87077,-16.95651 91.38201,-10.36244 128.71002,17.4954 6.54101,4.88155 18.52241,16.5845 23.93539,23.37913 15.92158,19.98554 25.81371,44.19391 28.47445,69.68363 0.93038,8.91298 0.44081,25.52814 -1.00895,34.24239 -4.69579,28.22546 -17.31313,52.63907 -37.71602,72.97769 -12.71043,12.67039 -25.30178,21.29152 -41.04719,28.10445 -20.65779,8.93848 -42.26321,12.45262 -64.51296,10.49307 z m -43.9665,-74.40413 c 1.20261,-0.50249 2.45242,-1.44653 2.77736,-2.09789 0.32492,-0.65135 2.30902,-7.20929 4.4091,-14.5732 l 3.81832,-13.38894 22.71049,-0.005 c 21.07659,-0.005 22.73405,0.076 23.03792,1.12437 0.18008,0.6213 1.96511,6.79393 3.96672,13.71695 4.39179,15.18995 4.83178,15.83182 10.81706,15.78012 6.28351,-0.0543 12.11761,-3.77872 12.2128,-7.79659 0.0459,-1.93825 -36.39875,-121.94007 -37.93633,-124.91342 -0.49888,-0.96474 -2.35295,-2.44142 -4.25611,-3.38981 -6.1348,-3.05719 -15.19861,-1.97658 -19.03017,2.26874 -1.5259,1.69068 -38.95627,122.54221 -38.95627,125.77821 0,5.57721 10.0488,10.16249 16.42911,7.49663 z m 112.39471,0.1892 c 1.79926,-0.45306 3.47795,-1.43876 4.48161,-2.63153 l 1.60474,-1.90714 v -63.73357 -63.73358 l -1.35299,-1.45227 c -1.91125,-2.05149 -4.14112,-2.74487 -8.82727,-2.74487 -4.73432,0 -8.43992,1.51673 -9.65948,3.95371 -0.63327,1.26543 -0.7737,15.29907 -0.65059,65.01664 0.15687,63.35886 0.15792,63.40382 1.50669,64.75246 1.57304,1.5729 5.61161,3.13562 8.20838,3.17623 0.99662,0.0155 3.10663,-0.29765 4.68891,-0.69608 z"
     id="path2732"
     transform="scale(0.74999999)" />
  <path
     style="fill:#ffffff;stroke-width:0.645503"
     d="m 469.40122,483.64328 c 4.7451,-16.24247 8.84274,-30.35114 9.10586,-31.35258 0.39215,-1.49251 1.26452,0.89342 4.83832,13.23281 2.39795,8.2795 6.49953,22.38816 9.11463,31.35259 l 4.75473,16.29895 h -18.2205 -18.2205 z"
     id="path2734"
     transform="scale(0.74999999)" />
  <path
     style="fill:#ffffff;stroke-width:0.645503"
     d="m 274.66162,435.39192 v -78.42864 l 4.67989,0.007 c 11.47463,0.0169 34.12603,3.4011 49.86513,7.44993 8.9615,2.30532 21.98162,6.559 30.21143,9.87009 8.96261,3.60592 24.97909,11.3115 24.97909,12.01752 0,0.60017 -5.07094,12.62813 -7.6309,18.10003 -19.40588,41.48001 -47.24427,74.77607 -81.44854,97.41639 -7.61424,5.03999 -19.3559,11.99641 -20.24858,11.99641 -0.22414,0 -0.40752,-35.29289 -0.40752,-78.42864 z"
     id="path2736"
     transform="scale(0.74999999)" />
  <path
     style="fill:#ffffff;stroke-width:0.645503"
     d="m 316.94208,507.04632 c 12.67035,-9.87333 25.57694,-21.95785 34.39924,-32.20821 1.49445,-1.73636 2.71719,-2.87296 2.71719,-2.52577 0,0.34718 -0.43364,3.5107 -0.96364,7.03004 -0.53,3.51933 -1.15331,9.92144 -1.38514,14.22691 l -0.42151,7.82813 -8.55089,2.70125 c -9.128,2.88357 -24.29862,6.78879 -29.24609,7.52853 l -3.0042,0.44919 z"
     id="path2738"
     transform="scale(0.74999999)" />
  <path
     style="fill:#ffffff;stroke-width:0.645503"
     d="m 212.4626,510.2166 c -45.05042,-10.01493 -86.42646,-32.36419 -120.07381,-64.85785 -4.837869,-4.67199 -8.796124,-8.69593 -8.796124,-8.94209 0,-0.85545 15.853757,-16.15564 22.269864,-21.49226 11.61952,-9.66459 26.68431,-20.28629 27.48909,-19.38167 0.23167,0.26042 2.07891,4.39492 4.10497,9.18778 6.64857,15.72789 16.97513,34.44766 26.70003,48.40123 14.20961,20.38838 34.37266,41.35854 53.30897,55.44286 5.06224,3.76516 4.85446,3.83336 -5.00299,1.642 z"
     id="path2740"
     transform="scale(0.74999999)" />
  <path
     style="fill:#ffffff;stroke-width:0.645503"
     d="m 249.47019,509.53271 c -38.13009,-22.07469 -68.67977,-55.00151 -89.74262,-96.7257 -3.79621,-7.52006 -10.05371,-21.64804 -11.18951,-25.26331 -0.38726,-1.23263 0.43954,-1.79892 8.13986,-5.57518 26.15504,-12.82648 54.36697,-20.87729 84.28597,-24.05261 4.86522,-0.51635 10.66133,-0.94192 12.88025,-0.94572 l 4.03439,-0.007 v 78.42864 c 0,43.13575 -0.22541,78.42864 -0.50093,78.42864 -0.27551,0 -3.83385,-1.92954 -7.90741,-4.28785 z"
     id="path2742"
     transform="scale(0.74999999)" />
  <path
     style="fill:#ffffff;stroke-width:0.645503"
     d="M 66.630731,416.22199 C 37.002175,376.69501 19.93769,330.52562 16.754625,281.27802 l -0.448505,-6.93916 h 47.10311 47.10311 l 0.45116,9.84393 c 1.41151,30.79821 6.38618,60.87868 14.54286,87.93682 1.06807,3.54313 1.73277,6.61928 1.47712,6.83591 -0.25567,0.21663 -3.51485,2.369 -7.24263,4.78304 -13.887,8.99295 -26.298431,18.98062 -39.151414,31.50572 l -8.490001,8.27342 z"
     id="path2744"
     transform="scale(0.74999999)" />
  <path
     style="fill:#ffffff;stroke-width:0.645503"
     d="m 140.75624,364.54794 c -7.21261,-23.72863 -13.26936,-62.31138 -13.26936,-84.52858 v -5.6805 h 65.19583 65.19582 v 32.92067 32.92066 h -3.10656 c -5.63037,0 -24.1614,1.98602 -33.68712,3.61034 -23.82333,4.06233 -47.7091,11.63168 -70.1001,22.21455 -4.5014,2.12754 -8.28009,3.86826 -8.39708,3.86826 -0.11699,0 -0.94114,-2.39643 -1.83143,-5.3254 z"
     id="path2746"
     transform="scale(0.74999999)" />
  <path
     style="fill:#ffffff;stroke-width:0.645503"
     d="M 382.46065,366.15698 C 350.03373,350.81329 317.20964,342.3586 282.56903,340.42734 l -7.90741,-0.44085 v -32.82381 -32.82382 h 65.29606 65.29606 l -0.43819,10.16668 c -1.06773,24.77314 -4.99709,49.78963 -11.78655,75.03975 -1.28874,4.79286 -2.5236,9.03152 -2.74411,9.41926 -0.25839,0.45431 -3.04033,-0.54393 -7.82424,-2.80757 z"
     id="path2748"
     transform="scale(0.74999999)" />
  <path
     style="fill:#ffffff;stroke-width:0.645503"
     d="m 408.56301,380.685 c -1.0428,-0.64934 -2.28622,-1.41361 -2.76316,-1.69839 -0.70323,-0.41989 -0.54447,-1.53934 0.83975,-5.92116 7.98438,-25.27505 13.3215,-57.42472 14.91601,-89.85092 l 0.43644,-8.87567 h 47.10183 47.10183 l -0.41841,5.64816 c -1.29612,17.49651 -3.09304,29.61355 -6.53334,44.05559 -2.35647,9.89225 -7.09643,25.65605 -8.07462,26.85396 -0.34145,0.41813 -4.23727,0.8678 -9.45679,1.09153 -25.02377,1.07264 -51.30295,9.85972 -73.14425,24.45757 l -8.10931,5.41993 z"
     id="path2750"
     transform="scale(0.74999999)" />
  <path
     style="fill:#ffffff;stroke-width:0.645503"
     d="m 421.25994,244.52867 c -1.71729,-29.63709 -6.39084,-57.6314 -13.65384,-81.78577 -1.42858,-4.75102 -2.51478,-8.69809 -2.41376,-8.77127 0.10102,-0.0732 3.78863,-2.52629 8.19469,-5.45134 14.60339,-9.69477 25.77804,-18.73894 38.54776,-31.19849 l 8.47409,-8.26826 5.7065,7.59747 c 20.26857,26.985 35.03415,58.25971 42.85184,90.76374 3.70111,15.38827 5.47937,27.17488 6.81008,45.13838 l 0.41841,5.64815 h -47.07176 -47.07176 z"
     id="path2752"
     transform="scale(0.74999999)" />
  <path
     style="fill:#ffffff;stroke-width:0.645503"
     d="m 274.66162,225.386 v -32.81528 l 10.74231,-0.76675 c 34.28999,-2.44747 65.41673,-10.53426 95.05609,-24.69575 5.11263,-2.44278 9.38485,-4.44141 9.49384,-4.44141 0.76343,0 6.68182,23.668 9.20058,36.79368 3.16851,16.51156 5.88913,41.45633 5.8962,54.0609 l 0.003,4.67989 H 339.85782 274.662 Z"
     id="path2754"
     transform="scale(0.74999999)" />
  <path
     style="fill:#ffffff;stroke-width:0.645503"
     d="m 127.70684,247.38911 c 1.01441,-25.91911 5.37286,-52.64085 12.78685,-78.39641 l 1.98822,-6.90693 7.51957,3.76945 c 22.12998,11.09342 52.04906,20.23503 78.1839,23.88866 8.70433,1.21686 23.60022,2.61608 27.85038,2.61608 h 1.84277 v 32.92066 32.92066 h -65.29742 -65.29743 z"
     id="path2758"
     transform="scale(0.74999999)" />
  <path
     style="fill:#ffffff;stroke-width:0.645503"
     d="m 16.733254,251.58488 c 3.34633,-50.40784 20.36222,-96.2561 50.563599,-136.2405 l 4.783477,-6.33297 7.854056,7.62398 c 12.871353,12.4943 25.404374,22.57312 40.332394,32.43454 4.67295,3.08695 7.14798,5.10772 6.93517,5.66232 -0.78791,2.05325 -4.31071,14.69357 -6.07917,21.81288 -5.56587,22.40674 -9.0111,46.75984 -10.15928,71.81223 l -0.45116,9.84392 H 63.403182 16.294023 Z"
     id="path2760"
     transform="scale(0.74999999)" />
  <path
     style="fill:#ffffff;stroke-width:0.645503"
     d="m 125.86562,132.63812 c -11.31935,-7.66727 -23.11704,-17.35109 -33.218139,-27.26621 l -9.377567,-9.2049 9.155855,-8.956763 C 119.67233,60.556158 152.58563,40.5863 188.74796,28.767607 c 9.11787,-2.979932 24.44655,-6.962891 29.75488,-7.731418 l 2.90476,-0.420545 -2.23939,1.795363 c -1.23167,0.98745 -5.1531,4.115976 -8.71429,6.952281 -13.02411,10.373018 -29.36504,27.337867 -40.51821,42.06525 -12.96089,17.114414 -26.66417,41.233332 -34.0503,59.931362 -1.12195,2.84022 -2.23945,5.37074 -2.48334,5.62339 -0.24389,0.25265 -3.63529,-1.70268 -7.53645,-4.34517 z"
     id="path2762"
     transform="scale(0.74999999)" />
  <path
     style="fill:#ffffff;stroke-width:0.645503"
     d="m 247.55048,175.14883 c -35.50976,-3.48031 -60.90558,-10.33326 -89.89554,-24.25792 -8.47718,-4.07181 -9.48717,-4.72626 -9.13925,-5.92207 0.81478,-2.80048 7.05817,-17.10946 10.32907,-23.6728 18.81607,-37.75606 45.87002,-69.093219 78.37767,-90.786511 6.69448,-4.467423 19.22024,-11.789936 20.16765,-11.789936 0.26865,0 0.48845,35.292888 0.48845,78.42864 v 78.428637 l -4.03439,-0.1033 c -2.21892,-0.0568 -5.05107,-0.20295 -6.29366,-0.32474 z"
     id="path2764"
     transform="scale(0.74999999)" />
  <path
     style="fill:#ffffff;stroke-width:0.645503"
     d="m 274.66162,97.245085 c 0,-43.189021 0.22541,-78.525492 0.50093,-78.525492 0.77596,0 14.74688,8.195353 20.15517,11.823041 32.51707,21.811298 59.8852,53.528814 78.08052,90.489216 4.17799,8.48683 9.60393,20.76175 10.63841,24.06696 0.43001,1.37389 -0.2128,1.79772 -9.43294,6.21951 -29.16486,13.98687 -60.86191,22.24365 -92.1876,24.01402 l -7.75449,0.43824 z"
     id="path2766"
     transform="scale(0.74999999)" />
  <path
     style="fill:#ffffff;stroke-width:0.645503"
     d="M 398.24841,135.2677 C 388.5427,112.03867 378.99943,94.469576 366.67301,77.137634 352.52401,57.242991 333.93002,38.07897 315.00557,23.886243 l -4.51853,-3.388746 3.15246,0.45455 c 5.68925,0.820328 20.7326,4.755957 30.55303,7.993261 37.37596,12.320976 72.55551,34.171988 99.91368,62.059206 l 5.16402,5.263892 -10.03641,9.799704 c -5.52003,5.38984 -13.15845,12.26877 -16.97426,15.28649 -7.49546,5.92777 -21.72408,16.09295 -22.56464,16.12058 -0.28438,0.009 -0.93531,-0.98402 -1.44651,-2.20748 z"
     id="path2768"
     transform="scale(0.74999999)" />
</svg>
