<?xml version="1.0" encoding="UTF-8" standalone="no"?>
<svg
   xmlns:dc="http://purl.org/dc/elements/1.1/"
   xmlns:cc="http://creativecommons.org/ns#"
   xmlns:rdf="http://www.w3.org/1999/02/22-rdf-syntax-ns#"
   xmlns:svg="http://www.w3.org/2000/svg"
   xmlns="http://www.w3.org/2000/svg"
   xmlns:sodipodi="http://sodipodi.sourceforge.net/DTD/sodipodi-0.dtd"
   xmlns:inkscape="http://www.inkscape.org/namespaces/inkscape"
   version="1.1"
   id="Capa_1"
   x="0px"
   y="0px"
   viewBox="0 0 213.495 213.495"
   style="enable-background:new 0 0 213.495 213.495;"
   xml:space="preserve"
   sodipodi:docname="baggage.svg"
   inkscape:version="1.0.2-2 (e86c870879, 2021-01-15)"><metadata
   id="metadata909"><rdf:RDF><cc:Work
       rdf:about=""><dc:format>image/svg+xml</dc:format><dc:type
         rdf:resource="http://purl.org/dc/dcmitype/StillImage" /></cc:Work></rdf:RDF></metadata><defs
   id="defs907" /><sodipodi:namedview
   pagecolor="#ffffff"
   bordercolor="#666666"
   borderopacity="1"
   objecttolerance="10"
   gridtolerance="10"
   guidetolerance="10"
   inkscape:pageopacity="0"
   inkscape:pageshadow="2"
   inkscape:window-width="3840"
   inkscape:window-height="2050"
   id="namedview905"
   showgrid="false"
   inkscape:zoom="4.721422"
   inkscape:cx="106.7475"
   inkscape:cy="105.2649"
   inkscape:window-x="5108"
   inkscape:window-y="-12"
   inkscape:window-maximized="1"
   inkscape:current-layer="Capa_1" />
<path
   d="M117.107,213.495c-1.833,0-3.678-0.221-5.504-0.666c-5.984-1.459-11.041-5.16-14.24-10.423  c-5.896-9.698-3.765-22.065,4.488-29.306L40.649,72.421c-0.007-0.011-0.013-0.021-0.02-0.032L3.546,11.384  c-1.147-1.888-0.547-4.349,1.34-5.496c1.888-1.146,4.349-0.547,5.496,1.34l35.025,57.619l17.027-10.351L44.638,25.22  c-0.551-0.907-0.72-1.995-0.468-3.025c0.251-1.031,0.902-1.92,1.809-2.471L77.467,0.582c0.906-0.552,1.994-0.72,3.025-0.468  c1.031,0.251,1.919,0.901,2.47,1.808l17.797,29.277l11.802-7.174c1.887-1.147,4.349-0.548,5.496,1.34l38.344,63.077l7.079-4.303  c0.906-0.552,1.994-0.724,3.025-0.468c1.031,0.251,1.919,0.901,2.47,1.808l30.499,50.173l4.979-3.026  c1.888-1.146,4.348-0.547,5.496,1.34c1.147,1.888,0.547,4.349-1.34,5.496l-8.375,5.091c-0.007,0.005-0.015,0.009-0.022,0.014  c-0.007,0.005-0.015,0.009-0.022,0.014l-61.64,37.47c3.994,10.228,0.191,22.187-9.507,28.081  C125.386,212.354,121.279,213.495,117.107,213.495z M117.041,175.375c-2.664,0-5.359,0.705-7.797,2.187  c-7.094,4.313-9.357,13.594-5.045,20.688c2.089,3.437,5.392,5.854,9.299,6.808c3.908,0.951,7.952,0.327,11.389-1.763  c7.091-4.311,9.355-13.583,5.053-20.677c-0.002-0.003-0.004-0.007-0.007-0.011c-0.002-0.003-0.003-0.006-0.005-0.009  C127.095,177.947,122.126,175.375,117.041,175.375z M117.027,167.377c6.52,0,12.912,2.76,17.366,7.837l58.245-35.406l-28.421-46.754  l-7.052,4.286c-0.009,0.006-0.018,0.012-0.027,0.017l-67.154,40.821l18.703,30.767C111.394,167.888,114.222,167.377,117.027,167.377  z M73.011,110.256l12.818,21.086l20.426-12.417c0.006-0.003,0.012-0.007,0.019-0.011l43.291-26.316L113.299,32.94l-11.777,7.158  c-0.008,0.006-0.017,0.011-0.025,0.016L70.008,59.255c-0.012,0.007-0.023,0.015-0.035,0.021l-20.41,12.406L73.011,110.256z   M53.551,24.482l15.72,25.859l24.653-14.986L78.205,9.496L53.551,24.482z"
   id="path872" />
<g
   id="g874">
</g>
<g
   id="g876">
</g>
<g
   id="g878">
</g>
<g
   id="g880">
</g>
<g
   id="g882">
</g>
<g
   id="g884">
</g>
<g
   id="g886">
</g>
<g
   id="g888">
</g>
<g
   id="g890">
</g>
<g
   id="g892">
</g>
<g
   id="g894">
</g>
<g
   id="g896">
</g>
<g
   id="g898">
</g>
<g
   id="g900">
</g>
<g
   id="g902">
</g>
<path
   style="fill:#ffffff;stroke-width:0.211801"
   d="M 61.529143,37.354394 C 57.248967,30.311216 53.782161,24.516876 53.825128,24.478085 54.031625,24.291658 77.75676,9.9328132 77.99099,9.8525049 c 0.169731,-0.058194 3.1187,4.6106181 7.974413,12.6251001 6.453278,10.651304 7.657634,12.761642 7.413021,12.9895 -0.160634,0.149633 -3.246681,2.063274 -6.857881,4.252541 -3.6112,2.189264 -8.960593,5.433992 -11.887541,7.210505 l -5.321721,3.230023 z"
   id="path911" /><path
   style="fill:#ffffff;stroke-width:0.211801"
   d="M 67.796007,101.4267 C 57.872961,85.103877 49.782215,71.723823 49.816572,71.693252 49.85093,71.662678 64.111018,62.988906 81.505658,52.418198 103.12425,39.2806 113.20104,33.267496 113.34958,33.416037 c 0.11952,0.119518 8.26124,13.448256 18.09271,29.619419 14.09113,23.177614 17.81953,29.45524 17.61151,29.653068 -0.25055,0.238278 -63.007567,38.416046 -63.148701,38.416046 -0.03695,0 -8.186044,-13.35504 -18.109092,-29.67787 z"
   id="path913" /><path
   style="fill:#ffffff;stroke-width:0.211801"
   d="m 133.53469,174.08649 c -2.4786,-2.56151 -6.82457,-5.04915 -10.58942,-6.06141 -1.92228,-0.51684 -2.45718,-0.56818 -5.92544,-0.56872 -3.44877,-6.4e-4 -3.99423,0.051 -5.71862,0.53978 -1.04841,0.2972 -2.04917,0.60177 -2.2239,0.67681 -0.24223,0.10402 -2.52334,-3.49081 -9.602279,-15.13236 -5.106516,-8.39784 -9.248871,-15.30451 -9.205233,-15.34815 0.379394,-0.37939 73.432702,-44.647516 73.704282,-44.662594 0.2558,-0.0142 4.33421,6.515984 14.27378,22.854584 7.65362,12.58095 13.95022,23.01743 13.99245,23.19216 0.0543,0.22468 -8.32816,5.42109 -28.62732,17.74651 -15.78726,9.58584 -28.82394,17.47478 -28.9704,17.53098 -0.14646,0.0562 -0.64501,-0.28921 -1.1079,-0.76759 z"
   id="path915" /><path
   style="fill:#ffffff;stroke-width:0.211801"
   d="m 115.10866,205.25031 c -6.05348,-0.96367 -10.59732,-4.92375 -12.41196,-10.81736 -0.62308,-2.02368 -0.68161,-5.53082 -0.12725,-7.62482 1.26477,-4.77742 5.08112,-8.90638 9.73471,-10.53214 2.09062,-0.73038 5.75686,-0.9047 8.09352,-0.38485 4.09905,0.91195 8.07043,4.00007 9.97327,7.75514 1.1661,2.30118 1.47492,3.71713 1.47492,6.76246 0,3.04497 -0.30953,4.4644 -1.47398,6.75933 -2.37215,4.67507 -7.26514,7.84402 -12.59528,8.15733 -0.88219,0.0519 -2.08277,0.0181 -2.66795,-0.0751 z"
   id="path917" /></svg>
