<?xml version="1.0" encoding="UTF-8" standalone="no"?>
<svg
   xmlns:dc="http://purl.org/dc/elements/1.1/"
   xmlns:cc="http://creativecommons.org/ns#"
   xmlns:rdf="http://www.w3.org/1999/02/22-rdf-syntax-ns#"
   xmlns:svg="http://www.w3.org/2000/svg"
   xmlns="http://www.w3.org/2000/svg"
   xmlns:sodipodi="http://sodipodi.sourceforge.net/DTD/sodipodi-0.dtd"
   xmlns:inkscape="http://www.inkscape.org/namespaces/inkscape"
   id="Capa_1"
   enable-background="new 0 0 512 512"
   height="512"
   viewBox="0 0 512 512"
   width="512"
   version="1.1"
   sodipodi:docname="change.svg"
   inkscape:version="1.0.2-2 (e86c870879, 2021-01-15)">
  <metadata
     id="metadata874">
    <rdf:RDF>
      <cc:Work
         rdf:about="">
        <dc:format>image/svg+xml</dc:format>
        <dc:type
           rdf:resource="http://purl.org/dc/dcmitype/StillImage" />
        <dc:title></dc:title>
      </cc:Work>
    </rdf:RDF>
  </metadata>
  <defs
     id="defs872" />
  <sodipodi:namedview
     pagecolor="#ffffff"
     bordercolor="#666666"
     borderopacity="1"
     objecttolerance="10"
     gridtolerance="10"
     guidetolerance="10"
     inkscape:pageopacity="0"
     inkscape:pageshadow="2"
     inkscape:window-width="3840"
     inkscape:window-height="2050"
     id="namedview870"
     showgrid="false"
     inkscape:pagecheckerboard="true"
     showborder="false"
     inkscape:zoom="2.784233"
     inkscape:cx="354.61375"
     inkscape:cy="222.58293"
     inkscape:window-x="5108"
     inkscape:window-y="-12"
     inkscape:window-maximized="1"
     inkscape:current-layer="g867" />
  <g
     id="g867">
    <path
       d="m 276,46 c 38.599,0 70,31.402 70,70 v 10 h -10 c -3.788,0 -7.25,2.14 -8.944,5.528 -1.694,3.388 -1.328,7.442 0.944,10.472 l 60,80 c 1.889,2.518 4.853,4 8,4 3.147,0 6.111,-1.482 8,-4 l 60,-80 c 2.272,-3.03 2.639,-7.084 0.944,-10.472 C 463.249,128.14 459.788,126 456,126 H 446 V 116 C 446,66.374 405.626,26 356,26 h -80 c -5.522,0 -10,4.477 -10,10 0,5.523 4.478,10 10,10 z m 80,0 c 38.599,0 70,31.402 70,70 v 20 c 0,5.523 4.478,10 10,10 L 396,199.333 356,146 c 5.522,0 10,-4.477 10,-10 V 116 C 366,87.758 352.925,62.513 332.509,46 Z"
       id="path861-1" />
    <path
       d="m 180,110 c 0,-27.57 -22.43,-50 -50,-50 -27.57,0 -50,22.43 -50,50 0,27.57 22.43,50 50,50 27.57,0 50,-22.43 50,-50 z m -50,30 c -16.542,0 -30,-13.458 -30,-30 0,-16.542 13.458,-30 30,-30 16.542,0 30,13.458 30,30 0,16.542 -13.458,30 -30,30 z"
       id="path853" />
    <path
       d="M 130,260 C 202.557,260 260,200.849 260,130 260,58.318 201.683,0 130,0 58.317,0 0,58.318 0,130 0,200.844 57.433,260 130,260 Z M 80.05,228.012 C 81.099,201.361 103.096,180 130,180 c 26.904,0 48.901,21.361 49.95,48.012 C 164.57,235.862 147.423,240 130,240 112.577,240 95.43,235.862 80.05,228.012 Z M 130,20 c 60.654,0 110,49.346 110,110 0,33.607 -15.545,65.262 -41.414,85.97 C 192.071,184.073 163.794,160 130,160 96.206,160 67.929,184.073 61.414,215.97 35.546,195.263 20,163.608 20,130 20,69.346 69.346,20 130,20 Z"
       id="path855" />
    <path
       d="m 432,362 c 0,-27.57 -22.43,-50 -50,-50 -27.57,0 -50,22.43 -50,50 0,27.57 22.43,50 50,50 27.57,0 50,-22.43 50,-50 z m -50,30 c -16.542,0 -30,-13.458 -30,-30 0,-16.542 13.458,-30 30,-30 16.542,0 30,13.458 30,30 0,16.542 -13.458,30 -30,30 z"
       id="path857" />
    <path
       d="m 382,252 c -71.683,0 -130,58.318 -130,130 0,70.85 57.432,130 130,130 72.556,0 130,-59.151 130,-130 0,-71.682 -58.317,-130 -130,-130 z M 332.05,480.012 C 333.099,453.361 355.096,432 382,432 c 26.904,0 48.901,21.361 49.95,48.012 C 416.57,487.862 399.423,492 382,492 c -17.423,0 -34.57,-4.138 -49.95,-11.988 z M 450.586,467.97 C 444.071,436.073 415.794,412 382,412 348.206,412 319.929,436.073 313.414,467.97 287.546,447.263 272,415.608 272,382 c 0,-60.654 49.346,-110 110,-110 60.654,0 110,49.346 110,110 0,33.607 -15.545,65.262 -41.414,85.97 z"
       id="path859" />
    <path
       d="m 236,466 c -38.599,0 -70,-31.402 -70,-70 v -10 h 10 c 3.788,0 7.25,-2.14 8.944,-5.528 1.694,-3.388 1.328,-7.442 -0.944,-10.472 l -60,-80 c -1.889,-2.518 -4.853,-4 -8,-4 -3.147,0 -6.111,1.482 -8,4 l -60,80 c -2.272,3.03 -2.639,7.084 -0.944,10.472 C 48.751,383.86 52.212,386 56,386 h 10 v 10 c 0,49.626 40.374,90 90,90 h 80 c 5.522,0 10,-4.477 10,-10 0,-5.523 -4.478,-10 -10,-10 z m -80,0 c -38.599,0 -70,-31.402 -70,-70 v -20 c 0,-5.523 -4.478,-10 -10,-10 L 116,312.667 156,366 c -5.522,0 -10,4.477 -10,10 v 20 c 0,28.242 13.075,53.487 33.491,70 z"
       id="path861" />
    <circle
       cx="419"
       cy="67"
       id="circle865"
       r="10" />
    <path
       style="fill:#ffffff;stroke-width:0.359165"
       d="m 58.462261,213.22023 c -4.00985,-3.42526 -10.082386,-9.697 -13.519411,-13.9629 C 21.13814,169.71189 13.990017,130.87084 25.824167,95.371378 36.557193,63.175013 62.201819,37.257991 94.218874,26.250185 c 12.080396,-4.153369 22.974066,-5.957984 35.916536,-5.949836 24.56503,0.01547 47.01247,7.706871 67.16392,23.013088 1.97541,1.500441 6.51306,5.639934 10.08367,9.198874 9.63885,9.607356 15.66429,18.012748 21.37411,29.816548 5.46212,11.291731 8.48203,21.386471 10.2612,34.300291 0.85822,6.22932 0.85822,20.34892 0,26.57824 -3.33684,24.22007 -12.95729,44.56201 -29.47716,62.32797 -2.92219,3.14261 -10.22253,9.86426 -10.7135,9.86426 -0.0958,0 -0.45843,-1.17178 -0.80593,-2.60395 -5.17436,-21.32574 -21.4166,-39.8288 -42.17496,-48.04549 -4.73699,-1.87502 -12.04386,-3.75179 -16.9118,-4.3438 l -3.77124,-0.45864 2.87333,-0.45185 c 20.54731,-3.23118 36.71983,-18.83959 41.18265,-39.74616 1.11333,-5.21549 1.11333,-14.31478 0,-19.53027 -4.3332,-20.299332 -19.21567,-35.159335 -39.56641,-39.506687 -4.3095,-0.920598 -15.06903,-0.90491 -19.39493,0.02827 -14.3472,3.095018 -26.375417,11.700268 -33.689155,24.10196 -9.853666,16.708577 -8.670068,38.970387 2.909853,54.730187 7.7763,10.58322 20.039922,18.09074 32.543842,19.92264 l 3.02162,0.44268 -3.87816,0.47397 c -27.547677,3.36679 -51.381674,23.79988 -58.557323,50.20169 -1.491517,5.48782 -1.077654,5.22773 -4.146776,2.60605 z"
       id="path897" />
    <path
       style="fill:#ffffff;stroke-width:0.359165"
       d="m 126.60791,139.6092 c -12.80828,-1.55916 -23.15756,-11.14233 -25.78604,-23.87724 -1.597947,-7.74202 -0.0318,-15.42687 4.54625,-22.307192 4.06328,-6.106733 10.31113,-10.501991 17.55164,-12.347277 3.91343,-0.99736 10.1587,-0.99736 14.07213,0 10.56685,2.693023 19.04212,10.977618 21.85635,21.364629 0.94265,3.4792 1.12735,9.52474 0.40074,13.11657 -3.08367,15.24341 -17.53264,25.88967 -32.64107,24.05051 z"
       id="path899" />
    <path
       style="fill:#ffffff;stroke-width:0.359165"
       d="m 122.41335,239.60322 c -14.30941,-1.29143 -26.897999,-4.5746 -38.932538,-10.1538 l -3.195588,-1.48147 0.230476,-2.96189 c 1.045015,-13.4296 9.016155,-27.14853 20.59989,-35.45394 3.85412,-2.76336 10.69017,-6.13108 14.90068,-7.34068 30.34146,-8.71654 60.42462,12.00495 63.63386,43.83143 l 0.1859,1.84369 -3.19488,1.48441 c -10.33133,4.80014 -21.23129,7.98627 -32.67788,9.55196 -3.95367,0.54078 -18.13517,0.98847 -21.54992,0.68029 z"
       id="path901" />
    <path
       style="fill:#ffffff;stroke-width:0.359165"
       d="m 376.33665,172.7838 c -10.76235,-14.34496 -19.60898,-26.18315 -19.65918,-26.30707 -0.0502,-0.12393 0.75792,-0.42542 1.79583,-0.66999 3.73059,-0.87906 6.65832,-3.97369 7.47327,-7.89929 0.63946,-3.08028 0.23333,-28.36251 -0.54375,-33.84909 -3.04505,-21.499621 -13.25986,-40.885628 -28.96121,-54.96358 l -3.19208,-2.862038 h 13.62683 c 17.91951,0 23.60426,0.736099 33.21292,4.300632 23.82585,8.838691 40.76158,29.643398 44.97974,55.255396 0.42476,2.57911 0.63032,7.32816 0.79568,18.38285 0.21652,14.47496 0.24589,14.94825 1.01721,16.39032 1.51631,2.83495 4.31339,4.92441 7.30031,5.45345 l 1.38267,0.2449 -19.39274,25.85991 c -10.666,14.22294 -19.58957,26.05913 -19.83016,26.30263 -0.34505,0.34924 -4.56951,-5.06486 -20.00534,-25.63903 z"
       id="path903" />
    <path
       style="fill:#ffffff;stroke-width:0.359165"
       d="m 310.42207,465.1497 c -6.27126,-5.30662 -13.5886,-13.45396 -18.59486,-20.70406 -6.53831,-9.46881 -11.64294,-20.12757 -15.09494,-31.51909 -5.6094,-18.51089 -5.96466,-39.49899 -0.99087,-58.53959 10.09652,-38.65141 40.94304,-69.23665 79.48166,-78.80843 28.84497,-7.16419 58.21671,-2.75068 83.64198,12.56835 9.26105,5.57989 20.40068,15.18501 27.36408,23.59459 13.99146,16.89727 22.30197,36.28682 24.8841,58.058 0.62673,5.28428 0.71943,17.58805 0.17214,22.84825 -2.54697,24.47986 -13.20236,47.59285 -30.06264,65.20999 -3.33033,3.47982 -10.20836,9.76043 -10.4377,9.53108 -0.058,-0.058 -0.349,-1.05933 -0.64658,-2.22509 -2.39325,-9.37549 -6.81496,-18.50101 -12.6871,-26.18365 -2.34057,-3.06221 -8.0203,-8.85939 -11.1841,-11.41537 -10.23614,-8.2696 -23.76839,-13.98798 -36.09612,-15.25331 l -2.87332,-0.29492 3.59165,-0.66025 c 15.63099,-2.87342 28.83533,-12.72902 35.93124,-26.81873 1.8293,-3.63228 2.91333,-6.60826 4.03936,-11.08926 0.87254,-3.47222 0.95259,-4.3992 0.96295,-11.14996 0.009,-5.72667 -0.12986,-8.01672 -0.62392,-10.30505 -4.50353,-20.85886 -20.81439,-36.34907 -41.72214,-39.62295 -3.70794,-0.58062 -11.8624,-0.48075 -15.91306,0.19488 -10.38169,1.73163 -20.47083,7.11792 -27.84248,14.86427 -6.74967,7.09274 -11.10942,15.56081 -13.07514,25.39622 -0.95466,4.77659 -0.86744,14.18637 0.17666,19.05818 2.17287,10.13873 6.74312,18.58605 13.8811,25.65681 7.3341,7.26504 15.6024,11.63208 26.08931,13.77954 2.9928,0.61284 3.68911,0.84594 2.59791,0.86966 -2.67788,0.0582 -9.55464,1.39982 -13.84908,2.70182 -12.74924,3.86534 -24.58896,11.64467 -32.98814,21.67496 -6.92105,8.26511 -12.01188,18.03736 -14.4536,27.74483 l -0.81936,3.2575 z"
       id="path905" />
    <path
       style="fill:#ffffff;stroke-width:0.359165"
       d="m 375.97704,391.21014 c -5.64348,-1.26855 -10.64709,-3.99981 -14.74399,-8.04812 -6.3719,-6.29632 -9.25303,-13.64986 -8.86984,-22.6386 0.14522,-3.40653 0.38241,-4.76362 1.3219,-7.56347 1.99664,-5.95031 5.45203,-10.87002 10.1759,-14.48821 12.2236,-9.36252 29.07728,-8.04228 39.66843,3.10745 12.15525,12.79632 10.6806,32.78406 -3.23556,43.8554 -2.60853,2.07528 -6.93312,4.27037 -10.36879,5.26303 -3.46748,1.00185 -10.60447,1.2641 -13.94805,0.51252 z"
       id="path907" />
    <path
       style="fill:#ffffff;stroke-width:0.359165"
       d="m 377.06159,491.7157 c -14.48848,-0.79476 -28.82713,-4.30695 -40.86081,-10.00869 l -4.04636,-1.91722 0.22141,-2.08744 c 1.29789,-12.23635 5.9883,-22.16017 14.49286,-30.66349 7.87748,-7.87635 16.57433,-12.39855 27.26235,-14.17592 5.77597,-0.96052 14.33064,-0.60416 19.81132,0.82527 19.59041,5.10945 33.94372,20.74067 37.1798,40.49005 0.29132,1.77786 0.53032,3.82006 0.53112,4.5382 l 0.001,1.30572 -4.45085,2.00507 c -11.8866,5.35482 -25.25182,8.67291 -38.46328,9.54901 -5.4797,0.36339 -7.21813,0.38414 -11.679,0.13944 z"
       id="path909" />
    <path
       style="fill:#ffffff;stroke-width:0.359165"
       d="m 147.76923,465.32885 c -20.61143,-2.6448 -38.77152,-13.98755 -50.235744,-31.37711 -4.447442,-6.74613 -8.334729,-16.17017 -9.926099,-24.06408 -1.160643,-5.75732 -1.469114,-10.7119 -1.469433,-23.60165 -3.46e-4,-13.91427 -0.130331,-14.6785 -2.95998,-17.40268 -1.822479,-1.75456 -2.766727,-2.28102 -5.008554,-2.79248 l -1.68284,-0.38394 19.754049,-26.33638 19.754051,-26.33639 19.73831,26.31822 19.73831,26.31821 -1.88821,0.48323 c -3.11016,0.79594 -5.15767,2.41896 -6.69019,5.30317 l -0.95422,1.79582 -0.11713,12.03204 c -0.16844,17.30257 0.54003,24.7467 3.32036,34.88802 4.28793,15.64034 12.82553,29.75474 25.036,41.38958 l 4.38202,4.17544 -14.15563,-0.0454 c -7.7856,-0.025 -15.27138,-0.18861 -16.63507,-0.36359 z"
       id="path911" />
  </g>
</svg>
