<?xml version="1.0" encoding="UTF-8" standalone="no"?>
<svg
   xmlns:dc="http://purl.org/dc/elements/1.1/"
   xmlns:cc="http://creativecommons.org/ns#"
   xmlns:rdf="http://www.w3.org/1999/02/22-rdf-syntax-ns#"
   xmlns:svg="http://www.w3.org/2000/svg"
   xmlns="http://www.w3.org/2000/svg"
   xmlns:sodipodi="http://sodipodi.sourceforge.net/DTD/sodipodi-0.dtd"
   xmlns:inkscape="http://www.inkscape.org/namespaces/inkscape"
   version="1.1"
   id="Capa_1"
   x="0px"
   y="0px"
   viewBox="0 0 512 512"
   style="enable-background:new 0 0 512 512;"
   xml:space="preserve"
   sodipodi:docname="cube.svg"
   inkscape:version="1.0.2-2 (e86c870879, 2021-01-15)"><metadata
   id="metadata1119"><rdf:RDF><cc:Work
       rdf:about=""><dc:format>image/svg+xml</dc:format><dc:type
         rdf:resource="http://purl.org/dc/dcmitype/StillImage" /></cc:Work></rdf:RDF></metadata><defs
   id="defs1117" /><sodipodi:namedview
   pagecolor="#ffffff"
   bordercolor="#666666"
   borderopacity="1"
   objecttolerance="10"
   gridtolerance="10"
   guidetolerance="10"
   inkscape:pageopacity="0"
   inkscape:pageshadow="2"
   inkscape:window-width="3840"
   inkscape:window-height="2050"
   id="namedview1115"
   showgrid="false"
   inkscape:zoom="1.96875"
   inkscape:cx="256"
   inkscape:cy="252.44444"
   inkscape:window-x="5108"
   inkscape:window-y="-12"
   inkscape:window-maximized="1"
   inkscape:current-layer="Capa_1" />
<g
   id="g1058">
	<g
   id="g1056">
		<path
   d="M75.051,0H15.068C6.787,0,0.073,6.714,0.073,14.996v60.983c0,8.282,6.713,14.996,14.996,14.996    c8.282,0,14.996-6.714,14.996-14.996V29.992h44.987c8.282,0,14.996-6.714,14.996-14.996C90.047,6.714,83.333,0,75.051,0z"
   id="path1054" />
	</g>
</g>
<g
   id="g1064">
	<g
   id="g1062">
		<path
   d="M496.932,0h-59.983c-8.282,0-14.996,6.714-14.996,14.996c0,8.282,6.713,14.996,14.996,14.996h44.987v45.987    c0,8.282,6.714,14.996,14.996,14.996c8.282,0,14.996-6.714,14.996-14.996V14.996C511.928,6.714,505.214,0,496.932,0z"
   id="path1060" />
	</g>
</g>
<g
   id="g1070">
	<g
   id="g1068">
		<path
   d="M75.051,481.864H30.064v-45.987c0-8.282-6.714-14.996-14.996-14.996s-14.996,6.714-14.996,14.996v60.983    c0,8.282,6.713,14.996,14.996,14.996h59.983c8.282,0,14.996-6.714,14.996-14.996C90.047,488.578,83.333,481.864,75.051,481.864z"
   id="path1066" />
	</g>
</g>
<g
   id="g1076">
	<g
   id="g1074">
		<path
   d="M496.932,420.881c-8.282,0-14.996,6.714-14.996,14.996v45.987h-44.987c-8.282,0-14.996,6.714-14.996,14.996    c0,8.282,6.714,14.996,14.996,14.996h59.983c8.282,0,14.996-6.714,14.996-14.996v-60.983    C511.928,427.595,505.214,420.881,496.932,420.881z"
   id="path1072" />
	</g>
</g>
<g
   id="g1082">
	<g
   id="g1080">
		<path
   d="M472.37,123.023L263.517,2.021c-4.649-2.694-10.386-2.694-15.035,0L39.544,123.022c-4.606,2.669-7.481,7.638-7.481,12.966    c0,0.03,0.003,0.06,0.003,0.089v239.924c0,5.379,2.923,10.413,7.63,13.063L248.483,509.98c2.249,1.303,4.925,2.02,7.518,2.02    c2.707,0,5.352-0.766,7.518-2.02l208.702-120.917c0.035-0.02,0.069-0.04,0.104-0.06c4.837-3.49,7.444-6.423,7.517-12.821    c0.001-0.06,0.006-0.119,0.006-0.179V136.079c0-0.03,0.003-0.06,0.003-0.089C479.851,130.657,476.974,125.687,472.37,123.023z     M241.004,470.986L77.178,376.069l126.299-72.429c7.185-4.12,9.669-13.284,5.548-20.468c-4.119-7.185-13.283-9.668-20.468-5.548    L62.055,350.116V161.909l178.949,102.77V470.986z M256,238.706L77.156,135.945L256,32.327l178.844,103.618L256,238.706z     M449.954,350.116l-126.511-72.493c-7.184-4.119-16.348-1.637-20.468,5.548c-4.121,7.185-1.637,16.348,5.548,20.468    l126.299,72.428l-163.827,94.917V264.679l178.958-102.77V350.116z"
   id="path1078" />
	</g>
</g>
<g
   id="g1084">
</g>
<g
   id="g1086">
</g>
<g
   id="g1088">
</g>
<g
   id="g1090">
</g>
<g
   id="g1092">
</g>
<g
   id="g1094">
</g>
<g
   id="g1096">
</g>
<g
   id="g1098">
</g>
<g
   id="g1100">
</g>
<g
   id="g1102">
</g>
<g
   id="g1104">
</g>
<g
   id="g1106">
</g>
<g
   id="g1108">
</g>
<g
   id="g1110">
</g>
<g
   id="g1112">
</g>
<path
   style="fill:#ffffff;stroke-width:0.507937"
   d="m 160.25397,423.82863 c -44.13968,-25.58171 -80.764299,-46.78414 -81.388035,-47.11651 -1.032993,-0.55045 4.512449,-3.84019 62.222225,-36.91219 35.18363,-20.16284 64.29062,-37.16004 65.45748,-38.22429 5.44203,-4.96345 6.15563,-14.23514 1.55943,-20.26117 -3.54623,-4.64941 -10.23142,-6.96665 -15.70413,-5.44339 -1.71363,0.47696 -14.76091,7.65441 -34.96418,19.23417 -17.72673,10.16029 -46.28755,26.52951 -63.468506,36.37604 L 62.730159,349.38407 62.60053,302.69203 c -0.0713,-25.68062 -0.0713,-67.6962 0,-93.36795 l 0.129629,-46.67592 89.015871,51.1168 89.01587,51.1168 v 102.73372 c 0,56.50355 -0.0571,102.73184 -0.12698,102.72954 -0.0698,-0.003 -36.24127,-20.93468 -80.38095,-46.51639 z"
   id="path1682" /><path
   style="fill:#ffffff;stroke-width:0.507937"
   d="M 166.73462,187.06065 C 95.686338,146.23128 77.901702,135.81046 78.607642,135.42307 79.094074,135.15614 119.0816,112.00532 167.4688,83.976808 c 48.38721,-28.028513 88.23424,-50.960935 88.54897,-50.960935 0.43325,0 121.49321,69.909607 171.50225,99.038977 l 6.69462,3.8995 -88.51987,50.8654 c -48.68594,27.97597 -88.84138,50.98414 -89.23431,51.12927 -0.39293,0.14514 -40.76956,-22.75463 -89.72584,-50.88837 z"
   id="path1684" /><path
   style="fill:#ffffff;stroke-width:0.507937"
   d="m 271.24011,367.63692 0.002,-102.74803 89.01386,-51.11237 89.01386,-51.11236 0.12963,46.66792 c 0.0713,25.66736 0.0713,67.67232 0,93.34437 l -0.12963,46.67645 -63.70899,-36.50142 c -48.09578,-27.55599 -64.37687,-36.65089 -66.43424,-37.1113 -5.48772,-1.2281 -11.80732,1.08466 -15.23168,5.57429 -4.59743,6.02765 -3.8822,15.30246 1.56246,20.26117 1.1648,1.06084 30.38793,18.12359 65.45697,38.2189 50.43789,28.902 63.17343,36.40107 62.47315,36.7861 -0.48376,0.26598 -36.651,21.20742 -80.37164,46.53651 -43.72063,25.32909 -80.00635,46.32625 -80.63492,46.66035 l -1.14285,0.60745 z"
   id="path1686" /></svg>
