<?xml version="1.0" encoding="UTF-8" standalone="no"?>
<svg
   xmlns:dc="http://purl.org/dc/elements/1.1/"
   xmlns:cc="http://creativecommons.org/ns#"
   xmlns:rdf="http://www.w3.org/1999/02/22-rdf-syntax-ns#"
   xmlns:svg="http://www.w3.org/2000/svg"
   xmlns="http://www.w3.org/2000/svg"
   xmlns:sodipodi="http://sodipodi.sourceforge.net/DTD/sodipodi-0.dtd"
   xmlns:inkscape="http://www.inkscape.org/namespaces/inkscape"
   version="1.1"
   id="Capa_1"
   x="0px"
   y="0px"
   viewBox="0 0 44 44"
   style="enable-background:new 0 0 44 44;"
   xml:space="preserve"
   sodipodi:docname="equal.svg"
   inkscape:version="1.0.2-2 (e86c870879, 2021-01-15)"><metadata
   id="metadata1099"><rdf:RDF><cc:Work
       rdf:about=""><dc:format>image/svg+xml</dc:format><dc:type
         rdf:resource="http://purl.org/dc/dcmitype/StillImage" /><dc:title></dc:title></cc:Work></rdf:RDF></metadata><defs
   id="defs1097" /><sodipodi:namedview
   pagecolor="#ffffff"
   bordercolor="#666666"
   borderopacity="1"
   objecttolerance="10"
   gridtolerance="10"
   guidetolerance="10"
   inkscape:pageopacity="0"
   inkscape:pageshadow="2"
   inkscape:window-width="3840"
   inkscape:window-height="2050"
   id="namedview1095"
   showgrid="false"
   inkscape:pagecheckerboard="true"
   showborder="false"
   inkscape:zoom="22.909091"
   inkscape:cx="22"
   inkscape:cy="21.694444"
   inkscape:window-x="5108"
   inkscape:window-y="-12"
   inkscape:window-maximized="1"
   inkscape:current-layer="Capa_1" />
<g
   id="g1062">
	<path
   d="M5.941,20h32.117C41.335,20,44,17.309,44,14s-2.665-6-5.941-6H5.941C2.665,8,0,10.691,0,14S2.665,20,5.941,20z M5.941,10   h32.117C40.195,10,42,11.832,42,14s-1.805,4-3.941,4H5.941C3.805,18,2,16.168,2,14S3.805,10,5.941,10z"
   id="path1058" />
	<path
   d="M38.059,24H5.941C2.665,24,0,26.691,0,30s2.665,6,5.941,6h32.117C41.335,36,44,33.309,44,30S41.335,24,38.059,24z    M38.059,34H5.941C3.805,34,2,32.168,2,30s1.805-4,3.941-4h32.117C40.195,26,42,27.832,42,30S40.195,34,38.059,34z"
   id="path1060" />
</g>
<g
   id="g1064">
</g>
<g
   id="g1066">
</g>
<g
   id="g1068">
</g>
<g
   id="g1070">
</g>
<g
   id="g1072">
</g>
<g
   id="g1074">
</g>
<g
   id="g1076">
</g>
<g
   id="g1078">
</g>
<g
   id="g1080">
</g>
<g
   id="g1082">
</g>
<g
   id="g1084">
</g>
<g
   id="g1086">
</g>
<g
   id="g1088">
</g>
<g
   id="g1090">
</g>
<g
   id="g1092">
</g>
<path
   style="fill:#ffffff;stroke-width:0.0436508"
   d="M 5.4345238,17.940636 C 4.6518691,17.822112 3.9211726,17.46489 3.3209528,16.907356 2.600565,16.2382 2.1685685,15.386046 2.0483046,14.396937 1.9102449,13.261468 2.3642481,12.028817 3.2379417,11.16699 c 0.5374536,-0.530154 1.2424116,-0.914248 1.955435,-1.065413 0.4260312,-0.09032 33.1872153,-0.09032 33.6132463,0 1.950831,0.413586 3.379764,2.365142 3.145072,4.29536 -0.203832,1.676411 -1.325009,2.977183 -2.993362,3.47285 l -0.305555,0.09078 -16.5,0.0066 c -9.075,0.0036 -16.5982145,-0.0083 -16.7182542,-0.02649 z"
   id="path1662" /><path
   style="fill:#ffffff;stroke-width:0.0436508"
   d="M 5.172619,33.896236 C 3.2340395,33.473285 1.8148451,31.523146 2.0483046,29.603062 2.2545345,27.906929 3.4196376,26.57215 5.0890043,26.119543 5.3816839,26.04019 5.8964677,26.037698 22,26.037698 c 15.82862,0 16.62246,0.0037 16.892857,0.07818 0.712591,0.196355 1.280171,0.506732 1.78619,0.976764 0.720388,0.669156 1.152385,1.52131 1.272648,2.510418 0.137748,1.132901 -0.317921,2.370072 -1.189637,3.229948 -0.537453,0.530154 -1.242411,0.914248 -1.955435,1.065413 -0.412385,0.08743 -33.2330389,0.08529 -33.634004,-0.0022 z"
   id="path1664" /></svg>
