<?xml version="1.0" encoding="UTF-8" standalone="no"?>
<svg
   xmlns:dc="http://purl.org/dc/elements/1.1/"
   xmlns:cc="http://creativecommons.org/ns#"
   xmlns:rdf="http://www.w3.org/1999/02/22-rdf-syntax-ns#"
   xmlns:svg="http://www.w3.org/2000/svg"
   xmlns="http://www.w3.org/2000/svg"
   xmlns:sodipodi="http://sodipodi.sourceforge.net/DTD/sodipodi-0.dtd"
   xmlns:inkscape="http://www.inkscape.org/namespaces/inkscape"
   version="1.1"
   id="Capa_1"
   x="0px"
   y="0px"
   viewBox="0 0 191.147 191.147"
   style="enable-background:new 0 0 191.147 191.147;"
   xml:space="preserve"
   sodipodi:docname="finish.svg"
   inkscape:version="1.0.2-2 (e86c870879, 2021-01-15)"><metadata
   id="metadata1112"><rdf:RDF><cc:Work
       rdf:about=""><dc:format>image/svg+xml</dc:format><dc:type
         rdf:resource="http://purl.org/dc/dcmitype/StillImage" /><dc:title></dc:title></cc:Work></rdf:RDF></metadata><defs
   id="defs1110" /><sodipodi:namedview
   pagecolor="#ffffff"
   bordercolor="#666666"
   borderopacity="1"
   objecttolerance="10"
   gridtolerance="10"
   guidetolerance="10"
   inkscape:pageopacity="0"
   inkscape:pageshadow="2"
   inkscape:window-width="3840"
   inkscape:window-height="2050"
   id="namedview1108"
   showgrid="false"
   inkscape:pagecheckerboard="true"
   showborder="false"
   inkscape:zoom="5.2734282"
   inkscape:cx="95.573502"
   inkscape:cy="94.246092"
   inkscape:window-x="5108"
   inkscape:window-y="-12"
   inkscape:window-maximized="1"
   inkscape:current-layer="Capa_1" />
<g
   id="g1027">
	<g
   id="g1025">
		<path
   d="M17.067,27.307c1.884,0,3.413-1.529,3.413-3.413V3.413C20.48,1.529,18.951,0,17.067,0H3.413C1.529,0,0,1.529,0,3.413    v184.32c0,1.884,1.529,3.413,3.413,3.413h13.653c1.884,0,3.413-1.529,3.413-3.413V85.757c0-1.884-1.529-3.413-3.413-3.413    s-3.413,1.529-3.413,3.413v98.563H6.827V6.827h6.827v17.067C13.653,25.777,15.183,27.307,17.067,27.307z"
   id="path1023" />
	</g>
</g>
<g
   id="g1033">
	<g
   id="g1031">
		<path
   d="M187.733,0H174.08c-1.884,0-3.413,1.529-3.413,3.413v20.48c0,1.884,1.529,3.413,3.413,3.413    c1.884,0,3.413-1.529,3.413-3.413V6.827h6.827V184.32h-6.827V85.185c0-1.884-1.529-3.413-3.413-3.413    c-1.884,0-3.413,1.529-3.413,3.413v102.549c0,1.884,1.529,3.413,3.413,3.413h13.653c1.884,0,3.413-1.529,3.413-3.413V3.413    C191.147,1.529,189.618,0,187.733,0z"
   id="path1029" />
	</g>
</g>
<g
   id="g1039">
	<g
   id="g1037">
		<path
   d="M189.962,21.308c-0.754-0.648-1.749-0.94-2.731-0.792l-29.841,4.422c-41.018,6.076-82.618,6.077-123.636,0L3.913,20.516    c-0.983-0.147-1.98,0.143-2.731,0.792C0.432,21.956,0,22.9,0,23.893V81.92c0,1.691,1.241,3.128,2.913,3.376l29.841,4.422    c20.842,3.087,41.83,4.63,62.819,4.63s41.977-1.543,62.817-4.628l29.841-4.422c1.672-0.249,2.913-1.686,2.913-3.378V23.893    C191.145,22.9,190.713,21.956,189.962,21.308z M184.32,78.974l-26.93,3.99c-41.018,6.076-82.618,6.077-123.636,0l-26.928-3.99    V27.849l25.929,3.842c41.684,6.173,83.953,6.173,125.636,0l25.928-3.842V78.974z"
   id="path1035" />
	</g>
</g>
<g
   id="g1045">
	<g
   id="g1043">
		<path
   d="M54.926,48.323c-0.28-0.393-0.64-0.688-1.08-0.889c-0.44-0.201-0.934-0.328-1.48-0.381c-0.546-0.053-1.087-0.08-1.62-0.08    h-7.798c-0.759,0-1.347,0.133-1.76,0.399c-0.413,0.266-0.713,0.616-0.899,1.05c-0.186,0.433-0.297,0.923-0.329,1.469    c-0.032,0.546-0.049,1.106-0.049,1.679v18.801c0,0.587,0.017,1.154,0.049,1.7s0.143,1.036,0.329,1.469    c0.186,0.433,0.486,0.78,0.899,1.039c0.413,0.261,1,0.391,1.76,0.391c0.747,0,1.328-0.131,1.741-0.391    c0.413-0.259,0.717-0.606,0.91-1.039s0.307-0.923,0.34-1.469c0.032-0.546,0.049-1.113,0.049-1.7V64.01h2.521    c0.532,0,1.073-0.02,1.62-0.06c0.546-0.039,1.039-0.152,1.48-0.34s0.8-0.481,1.08-0.881s0.42-0.959,0.42-1.679    s-0.143-1.278-0.43-1.679c-0.287-0.401-0.65-0.695-1.091-0.881s-0.932-0.3-1.48-0.34c-0.548-0.039-1.08-0.06-1.601-0.06h-2.521    v-5.2h4.76c0.532,0,1.073-0.026,1.62-0.08c0.546-0.055,1.039-0.181,1.48-0.381c0.44-0.2,0.8-0.497,1.08-0.889    c0.28-0.393,0.42-0.93,0.42-1.609S55.206,48.715,54.926,48.323z"
   id="path1041" />
	</g>
</g>
<g
   id="g1051">
	<g
   id="g1049">
		<path
   d="M65.775,49.894c-0.06-0.546-0.2-1.036-0.42-1.469s-0.551-0.783-0.99-1.05c-0.439-0.266-1.046-0.399-1.819-0.399    c-0.773,0-1.379,0.133-1.819,0.399c-0.44,0.266-0.77,0.616-0.99,1.05s-0.36,0.923-0.42,1.469c-0.06,0.546-0.09,1.106-0.09,1.679h0    v18.801c0,0.587,0.031,1.154,0.09,1.7c0.06,0.546,0.2,1.036,0.42,1.469s0.551,0.778,0.99,1.039s1.046,0.391,1.819,0.391    c0.773,0,1.382-0.131,1.83-0.391c0.447-0.259,0.78-0.606,1-1.039c0.22-0.433,0.357-0.923,0.41-1.469    c0.053-0.546,0.08-1.113,0.08-1.7V51.574C65.865,51,65.835,50.44,65.775,49.894z"
   id="path1047" />
	</g>
</g>
<g
   id="g1057">
	<g
   id="g1055">
		<path
   d="M93.546,48.882c-0.055-0.381-0.181-0.71-0.381-0.99c-0.2-0.28-0.497-0.505-0.889-0.671s-0.93-0.249-1.609-0.249    c-0.614,0-1.097,0.082-1.451,0.249c-0.353,0.167-0.621,0.391-0.8,0.671s-0.297,0.609-0.35,0.99c-0.053,0.381-0.08,0.783-0.08,1.21    v16.601h-0.48l-6.364-17.237c-0.172-0.468-0.406-0.881-0.7-1.241c-0.268-0.307-0.611-0.589-1.031-0.85s-0.963-0.391-1.63-0.391    h-2.64c-0.748,0-1.324,0.131-1.731,0.391c-0.406,0.259-0.703,0.606-0.889,1.039c-0.186,0.434-0.297,0.927-0.329,1.48    c-0.032,0.553-0.05,1.116-0.05,1.69v20.28c0,0.427,0.026,0.829,0.08,1.21c0.055,0.381,0.181,0.71,0.381,0.99    c0.2,0.28,0.5,0.505,0.899,0.671c0.399,0.166,0.947,0.249,1.64,0.249c0.614,0,1.097-0.082,1.451-0.249    c0.353-0.167,0.621-0.391,0.8-0.671c0.179-0.28,0.297-0.609,0.35-0.99c0.053-0.381,0.08-0.783,0.08-1.21V55.253h0.48l6.04,16.36    c0.094,0.266,0.224,0.594,0.391,0.98c0.167,0.386,0.391,0.756,0.671,1.109s0.63,0.652,1.05,0.899c0.42,0.247,0.944,0.37,1.57,0.37    h2.64c0.734,0,1.302-0.131,1.71-0.391c0.408-0.259,0.7-0.606,0.881-1.039c0.181-0.433,0.288-0.923,0.321-1.469    c0.032-0.546,0.049-1.113,0.049-1.7v-20.28C93.626,49.666,93.6,49.263,93.546,48.882z"
   id="path1053" />
	</g>
</g>
<g
   id="g1063">
	<g
   id="g1061">
		<path
   d="M106.295,49.894c-0.06-0.546-0.2-1.036-0.42-1.469s-0.551-0.783-0.99-1.05s-1.046-0.399-1.819-0.399    c-0.773,0-1.379,0.133-1.819,0.399s-0.77,0.616-0.99,1.05s-0.36,0.923-0.42,1.469c-0.06,0.546-0.09,1.106-0.09,1.679v18.801    c0,0.587,0.031,1.154,0.09,1.7s0.2,1.036,0.42,1.469s0.551,0.778,0.99,1.039s1.046,0.391,1.819,0.391s1.382-0.131,1.83-0.391    c0.447-0.259,0.78-0.606,1-1.039c0.22-0.433,0.357-0.923,0.41-1.469c0.053-0.546,0.08-1.113,0.08-1.7V51.574    C106.385,51,106.354,50.44,106.295,49.894z"
   id="path1059" />
	</g>
</g>
<g
   id="g1069">
	<g
   id="g1067">
		<path
   d="M128.186,64.333c-0.319-0.787-0.741-1.493-1.26-2.12c-0.519-0.626-1.106-1.186-1.76-1.679    c-0.654-0.493-1.323-0.951-2.01-1.37c-0.688-0.42-1.358-0.819-2.01-1.2c-0.652-0.381-1.236-0.771-1.749-1.171    c-0.514-0.399-0.928-0.823-1.241-1.27s-0.476-0.951-0.49-1.51c0-0.679,0.082-1.212,0.236-1.584s0.36-0.65,0.62-0.829    s0.56-0.29,0.899-0.329c0.34-0.039,0.69-0.06,1.05-0.06c0.761,0,1.336,0.213,1.731,0.64c0.394,0.427,0.591,1.186,0.591,2.28    c0,0.266,0.082,0.531,0.241,0.79s0.365,0.49,0.62,0.69c0.254,0.2,0.541,0.364,0.86,0.49s0.638,0.189,0.959,0.189    c0.413,0,0.797-0.061,1.15-0.189s0.66-0.305,0.92-0.531c0.259-0.225,0.466-0.502,0.62-0.829c0.154-0.328,0.23-0.691,0.23-1.091    c0-0.266-0.019-0.62-0.06-1.06s-0.14-0.913-0.3-1.42c-0.16-0.507-0.404-1.021-0.73-1.539c-0.326-0.519-0.773-0.985-1.34-1.399    s-1.277-0.754-2.13-1.021s-1.893-0.399-3.12-0.399h-0.521c-1.347,0-2.541,0.118-3.581,0.35s-1.917,0.63-2.63,1.19    c-0.713,0.56-1.253,1.312-1.62,2.26c-0.367,0.947-0.556,2.133-0.57,3.56v0.321c0.014,0.865,0.177,1.638,0.49,2.319    s0.73,1.3,1.249,1.86c0.519,0.56,1.103,1.077,1.749,1.55c0.647,0.473,1.309,0.927,1.99,1.36s1.346,0.867,2,1.3    c0.654,0.433,1.234,0.891,1.741,1.37c0.507,0.48,0.918,0.998,1.23,1.56c0.312,0.562,0.469,1.188,0.469,1.881    c0,0.56-0.07,1.022-0.21,1.389s-0.329,0.66-0.57,0.881c-0.241,0.22-0.531,0.374-0.87,0.461s-0.71,0.137-1.109,0.15    c-0.8,0-1.413-0.183-1.84-0.55s-0.652-1.05-0.679-2.05c-0.014-0.452-0.116-0.85-0.311-1.19c-0.195-0.34-0.44-0.62-0.741-0.84    s-0.633-0.382-1-0.49c-0.367-0.107-0.724-0.16-1.07-0.16c-0.374,0-0.73,0.055-1.07,0.16s-0.64,0.27-0.899,0.49    c-0.259,0.22-0.469,0.503-0.63,0.85c-0.16,0.346-0.241,0.754-0.241,1.22c0,0.452,0.053,0.939,0.16,1.459    c0.107,0.521,0.282,1.044,0.521,1.57c0.239,0.526,0.563,1.036,0.969,1.529c0.406,0.493,0.917,0.932,1.529,1.311    c0.613,0.379,1.347,0.683,2.2,0.91s1.847,0.34,2.98,0.34h0.2c0.587-0.014,1.212-0.068,1.87-0.16    c0.659-0.092,1.312-0.253,1.959-0.48c0.647-0.227,1.265-0.529,1.85-0.91s1.099-0.865,1.539-1.451    c0.44-0.585,0.794-1.285,1.06-2.099s0.399-1.766,0.399-2.86v-0.16C128.679,66.012,128.505,65.12,128.186,64.333z"
   id="path1065" />
	</g>
</g>
<g
   id="g1075">
	<g
   id="g1073">
		<path
   d="M150.472,49.894c-0.055-0.546-0.184-1.036-0.391-1.469c-0.207-0.433-0.514-0.783-0.92-1.05    c-0.406-0.266-0.957-0.399-1.65-0.399c-0.707,0-1.261,0.133-1.661,0.399s-0.701,0.616-0.91,1.05s-0.338,0.923-0.391,1.469    c-0.053,0.546-0.08,1.106-0.08,1.679v6.281h-5.48v-6.281c0-0.573-0.026-1.133-0.08-1.679c-0.055-0.546-0.184-1.036-0.391-1.469    c-0.207-0.433-0.514-0.783-0.92-1.05c-0.406-0.266-0.957-0.399-1.65-0.399c-0.707,0-1.261,0.133-1.661,0.399    s-0.701,0.616-0.91,1.05s-0.338,0.923-0.391,1.469c-0.053,0.546-0.08,1.106-0.08,1.679v18.801c0,0.587,0.026,1.154,0.08,1.7    c0.055,0.546,0.184,1.036,0.391,1.469s0.509,0.778,0.91,1.039s0.954,0.391,1.661,0.391c0.693,0,1.244-0.131,1.65-0.391    s0.712-0.606,0.92-1.039c0.208-0.433,0.338-0.923,0.391-1.469c0.053-0.546,0.08-1.113,0.08-1.7v-6.641h5.48v6.641    c0,0.587,0.026,1.154,0.08,1.7c0.055,0.546,0.184,1.036,0.391,1.469s0.509,0.778,0.91,1.039s0.954,0.391,1.661,0.391    c0.693,0,1.244-0.131,1.65-0.391s0.712-0.606,0.92-1.039c0.208-0.433,0.338-0.923,0.391-1.469c0.053-0.546,0.08-1.113,0.08-1.7    V51.574C150.552,51,150.526,50.44,150.472,49.894z"
   id="path1071" />
	</g>
</g>
<g
   id="g1077">
</g>
<g
   id="g1079">
</g>
<g
   id="g1081">
</g>
<g
   id="g1083">
</g>
<g
   id="g1085">
</g>
<g
   id="g1087">
</g>
<g
   id="g1089">
</g>
<g
   id="g1091">
</g>
<g
   id="g1093">
</g>
<g
   id="g1095">
</g>
<g
   id="g1097">
</g>
<g
   id="g1099">
</g>
<g
   id="g1101">
</g>
<g
   id="g1103">
</g>
<g
   id="g1105">
</g>
<path
   style="fill:#ffffff;stroke-width:0.18963"
   d="M 84.574964,87.30569 C 66.79706,86.693102 52.024404,85.456195 37.072658,83.328344 29.618939,82.267573 6.9510419,78.884007 6.8901291,78.823094 6.8544729,78.787438 6.8469434,67.329598 6.8733967,53.361227 l 0.048097,-25.397039 6.0681583,0.898845 c 30.367997,4.498252 35.637004,5.166667 48.924531,6.206464 18.489792,1.446893 37.964414,1.711923 55.940837,0.761297 16.6648,-0.881264 26.66615,-1.986875 52.28542,-5.779947 7.37619,-1.092087 13.54154,-1.985612 13.70076,-1.985612 0.25813,0 0.28949,2.751284 0.28949,25.395347 v 25.395349 l -0.52148,0.109739 c -1.15875,0.243845 -29.31181,4.351867 -33.99117,4.959904 -11.48355,1.492175 -22.67703,2.470816 -35.74525,3.125191 -3.84193,0.19238 -25.614928,0.381829 -29.297826,0.254925 z M 123.21905,74.786887 c 2.33737,-0.608807 4.18706,-2.163888 5.0032,-4.206306 0.36044,-0.902012 0.43284,-1.442615 0.43686,-3.261944 0.005,-2.054605 -0.0293,-2.252042 -0.585,-3.413339 -1.05174,-2.197916 -1.71336,-2.777179 -7.20658,-6.309501 -1.05483,-0.67829 -2.14691,-1.53354 -2.42684,-1.900553 -0.89887,-1.178475 -0.89267,-2.90384 0.0137,-3.810195 0.42047,-0.420474 0.66201,-0.495329 1.59832,-0.495329 1.85634,0 2.38784,0.442424 2.58025,2.147815 0.15156,1.343337 0.50221,1.952914 1.3814,2.401444 1.40545,0.717004 3.17584,0.380925 3.98587,-0.756646 0.35955,-0.504945 0.43148,-0.836426 0.41187,-1.898088 -0.0581,-3.147896 -1.56792,-5.210377 -4.47491,-6.113024 -1.08624,-0.337289 -1.7923,-0.415373 -3.71178,-0.410495 -5.36839,0.01363 -7.66811,1.522774 -8.35806,5.484764 -0.30336,1.742053 -0.14412,3.625651 0.40287,4.765351 0.66155,1.378405 2.44276,3.025905 5.29118,4.893991 3.18999,2.092099 4.41839,3.278708 4.83039,4.666069 0.76586,2.578936 -0.85182,4.442164 -3.28734,3.786344 -0.93049,-0.250554 -1.53205,-1.065889 -1.53315,-2.077996 -3.8e-4,-0.358182 -0.17651,-1.014387 -0.39137,-1.458233 -0.88554,-1.829281 -3.99249,-2.162269 -5.25068,-0.56274 -0.52398,0.666136 -0.6733,1.683898 -0.43175,2.942787 0.58246,3.035584 2.5703,5.086278 5.5042,5.678236 0.57363,0.115739 1.21363,0.248749 1.42222,0.295582 0.65019,0.145976 3.68915,-0.09992 4.79514,-0.387994 z M 44.833071,74.6114 c 1.064618,-0.697567 1.14681,-1.104125 1.211851,-5.99445 l 0.05966,-4.485403 2.500348,-0.06572 c 2.717656,-0.07143 3.385115,-0.283529 4.158752,-1.321528 0.520859,-0.698845 0.520859,-2.668065 0,-3.36691 -0.7745,-1.039157 -1.44004,-1.250073 -4.171,-1.321821 l -2.512597,-0.06601 v -2.541398 -2.5414 l 3.271117,-0.0011 c 3.610754,-0.0011 4.426307,-0.144953 5.312292,-0.93658 0.543345,-0.485478 0.60564,-0.65714 0.673353,-1.855497 0.07115,-1.259234 0.04685,-1.352147 -0.523508,-2.001753 -0.983502,-1.120069 -1.359314,-1.178376 -7.595474,-1.178376 -5.181447,0 -5.633265,0.02656 -6.125258,0.360012 -1.213059,0.822171 -1.170177,0.359548 -1.228459,13.252446 -0.0345,7.630501 0.01532,11.969766 0.142865,12.443414 0.262634,0.975344 0.847445,1.680383 1.58129,1.906375 0.859445,0.26467 2.645843,0.108168 3.244772,-0.284263 z m 19.668962,-0.02134 c 0.329378,-0.192463 0.777858,-0.691265 0.996625,-1.108451 0.391385,-0.746374 0.397754,-0.94526 0.397754,-12.420763 V 49.398605 l -0.422639,-0.857476 c -0.581624,-1.180035 -1.344448,-1.602982 -2.895885,-1.605618 -1.462161,-0.0025 -2.34529,0.427203 -2.932555,1.426839 -0.375045,0.638399 -0.387507,0.983112 -0.440333,12.17833 -0.03637,7.708266 0.01235,11.769082 0.14721,12.269918 0.260303,0.96669 1.012131,1.851878 1.771768,2.086047 0.863958,0.266327 2.679589,0.101545 3.378055,-0.306583 z m 12.442873,-7.58e-4 c 0.940434,-0.697235 0.970801,-1.020202 0.982306,-10.447009 0.0059,-4.823712 0.07702,-8.770385 0.158076,-8.770385 0.08105,0 1.553058,3.814209 3.271117,8.476021 1.718059,4.661812 3.379744,8.907152 3.692634,9.434091 0.40175,0.676588 0.819599,1.086852 1.422224,1.396404 0.777026,0.399135 1.057595,0.433051 3.137483,0.37926 2.475875,-0.06403 2.982409,-0.236408 3.639147,-1.238405 0.309624,-0.4724 0.338027,-1.427405 0.382002,-12.84479 0.03689,-9.577125 -0.0055,-12.436337 -0.18963,-12.79024 -0.385453,-0.740867 -1.136045,-1.168959 -2.239409,-1.277222 -1.426842,-0.140004 -2.423772,0.225273 -2.918412,1.069312 -0.373467,0.637276 -0.392739,1.022384 -0.48398,9.671128 -0.08161,7.736385 -0.130859,8.927147 -0.348976,8.438533 -0.139673,-0.312889 -1.653432,-4.366229 -3.363906,-9.007423 -3.064652,-8.315607 -3.12251,-8.450118 -3.971712,-9.233832 -1.021126,-0.942375 -1.671609,-1.085787 -4.42355,-0.975253 -2.080694,0.08357 -2.638909,0.31829 -3.20032,1.345671 -0.311591,0.570211 -0.335799,1.505491 -0.335799,12.97392 0,12.246808 0.0036,12.364289 0.397021,12.894838 0.218362,0.294486 0.687697,0.641825 1.042965,0.771868 0.939906,0.344044 2.717972,0.202631 3.350719,-0.266487 z m 28.099604,0.0061 c 0.32309,-0.190855 0.77762,-0.732874 1.01007,-1.204488 l 0.42264,-0.857442 V 61.250478 c 0,-9.046862 -0.052,-11.46202 -0.26242,-12.186368 -0.47582,-1.638018 -1.93528,-2.436649 -3.91134,-2.140322 -1.03404,0.155065 -1.74667,0.706558 -2.1985,1.701393 -0.329431,0.725338 -0.351462,1.486716 -0.354377,12.246037 -0.0019,6.984959 0.07019,11.736445 0.184266,12.147098 0.218801,0.787602 1.040151,1.639672 1.821411,1.889517 0.8068,0.258016 2.61311,0.0864 3.28825,-0.312408 z m 32.79361,-0.05457 c 1.02831,-0.732188 1.16064,-1.447972 1.16064,-6.277872 v -4.357651 h 2.63249 2.63248 l 0.0803,4.314081 c 0.0721,3.872936 0.12101,4.404554 0.47868,5.198831 0.54012,1.199453 1.16114,1.573439 2.61921,1.577327 1.38948,0.0037 2.03793,-0.298884 2.60931,-1.217586 l 0.42019,-0.6756 V 60.966033 48.829716 l -0.43423,-0.698315 c -0.81103,-1.304299 -3.06273,-1.677082 -4.39592,-0.727769 -1.02273,0.728247 -1.19533,1.558954 -1.2912,6.21424 l -0.0869,4.219267 h -2.61978 -2.61979 l -0.0598,-4.503712 c -0.0572,-4.310405 -0.0785,-4.533684 -0.49404,-5.202026 -0.81299,-1.307447 -3.06299,-1.676898 -4.40271,-0.722928 -0.29702,0.211493 -0.69323,0.78544 -0.8846,1.281417 -0.32191,0.834298 -0.34662,1.709533 -0.34662,12.276143 0,10.469233 0.027,11.447872 0.33867,12.255318 0.38339,0.993411 0.79975,1.436963 1.58466,1.688181 0.83879,0.268459 2.45621,0.07479 3.079,-0.368677 z"
   id="path1675" /><path
   style="fill:#ffffff;stroke-width:0.18963"
   d="M 10.050388,21.327036 C 8.5380891,21.08435 7.1940867,20.879827 7.0637161,20.872542 6.8785958,20.862197 6.8266787,19.32255 6.8266787,13.842987 V 6.8266787 h 3.4133393 3.413339 v 7.4903833 7.490384 l -0.426667,-0.01958 c -0.234667,-0.01077 -1.664003,-0.218142 -3.176302,-0.46083 z"
   id="path1677" /><path
   style="fill:#ffffff;stroke-width:0.18963"
   d="M 6.8266787,135.14684 V 85.973362 l 3.3659323,0.494509 3.365931,0.494508 0.04777,48.678971 0.04777,48.67897 h -3.4137 -3.4137033 z"
   id="path1679" /><path
   style="fill:#ffffff;stroke-width:0.18963"
   d="M 177.49365,135.68385 V 87.047379 l 0.42666,-0.09926 c 0.23467,-0.05459 1.77067,-0.294862 3.41334,-0.53393 l 2.98667,-0.43467 v 49.170401 49.1704 h -3.41333 -3.41334 z"
   id="path1681" /><path
   style="fill:#ffffff;stroke-width:0.18963"
   d="M 177.49365,14.317062 V 6.8266787 h 3.41334 3.41333 v 7.0163083 c 0,3.85897 -0.064,7.018131 -0.14222,7.020358 -0.0782,0.0022 -1.50756,0.214395 -3.1763,0.471485 -1.66874,0.25709 -3.14075,0.468601 -3.27112,0.470026 -0.18567,0.002 -0.23703,-1.620525 -0.23703,-7.487794 z"
   id="path1683" /></svg>
