<?xml version="1.0" encoding="UTF-8" standalone="no"?>
<svg
   xmlns:dc="http://purl.org/dc/elements/1.1/"
   xmlns:cc="http://creativecommons.org/ns#"
   xmlns:rdf="http://www.w3.org/1999/02/22-rdf-syntax-ns#"
   xmlns:svg="http://www.w3.org/2000/svg"
   xmlns="http://www.w3.org/2000/svg"
   xmlns:sodipodi="http://sodipodi.sourceforge.net/DTD/sodipodi-0.dtd"
   xmlns:inkscape="http://www.inkscape.org/namespaces/inkscape"
   version="1.1"
   id="Capa_1"
   x="0px"
   y="0px"
   viewBox="0 0 480.008 480.008"
   style="enable-background:new 0 0 480.008 480.008;"
   xml:space="preserve"
   sodipodi:docname="function.svg"
   inkscape:version="1.0.2-2 (e86c870879, 2021-01-15)"><metadata
   id="metadata953"><rdf:RDF><cc:Work
       rdf:about=""><dc:format>image/svg+xml</dc:format><dc:type
         rdf:resource="http://purl.org/dc/dcmitype/StillImage" /><dc:title></dc:title></cc:Work></rdf:RDF></metadata><defs
   id="defs951" /><sodipodi:namedview
   pagecolor="#ffffff"
   bordercolor="#666666"
   borderopacity="1"
   objecttolerance="10"
   gridtolerance="10"
   guidetolerance="10"
   inkscape:pageopacity="0"
   inkscape:pageshadow="2"
   inkscape:window-width="3840"
   inkscape:window-height="2050"
   id="namedview949"
   showgrid="false"
   showborder="false"
   inkscape:pagecheckerboard="true"
   inkscape:zoom="2.099965"
   inkscape:cx="240.004"
   inkscape:cy="236.67061"
   inkscape:window-x="5108"
   inkscape:window-y="-12"
   inkscape:window-maximized="1"
   inkscape:current-layer="Capa_1" />
<g
   id="g898">
	<g
   id="g896">
		<path
   d="M477.004,465.756l-40-32c-1.419-1.135-3.183-1.753-5-1.752h-76.256l-26.664-32h110.92c22.08-0.026,39.974-17.92,40-40    v-320c-0.026-22.08-17.92-39.974-40-40h-400c-22.08,0.026-39.974,17.92-40,40v320c0.026,22.08,17.92,39.974,40,40h110.92    l-26.664,32H48.004c-1.817-0.001-3.581,0.617-5,1.752l-40,32c-3.451,2.759-4.011,7.794-1.252,11.244    c1.519,1.899,3.82,3.005,6.252,3.004h464c4.418,0.002,8.002-3.578,8.004-7.996C480.009,469.575,478.904,467.275,477.004,465.756z     M40.004,384.004c-13.255,0-24-10.745-24-24v-320c0-13.255,10.745-24,24-24h400c13.255,0,24,10.745,24,24v320    c0,13.255-10.745,24-24,24H40.004z M171.748,400.004H308.26l26.664,32h-189.84L171.748,400.004z M30.812,464.004l20-16h378.4    l19.984,16H30.812z"
   id="path894" />
	</g>
</g>
<g
   id="g904">
	<g
   id="g902">
		<path
   d="M440.004,32.004h-400c-4.418,0-8,3.582-8,8v288c0,4.418,3.582,8,8,8h400c4.418,0,8-3.582,8-8v-288    C448.004,35.586,444.422,32.004,440.004,32.004z M432.004,320.004h-384v-272h384V320.004z"
   id="path900" />
	</g>
</g>
<g
   id="g910">
	<g
   id="g908">
		<rect
   x="200.004"
   y="352.004"
   width="80"
   height="16"
   id="rect906" />
	</g>
</g>
<g
   id="g916">
	<g
   id="g914">
		<path
   d="M360.004,160.004h32c4.418,0,8-3.582,8-8v-32c0-4.418-3.582-8-8-8h-32c-4.418,0-8,3.582-8,8v8h-56    c-1.911,0-3.758,0.684-5.208,1.928l-12.88,11.04l-15.056-25.088c-1.446-2.407-4.048-3.879-6.856-3.88h-72v-8c0-4.418-3.582-8-8-8    h-96c-4.418,0-8,3.582-8,8v32c0,4.418,3.582,8,8,8h96c4.418,0,8-3.582,8-8v-8h67.472l14.128,23.528l-28.56,24.472h-53.04v-8    c0-4.418-3.582-8-8-8h-96c-4.418,0-8,3.582-8,8v32c0,4.418,3.582,8,8,8h96c4.418,0,8-3.582,8-8v-8h56    c1.911,0,3.758-0.684,5.208-1.928l28.728-24.624l20.232,33.752l-41.848,48.8h-68.32v-16c0-4.418-3.582-8-8-8h-96    c-4.418,0-8,3.582-8,8v32c0,4.418,3.582,8,8,8h96c4.418,0,8-3.582,8-8h72c2.334,0,4.552-1.02,6.072-2.792l45.608-53.208h44.32v8    c0,4.418,3.582,8,8,8h32c4.418,0,8-3.582,8-8v-32c0-4.418-3.582-8-8-8h-32c-4.418,0-8,3.582-8,8v8h-43.472l-22.264-37.112    l12.696-10.888h53.04v8C352.004,156.422,355.586,160.004,360.004,160.004z M368.004,128.004h16v16h-16V128.004z M168.004,128.004    h-80v-16h80V128.004z M168.004,192.004h-80v-16h80V192.004z M168.004,256.004h-80v-16h80V256.004z M368.004,192.004h16v16h-16    V192.004z"
   id="path912" />
	</g>
</g>
<g
   id="g918">
</g>
<g
   id="g920">
</g>
<g
   id="g922">
</g>
<g
   id="g924">
</g>
<g
   id="g926">
</g>
<g
   id="g928">
</g>
<g
   id="g930">
</g>
<g
   id="g932">
</g>
<g
   id="g934">
</g>
<g
   id="g936">
</g>
<g
   id="g938">
</g>
<g
   id="g940">
</g>
<g
   id="g942">
</g>
<g
   id="g944">
</g>
<g
   id="g946">
</g>
<path
   style="fill:#ffffff;stroke-width:0.476198"
   d="M 48.09604,184.05069 V 48.09604 H 240.004 431.91196 V 184.05069 320.00533 H 240.004 48.09604 Z m 130.10643,87.83765 c 2.57773,-0.71591 4.52951,-2.58554 5.47335,-5.24297 l 0.82861,-2.333 37.23908,-0.13017 c 36.73293,-0.12841 37.25735,-0.1435 38.5833,-1.11028 0.73932,-0.53905 11.73725,-13.11698 24.43984,-27.95095 l 23.09562,-26.97086 22.02418,-0.0257 22.02418,-0.0257 0.008,5.11913 c 0.009,6.18432 0.85919,8.1842 4.2338,9.96444 2.08743,1.10121 2.19407,1.10717 19.78038,1.10717 17.39064,0 17.71655,-0.0176 19.80254,-1.07144 1.1665,-0.5893 2.60478,-1.79958 3.19619,-2.68952 1.07106,-1.61166 1.07532,-1.69296 1.07532,-20.52516 0,-18.8322 -0.004,-18.9135 -1.07529,-20.52516 -0.59141,-0.88993 -2.0297,-2.10021 -3.19619,-2.68951 -2.08551,-1.05356 -2.41471,-1.07145 -19.7271,-1.07145 -16.87441,0 -17.69147,0.0413 -19.65801,0.99327 -3.53652,1.712 -4.17618,3.12066 -4.36029,9.60215 l -0.15893,5.59533 H 330.319 308.80713 l -10.4726,-17.44099 c -5.75992,-9.59255 -10.73055,-17.91788 -11.04584,-18.50073 -0.53733,-0.99333 -0.18404,-1.39244 5.63788,-6.36893 l 6.21113,-5.30919 h 26.38646 26.38647 v 5.16776 c 0,5.79702 0.61302,7.33498 3.77229,9.46401 1.60294,1.08022 1.65051,1.08278 20.16226,1.08278 18.01749,0 18.60757,-0.0292 20.34998,-1.00854 0.98694,-0.55469 2.24828,-1.81603 2.80297,-2.80297 0.97929,-1.74241 1.00854,-2.33249 1.00854,-20.34998 0,-18.51175 -0.002,-18.55932 -1.08278,-20.16226 -0.59553,-0.88371 -1.81611,-2.10093 -2.7124,-2.70494 l -1.62962,-1.0982 -18.92032,0.13447 c -18.25705,0.12976 -18.9664,0.1689 -20.23475,1.1163 -2.88033,2.15148 -3.26502,3.16424 -3.4381,9.05146 l -0.16003,5.44316 -28.17378,0.003 c -18.23274,0.002 -28.80997,0.17933 -29.97681,0.50336 -1.20155,0.33367 -4.11995,2.48164 -8.74825,6.43883 l -6.94522,5.93793 -7.95595,-13.22731 c -6.85762,-11.40127 -8.21377,-13.37416 -9.82349,-14.29093 l -1.86753,-1.06362 -37.02443,-0.008 -37.02442,-0.008 -0.003,-4.40484 c -0.001,-2.42266 -0.21365,-5.16435 -0.47154,-6.09265 -0.58358,-2.100652 -3.10948,-4.605984 -5.26792,-5.225013 -1.02262,-0.293343 -20.06015,-0.468246 -50.9663,-0.468246 H 78.246336 l -2.098741,1.107171 c -1.308385,0.690226 -2.499284,1.811039 -3.162355,2.97624 -1.049902,1.844978 -1.063612,2.105398 -1.063612,20.202708 0,18.09731 0.01371,18.35773 1.063612,20.20271 0.663071,1.1652 1.85397,2.28601 3.162355,2.97624 l 2.098741,1.10717 h 49.333834 c 30.90615,0 49.94368,-0.1749 50.9665,-0.46825 2.15844,-0.61903 4.68434,-3.12436 5.26792,-5.22501 0.25789,-0.9283 0.47008,-3.66999 0.47154,-6.09265 l 0.003,-4.40484 h 33.45372 33.45373 l 7.00613,11.6745 7.00612,11.67449 -14.14816,12.13543 -14.14817,12.13542 h -26.31168 -26.31169 v -4.66108 c 0,-5.43402 -1.0283,-8.16217 -3.76096,-9.97817 l -1.61807,-1.07529 H 128.09737 77.284986 l -1.606734,1.08278 c -0.883704,0.59552 -2.100926,1.8161 -2.704937,2.71239 l -1.098201,1.62963 0.134472,18.92032 c 0.12976,18.25704 0.168893,18.96639 1.116294,20.23475 0.540001,0.72293 1.573539,1.75625 2.29675,2.29625 1.30653,0.97555 1.639459,0.98255 52.11431,1.09661 l 50.79937,0.1148 1.86906,-1.06719 c 3.03376,-1.7322 4.08342,-4.29035 4.08342,-9.95176 v -4.68709 h 27.88483 c 18.53852,0 28.57543,-0.17389 29.94522,-0.51881 1.68056,-0.42317 4.76657,-2.83728 16.74025,-13.09546 8.07393,-6.91715 14.79559,-12.57664 14.93704,-12.57664 0.14146,0 4.70377,7.41021 10.13849,16.46715 l 9.8813,16.46714 -20.78154,24.24782 -20.78153,24.24781 h -33.95374 -33.95373 l -0.14734,-9.20347 c -0.1427,-8.91266 -0.18497,-9.25898 -1.33785,-10.95963 -0.65477,-0.96589 -2.06174,-2.18155 -3.12658,-2.70149 -1.89371,-0.92463 -3.02798,-0.94533 -51.80555,-0.94533 -48.739389,0 -49.911287,0.0213 -51.715182,0.94162 -1.015146,0.51789 -2.345917,1.64291 -2.957269,2.50004 l -1.111549,1.55843 -0.134865,18.68385 c -0.116112,16.08595 -0.03274,18.88134 0.599597,20.10415 0.999738,1.93328 3.049266,3.76991 4.77345,4.2776 2.088624,0.61501 98.607258,0.624 100.820228,0.009 z"
   id="path955" /><path
   style="fill:#ffffff;stroke-width:0.476198"
   d="m 34.588232,383.06045 c -6.32957,-1.53205 -12.440013,-6.25156 -15.417689,-11.90811 -3.203853,-6.0862 -2.965719,7.65625 -2.965719,-171.14901 0,-142.952843 0.08513,-162.506691 0.719164,-165.196527 2.076759,-8.810397 9.072418,-15.806056 17.882815,-17.882815 2.696033,-0.6355 26.56788,-0.719164 205.197197,-0.719164 178.62932,0 202.50117,0.08366 205.1972,0.719164 8.8104,2.076759 15.80605,9.072418 17.88281,17.882815 0.63404,2.689836 0.71917,22.243684 0.71917,165.196527 0,142.95285 -0.0851,162.5067 -0.71917,165.19653 -2.07676,8.8104 -9.07241,15.80606 -17.88281,17.88282 -2.69722,0.63578 -26.51701,0.71538 -205.4353,0.68653 C 66.656287,383.7413 36.977521,383.63877 34.588232,383.06045 Z M 280.00467,360.006 v -8.09537 H 240.004 200.00333 v 8.09537 8.09537 h 40.00067 40.00067 z m 163.79112,-24.75154 c 1.01514,-0.51789 2.34592,-1.6429 2.95727,-2.50004 l 1.11155,-1.55842 V 183.96656 36.737118 l -0.98182,-1.315042 c -0.54,-0.723273 -1.57359,-1.756862 -2.29687,-2.296862 l -1.31504,-0.981821 H 240.004 36.737118 l -1.315042,0.981821 c -0.723273,0.54 -1.756862,1.573589 -2.296862,2.296862 l -0.981821,1.315042 V 183.96656 331.196 l 1.109773,1.55593 c 0.610376,0.85576 1.896111,1.97131 2.857191,2.479 1.720781,0.90899 4.827172,0.92338 203.793563,0.9441 200.3565,0.0209 202.06158,0.0132 203.89187,-0.92057 z"
   id="path957" /><path
   style="fill:#ffffff;stroke-width:0.476198"
   d="m 88.096706,184.05069 v -7.85728 h 39.762564 39.76257 v 7.85728 7.85727 H 127.85927 88.096706 Z"
   id="path959" /><path
   style="fill:#ffffff;stroke-width:0.476198"
   d="M 88.096706,247.86127 V 240.004 h 39.762564 39.76257 v 7.85727 7.85728 H 127.85927 88.096706 Z"
   id="path961" /><path
   style="fill:#ffffff;stroke-width:0.476198"
   d="m 88.096706,120.002 v -7.61917 h 39.762564 39.76257 v 7.61917 7.61917 H 127.85927 88.096706 Z"
   id="path963" /><path
   style="fill:#ffffff;stroke-width:0.476198"
   d="m 146.5155,430.81469 c 0.47735,-0.6035 6.43681,-7.78219 13.24325,-15.95265 l 12.37534,-14.85537 h 67.86991 67.86991 l 12.37534,14.85537 c 6.80644,8.17046 12.7659,15.34915 13.24325,15.95265 l 0.86791,1.09727 H 240.004 145.64759 Z"
   id="path965" /><path
   style="fill:#ffffff;stroke-width:0.476198"
   d="m 32.167203,463.37749 c 0.248813,-0.24187 4.631029,-3.77727 9.738257,-7.85645 l 9.285869,-7.41667 188.876881,-8.3e-4 188.87688,-8.3e-4 9.22166,7.42697 c 5.07191,4.08483 9.42523,7.6206 9.67405,7.85727 0.26946,0.25631 -83.77111,0.4303 -207.8368,0.4303 -127.36458,0 -208.113424,-0.17085 -207.836797,-0.43976 z"
   id="path967" /><path
   style="fill:#ffffff;stroke-width:0.476198"
   d="m 368.10137,200.00333 v -7.61917 h 7.85728 7.85727 v 7.61917 7.61918 h -7.85727 -7.85728 z"
   id="path969" /><path
   style="fill:#ffffff;stroke-width:0.476198"
   d="m 368.10137,135.95465 v -7.85728 h 7.85728 7.85727 v 7.85728 7.85727 h -7.85727 -7.85728 z"
   id="path971" /></svg>
