<?xml version="1.0" encoding="UTF-8" standalone="no"?>
<svg
   xmlns:dc="http://purl.org/dc/elements/1.1/"
   xmlns:cc="http://creativecommons.org/ns#"
   xmlns:rdf="http://www.w3.org/1999/02/22-rdf-syntax-ns#"
   xmlns:svg="http://www.w3.org/2000/svg"
   xmlns="http://www.w3.org/2000/svg"
   xmlns:sodipodi="http://sodipodi.sourceforge.net/DTD/sodipodi-0.dtd"
   xmlns:inkscape="http://www.inkscape.org/namespaces/inkscape"
   version="1.1"
   id="Layer_1"
   x="0px"
   y="0px"
   viewBox="0 0 512 512"
   style="enable-background:new 0 0 512 512;"
   xml:space="preserve"
   sodipodi:docname="hash-key.svg"
   inkscape:version="1.0.2-2 (e86c870879, 2021-01-15)"><metadata
   id="metadata926"><rdf:RDF><cc:Work
       rdf:about=""><dc:format>image/svg+xml</dc:format><dc:type
         rdf:resource="http://purl.org/dc/dcmitype/StillImage" /><dc:title></dc:title></cc:Work></rdf:RDF></metadata><defs
   id="defs924" /><sodipodi:namedview
   pagecolor="#ffffff"
   bordercolor="#666666"
   borderopacity="1"
   objecttolerance="10"
   gridtolerance="10"
   guidetolerance="10"
   inkscape:pageopacity="0"
   inkscape:pageshadow="2"
   inkscape:window-width="3840"
   inkscape:window-height="2050"
   id="namedview922"
   showgrid="false"
   inkscape:pagecheckerboard="true"
   showborder="false"
   inkscape:zoom="1.96875"
   inkscape:cx="256"
   inkscape:cy="252.44444"
   inkscape:window-x="5108"
   inkscape:window-y="-12"
   inkscape:window-maximized="1"
   inkscape:current-layer="Layer_1" />
<g
   id="g883">
	<g
   id="g881">
		<path
   d="M 493.268,0 H 18.732 C 8.387,0 0,8.387 0,18.732 V 493.269 C 0,503.613 8.387,512 18.732,512 h 474.537 c 10.345,0 18.732,-8.387 18.732,-18.732 V 18.732 C 512,8.387 503.613,0 493.268,0 Z M 474.537,474.537 H 37.463 V 37.463 h 437.073 v 437.074 z"
   id="path879" />
	</g>
</g>
<g
   id="g889">
	<g
   id="g887">
		<path
   d="M362.683,294.828h-32.08l10.084-77.658h21.996c24.752,0,24.778-37.463,0-37.463h-17.131l3.634-27.98    c3.188-24.541-33.961-29.403-37.151-4.824l-4.26,32.804h-77.343l3.633-27.98c3.188-24.546-33.961-29.396-37.151-4.824    l-4.26,32.804h-43.339c-24.752,0-24.778,37.463,0,37.463h38.474l-10.084,77.658h-28.39v0c-24.752,0-24.778,37.463,0,37.463h23.526    l-3.633,27.98c-3.187,24.537,33.959,29.411,37.151,4.824l4.26-32.804h77.342l-3.634,27.98    c-3.179,24.467,33.912,29.778,37.151,4.824l4.26-32.804h36.945C387.435,332.292,387.462,294.828,362.683,294.828z M292.827,294.83    h-77.343l10.084-77.658h77.343L292.827,294.83z"
   id="path885" />
	</g>
</g>
<g
   id="g891">
</g>
<g
   id="g893">
</g>
<g
   id="g895">
</g>
<g
   id="g897">
</g>
<g
   id="g899">
</g>
<g
   id="g901">
</g>
<g
   id="g903">
</g>
<g
   id="g905">
</g>
<g
   id="g907">
</g>
<g
   id="g909">
</g>
<g
   id="g911">
</g>
<g
   id="g913">
</g>
<g
   id="g915">
</g>
<g
   id="g917">
</g>
<g
   id="g919">
</g>
<path
   style="fill:#ffffff;stroke-width:0.507937"
   d="M 37.587302,256 V 37.587302 H 256 474.4127 V 256 474.4127 H 256 37.587302 Z M 196.7361,379.51044 c 4.04836,-1.99301 7.00881,-5.18197 8.49434,-9.15001 0.72568,-1.9384 1.8016,-8.45204 3.31852,-20.09052 1.23458,-9.47219 2.24469,-17.30076 2.24469,-17.39682 0,-0.0961 17.25714,-0.17468 38.34921,-0.17468 31.50773,0 38.3492,0.12012 38.3492,0.67334 0,0.37034 -0.8,6.7618 -1.77777,14.20324 -1.98831,15.13211 -2.09917,17.38098 -1.03366,20.96774 1.71994,5.78975 5.95329,10.02971 11.88081,11.89938 3.50806,1.10651 9.27403,1.34931 12.27093,0.5167 2.91533,-0.80994 7.20171,-3.66495 8.94547,-5.95827 2.85179,-3.75054 3.52939,-6.55968 5.73879,-23.79161 1.14414,-8.92364 2.19675,-16.73909 2.33912,-17.36766 l 0.25884,-1.14286 h 18.69069 c 19.8368,0 23.03695,-0.27533 27.09383,-2.33111 7.71285,-3.90839 11.39952,-13.7837 8.59398,-23.02031 -1.50598,-4.95812 -4.35438,-8.38234 -8.9107,-10.71207 l -3.47685,-1.77778 -18.46547,-0.15596 -18.46547,-0.15596 0.004,-1.11388 c 0.003,-0.61263 2.17375,-17.79898 4.82539,-38.19189 2.65181,-20.39291 4.82134,-37.25006 4.82134,-37.46032 0,-0.21027 5.47446,-0.3823 12.16547,-0.3823 13.48772,0 15.9483,-0.33368 19.89075,-2.69736 11.79932,-7.07425 11.2106,-26.88806 -0.98251,-33.06677 -3.57356,-1.81086 -7.41192,-2.33111 -17.19875,-2.33111 -4.83758,0 -8.79508,-0.0572 -8.79445,-0.12699 5.1e-4,-0.0698 0.80063,-6.29011 1.77778,-13.82282 1.97106,-15.1947 2.13057,-18.70572 1.01973,-22.44631 -3.59263,-12.0977 -21.32292,-16.54036 -30.93853,-7.75223 -5.09454,4.65612 -5.47664,6.22021 -9.51355,38.942 l -0.6423,5.20635 h -38.51261 -38.51261 l 0.2601,-1.14286 c 0.14305,-0.62857 1.07651,-7.54024 2.07435,-15.35926 2.007,-15.72674 1.96599,-17.66897 -0.47488,-22.48577 -1.65808,-3.27207 -5.71172,-6.88171 -9.35685,-8.33197 -2.31526,-0.92116 -3.91473,-1.15583 -7.97543,-1.17016 -4.43226,-0.0156 -5.43823,0.1504 -7.89619,1.30328 -4.82629,2.26372 -8.29032,6.09438 -9.67544,10.69949 -0.39965,1.32871 -5.02563,34.53232 -5.03039,36.10629 -5.1e-4,0.20953 -9.90203,0.38096 -22.0031,0.38096 -23.28962,0 -26.25327,0.22721 -30.4051,2.33111 -7.71285,3.90839 -11.39952,13.7837 -8.59398,23.02031 1.50605,4.95834 4.35438,8.38239 8.91096,10.71207 l 3.47712,1.77778 21.76679,0.15224 c 16.5251,0.11559 21.76132,0.29906 21.74406,0.76191 -0.0125,0.33531 -2.24675,17.63823 -4.965,38.45093 l -4.94227,37.84127 -16.80234,0.25396 -16.80233,0.25397 -3.47657,1.77778 c -4.55604,2.32977 -7.40451,5.75418 -8.91042,10.71207 -2.75648,9.07511 0.87732,19.08842 8.30164,22.87602 3.86174,1.97012 5.08388,2.12684 18.94487,2.42945 l 13.73755,0.29992 -1.70458,12.69841 c -2.71225,20.20517 -2.42327,23.9947 2.2239,29.16347 4.32711,4.81279 9.0775,6.74023 16.00651,6.49455 3.72866,-0.13222 4.8794,-0.4003 7.7193,-1.79837 z"
   id="path928" /><path
   style="fill:#ffffff;stroke-width:0.507937"
   d="m 215.99307,292.95238 c 0.13914,-0.90794 2.39762,-18.27887 5.01884,-38.60208 l 4.76587,-36.95128 38.46349,-0.001 38.46349,-0.001 -0.24927,1.39682 c -0.13711,0.76825 -2.31034,17.39683 -4.8294,36.95238 -2.51907,19.55556 -4.71233,36.29841 -4.87392,37.20635 l -0.2938,1.65079 H 254.09923 215.7401 Z"
   id="path930" /></svg>
