<?xml version="1.0" encoding="UTF-8" standalone="no"?>
<svg
   xmlns:dc="http://purl.org/dc/elements/1.1/"
   xmlns:cc="http://creativecommons.org/ns#"
   xmlns:rdf="http://www.w3.org/1999/02/22-rdf-syntax-ns#"
   xmlns:svg="http://www.w3.org/2000/svg"
   xmlns="http://www.w3.org/2000/svg"
   xmlns:sodipodi="http://sodipodi.sourceforge.net/DTD/sodipodi-0.dtd"
   xmlns:inkscape="http://www.inkscape.org/namespaces/inkscape"
   id="Capa_1"
   enable-background="new 0 0 512.016 512.016"
   height="512"
   viewBox="0 0 512.016 512.016"
   width="512"
   version="1.1"
   sodipodi:docname="map.svg"
   inkscape:version="1.0.2-2 (e86c870879, 2021-01-15)">
  <metadata
     id="metadata1073">
    <rdf:RDF>
      <cc:Work
         rdf:about="">
        <dc:format>image/svg+xml</dc:format>
        <dc:type
           rdf:resource="http://purl.org/dc/dcmitype/StillImage" />
        <dc:title></dc:title>
      </cc:Work>
    </rdf:RDF>
  </metadata>
  <defs
     id="defs1071" />
  <sodipodi:namedview
     pagecolor="#ffffff"
     bordercolor="#666666"
     borderopacity="1"
     objecttolerance="10"
     gridtolerance="10"
     guidetolerance="10"
     inkscape:pageopacity="0"
     inkscape:pageshadow="2"
     inkscape:window-width="3840"
     inkscape:window-height="2050"
     id="namedview1069"
     showgrid="false"
     inkscape:pagecheckerboard="true"
     showborder="false"
     inkscape:zoom="1.3921165"
     inkscape:cx="591.60637"
     inkscape:cy="402.81714"
     inkscape:window-x="5108"
     inkscape:window-y="-12"
     inkscape:window-maximized="1"
     inkscape:current-layer="Capa_1" />
  <g
     id="g1066">
    <g
       id="g1064">
      <path
         d="m 453.47,1.565 c -2.933,-1.027 -5.973,-1.549 -9.035,-1.549 -15.123,0 -27.427,12.361 -27.427,27.555 V 80.022 H 206.292 c -7.346,0 -14.252,2.861 -19.445,8.055 l -20,20 c -4.873,4.875 -12.805,4.875 -17.678,0 l -20,-19.999 c -5.193,-5.194 -12.1,-8.056 -19.445,-8.056 H 95.008 V 27.571 C 95.008,18.653 90.66,10.247 83.378,5.083 76.048,-0.114 66.995,-1.398 58.547,1.566 23.534,13.843 0.008,47.034 0.008,84.157 v 340.359 c 0,48.248 39.252,87.5 87.5,87.5 h 204.591 c 7.346,0 14.251,-2.86 19.445,-8.054 l 20,-20 c 4.873,-4.875 12.805,-4.875 17.678,0 l 20,20 c 5.194,5.193 12.1,8.054 19.445,8.054 h 35.841 c 18.216,0 43.03228,-12.7996 57.85328,-23.2886 3.381,-2.394 1.48069,-4.20591 -0.91231,-7.58691 -2.394,-3.381 2.4179,-7.92396 -0.9631,-5.53196 -12.273,8.687 -40.88287,21.40747 -55.97787,21.40747 h -35.841 c -3.339,0 -6.478,-1.3 -8.838,-3.661 l -20,-20 c -10.723,-10.721 -28.17,-10.721 -38.893,0 l -20,20 c -2.36,2.361 -5.499,3.661 -8.838,3.661 H 87.508 c -39.977,0 -72.5,-32.523 -72.5,-72.5 0,-34.293 24.343,-64.164 57.88,-71.027 12.817,-2.622 22.12,-13.9 22.12,-26.816 v -50.989 c 0,-4.143 -3.357,-7.5 -7.5,-7.5 -4.143,0 -7.5,3.357 -7.5,7.5 v 50.989 c 0,5.917 -4.164,10.901 -10.127,12.121 -22.984,4.703 -42.39,18.354 -54.873,36.85 V 84.157 c 0,-30.762 19.491,-58.264 48.502,-68.437 3.801,-1.331 7.88,-0.749 11.192,1.599 3.372,2.391 5.306,6.128 5.306,10.252 v 218.112 c 0,4.143 3.357,7.5 7.5,7.5 4.143,0 7.5,-3.357 7.5,-7.5 V 95.022 h 14.716 c 3.339,0 6.478,1.3 8.838,3.662 l 20,20 c 5.361,5.361 12.404,8.041 19.446,8.041 7.042,0 14.085,-2.68 19.446,-8.041 l 20,-20.001 c 2.36,-2.361 5.499,-3.661 8.838,-3.661 h 210.716 v 97.218 c 0,7.346 2.86,14.251 8.054,19.445 l 20,20 c 2.361,2.36 3.662,5.5 3.662,8.839 0,3.338 -1.301,6.478 -3.662,8.838 l -20,20.001 c -5.193,5.194 -8.054,12.101 -8.054,19.445 v 37.864 c 0,12.916 9.303,24.194 22.119,26.816 33.538,6.863 57.881,36.734 57.881,71.027 0,14.622 -8.33013,39.06053 -16.52213,51.09353 -2.33,3.424 -2.4599,3.20096 0.9631,5.53196 1.292,0.879 -0.54069,7.58691 0.91231,7.58691 2.398,0 7.16777,-7.75138 8.61977,-9.88338 9.893,-14.532 21.02695,-36.68402 21.02695,-54.32902 V 84.157 c 0,-37.122 -23.524,-70.314 -58.538,-82.592 z m -11.336,337.229 c -5.962,-1.22 -10.126,-6.204 -10.126,-12.121 v -37.864 c 0,-3.339 1.3,-6.479 3.661,-8.839 l 20,-20 c 10.722,-10.723 10.722,-28.169 0,-38.892 l -20,-20 c -2.327,-2.326 -3.661,-5.548 -3.661,-8.838 V 27.571 c 0,-6.923 5.574,-12.555 12.427,-12.555 1.368,0 2.738,0.237 4.072,0.704 29.01,10.173 48.501,37.676 48.501,68.437 v 291.486 c -12.483,-18.496 -31.889,-32.146 -54.874,-36.849 z"
         id="path1024"
         sodipodi:nodetypes="csscsccccscsccssssscccsscccssccccssscsssssccsccsssscscssccscsscsccsscsccscsscsssccccssscscs" />
      <path
         d="m 207.508,183.062 c 0,-20.678 -16.822,-37.5 -37.5,-37.5 -20.678,0 -37.5,16.822 -37.5,37.5 0,20.678 16.822,37.5 37.5,37.5 20.678,0 37.5,-16.822 37.5,-37.5 z m -37.5,22.5 c -12.406,0 -22.5,-10.094 -22.5,-22.5 0,-12.406 10.094,-22.5 22.5,-22.5 12.406,0 22.5,10.094 22.5,22.5 0,12.406 -10.094,22.5 -22.5,22.5 z"
         id="path1026" />
      <path
         d="m 377.312,319.584 c -2.93,-2.928 -7.678,-2.928 -10.607,0 l -14.696,14.696 -14.696,-14.696 c -2.93,-2.928 -7.678,-2.928 -10.607,0 -2.929,2.93 -2.929,7.678 0,10.607 l 14.696,14.696 -14.696,14.696 c -2.929,2.93 -2.929,7.678 0,10.607 1.465,1.464 3.385,2.196 5.304,2.196 1.919,0 3.839,-0.732 5.304,-2.196 l 14.696,-14.696 14.696,14.696 c 1.465,1.464 3.385,2.196 5.304,2.196 1.919,0 3.839,-0.732 5.304,-2.196 2.929,-2.93 2.929,-7.678 0,-10.607 l -14.696,-14.696 14.696,-14.696 c 2.927,-2.93 2.927,-7.678 -0.002,-10.607 z"
         id="path1028" />
      <path
         d="m 240.008,190.562 h 7.5 c 4.143,0 7.5,-3.357 7.5,-7.5 0,-4.143 -3.357,-7.5 -7.5,-7.5 h -7.5 c -4.143,0 -7.5,3.357 -7.5,7.5 0,4.143 3.358,7.5 7.5,7.5 z"
         id="path1030" />
      <path
         d="m 355.587,231.255 c 0.127,0.006 0.253,0.009 0.378,0.009 3.971,0 7.285,-3.118 7.485,-7.128 0.038,-0.771 0.058,-1.547 0.058,-2.327 0,-5.123 -0.834,-10.16 -2.479,-14.971 -1.341,-3.92 -5.609,-6.007 -9.523,-4.67 -3.92,1.341 -6.01,5.604 -4.67,9.523 1.11,3.245 1.673,6.649 1.673,10.117 0,0.53 -0.014,1.058 -0.04,1.583 -0.206,4.137 2.981,7.658 7.118,7.864 z"
         id="path1032" />
      <path
         d="m 299.207,183.062 c 0,-4.143 -3.357,-7.5 -7.5,-7.5 h -14.733 c -4.143,0 -7.5,3.357 -7.5,7.5 0,4.143 3.357,7.5 7.5,7.5 h 14.733 c 4.143,0 7.5,-3.357 7.5,-7.5 z"
         id="path1034" />
      <path
         d="m 310.027,260.554 c 0,-4.143 -3.357,-7.5 -7.5,-7.5 h -14.732 c -4.143,0 -7.5,3.357 -7.5,7.5 0,4.143 3.357,7.5 7.5,7.5 h 14.732 c 4.142,0 7.5,-3.357 7.5,-7.5 z"
         id="path1036" />
      <path
         d="m 335.187,194.953 c 2.702,0 5.313,-1.466 6.652,-4.027 1.919,-3.671 0.499,-8.202 -3.172,-10.121 -5.234,-2.736 -10.872,-4.422 -16.756,-5.011 -4.115,-0.411 -7.798,2.594 -8.209,6.717 -0.412,4.121 2.595,7.797 6.717,8.209 3.969,0.396 7.771,1.533 11.299,3.378 1.11,0.579 2.298,0.855 3.469,0.855 z"
         id="path1038" />
      <path
         d="m 331.641,265.302 c 0.927,0 1.869,-0.173 2.782,-0.538 5.47,-2.187 10.417,-5.362 14.704,-9.438 3.002,-2.854 3.121,-7.602 0.268,-10.604 -2.855,-3.003 -7.602,-3.121 -10.604,-0.268 -2.9,2.758 -6.243,4.905 -9.937,6.382 -3.846,1.537 -5.718,5.902 -4.18,9.748 1.174,2.933 3.99,4.718 6.967,4.718 z"
         id="path1040" />
      <path
         d="m 209.038,444.763 c 0.667,0 1.347,-0.09 2.021,-0.278 5.509,-1.538 10.718,-3.938 15.482,-7.132 3.441,-2.307 4.36,-6.965 2.054,-10.405 -2.308,-3.441 -6.968,-4.361 -10.405,-2.054 -3.438,2.305 -7.194,4.035 -11.164,5.144 -3.99,1.114 -6.321,5.251 -5.207,9.24 0.926,3.316 3.938,5.485 7.219,5.485 z"
         id="path1042" />
      <path
         d="m 199.396,268.054 h 14.732 c 4.143,0 7.5,-3.357 7.5,-7.5 0,-4.143 -3.357,-7.5 -7.5,-7.5 h -14.732 c -4.143,0 -7.5,3.357 -7.5,7.5 0,4.143 3.357,7.5 7.5,7.5 z"
         id="path1044" />
      <path
         d="m 162.664,434.552 c 4.466,3.597 9.441,6.442 14.788,8.46 0.872,0.328 1.767,0.484 2.646,0.484 3.03,0 5.885,-1.851 7.019,-4.854 1.462,-3.875 -0.494,-8.202 -4.37,-9.665 -3.857,-1.455 -7.449,-3.51 -10.677,-6.108 -3.226,-2.599 -7.947,-2.088 -10.545,1.139 -2.597,3.224 -2.087,7.946 1.139,10.544 z"
         id="path1046" />
      <path
         d="m 237.68,415.375 c 0.844,0.306 1.706,0.451 2.555,0.451 3.067,0 5.946,-1.896 7.052,-4.946 1.945,-5.364 3.021,-10.994 3.195,-16.732 0.127,-4.141 -3.127,-7.6 -7.267,-7.726 -0.078,-0.003 -0.156,-0.004 -0.233,-0.004 -4.036,0 -7.368,3.209 -7.492,7.271 -0.127,4.147 -0.902,8.211 -2.305,12.08 -1.412,3.893 0.601,8.195 4.495,9.606 z"
         id="path1048" />
      <path
         d="m 150.008,323.673 c 4.143,0 7.5,-3.357 7.5,-7.5 V 301.44 c 0,-4.143 -3.357,-7.5 -7.5,-7.5 -4.143,0 -7.5,3.357 -7.5,7.5 v 14.733 c 0,4.142 3.358,7.5 7.5,7.5 z"
         id="path1050" />
      <path
         d="m 142.508,360.372 c 0,4.143 3.357,7.5 7.5,7.5 4.143,0 7.5,-3.357 7.5,-7.5 v -14.733 c 0,-4.143 -3.357,-7.5 -7.5,-7.5 -4.143,0 -7.5,3.357 -7.5,7.5 z"
         id="path1052" />
      <path
         d="m 164.953,279.054 c 2.593,-3.045 5.694,-5.534 9.218,-7.397 3.662,-1.937 5.061,-6.475 3.124,-10.136 -1.937,-3.661 -6.474,-5.061 -10.136,-3.124 -5.211,2.756 -9.795,6.434 -13.626,10.931 -2.686,3.154 -2.307,7.888 0.847,10.573 1.412,1.202 3.14,1.79 4.859,1.79 2.123,0 4.231,-0.895 5.714,-2.637 z"
         id="path1054" />
      <path
         d="m 142.508,392.47 c 0,4.703 0.606,9.375 1.804,13.886 0.892,3.359 3.926,5.578 7.244,5.578 0.637,0 1.284,-0.082 1.929,-0.253 4.003,-1.063 6.388,-5.169 5.325,-9.173 -0.863,-3.255 -1.302,-6.633 -1.302,-10.038 v -2.633 c 0,-4.143 -3.357,-7.5 -7.5,-7.5 -4.143,0 -7.5,3.357 -7.5,7.5 z"
         id="path1056" />
      <path
         d="m 258.328,253.054 h -14.732 c -4.143,0 -7.5,3.357 -7.5,7.5 0,4.143 3.357,7.5 7.5,7.5 h 14.732 c 4.143,0 7.5,-3.357 7.5,-7.5 0,-4.143 -3.358,-7.5 -7.5,-7.5 z"
         id="path1058" />
      <path
         d="m 254.246,368.798 c 1.897,-3.507 4.415,-6.586 7.483,-9.151 3.178,-2.656 3.601,-7.387 0.943,-10.564 -2.656,-3.177 -7.386,-3.603 -10.564,-0.943 -4.531,3.788 -8.251,8.338 -11.056,13.522 -1.971,3.644 -0.615,8.194 3.028,10.165 1.135,0.613 2.356,0.904 3.562,0.904 2.667,-10e-4 5.247,-1.425 6.604,-3.933 z"
         id="path1060" />
      <path
         d="m 284.508,352.387 h 7.5 c 4.143,0 7.5,-3.357 7.5,-7.5 0,-4.143 -3.357,-7.5 -7.5,-7.5 h -7.5 c -4.143,0 -7.5,3.357 -7.5,7.5 0,4.143 3.358,7.5 7.5,7.5 z"
         id="path1062" />
    </g>
  </g>
  <path
     style="fill:#ffffff;stroke-width:0.718331"
     d="M 79.077415,496.13994 C 43.476251,491.94751 15.461921,460.46061 15.539646,424.72623 15.59347,399.98036 27.84251,377.48199 48.54836,364.09762 c 7.445729,-4.81296 14.266931,-7.72408 23.704913,-10.11668 10.330353,-2.61882 16.33122,-7.26998 20.402452,-15.81356 l 2.224965,-4.66915 0.208682,-30.25977 0.208683,-30.25978 -1.868228,-2.22027 c -2.400539,-2.85287 -6.037066,-3.62208 -9.443722,-1.99757 -4.442914,2.11868 -4.549525,2.90886 -4.549525,33.71987 0,27.41126 -0.0095,27.58646 -1.616244,29.94733 -2.561058,3.76297 -4.875629,5.03764 -13.20723,7.27343 -17.803422,4.77756 -34.569471,15.94442 -46.768871,31.14996 l -2.305268,2.87332 0.182236,-150.84945 0.182236,-150.849445 1.631059,-5.746646 c 0.897083,-3.160655 3.36932,-9.302382 5.493859,-13.648283 7.169592,-14.665921 18.028633,-25.619016 32.625072,-32.90765 6.616164,-3.303737 7.977233,-3.727216 11.979364,-3.727216 4.879341,0 7.090248,1.097432 9.963575,4.945635 1.477446,1.978721 1.48192,2.257167 1.840212,114.529365 0.282608,88.55634 0.551743,112.88247 1.262636,114.12522 2.04422,3.57361 6.513667,4.81626 10.609891,2.94989 4.107472,-1.87148 3.930748,1.77006 3.930748,-80.99584 V 95.371603 h 8.214045 c 4.51772,0 9.1104,0.340797 10.20597,0.757329 1.09557,0.416538 7.75116,6.417348 14.79021,13.335138 10.73657,10.5516 13.57653,12.94646 17.62934,14.86635 4.43552,2.10119 5.4192,2.28779 12.01437,2.27904 10.95518,-0.0145 12.78688,-1.0806 28.37855,-16.51652 7.66407,-7.58751 13.68764,-12.958108 15.27962,-13.623283 2.31759,-0.968345 15.14645,-1.098054 108.60487,-1.098054 h 105.97685 l 0.006,48.307737 c 0.004,29.7553 0.29022,50.06282 0.74697,52.87769 1.26373,7.78813 3.36679,10.85136 16.83585,24.52244 6.81177,6.91394 12.78982,13.34655 13.28456,14.29469 1.15178,2.20732 1.1601,7.96891 0.0147,10.20049 -0.48664,0.94814 -6.48591,7.3829 -13.33172,14.29947 -17.5755,17.75716 -17.52091,17.60734 -17.53593,48.12337 -0.01,20.15341 0.5758,25.68471 3.28619,31.0334 4.12575,8.14178 9.97034,12.30458 21.556,15.35326 7.71328,2.02968 18.25401,6.66641 23.75328,10.44874 5.94593,4.08954 15.25743,13.60995 19.39874,19.83395 9.31412,13.99825 13.75845,31.52791 11.74091,46.30935 -1.64525,12.05387 -6.34606,26.50899 -12.42543,38.20851 -2.55601,4.91895 -3.51123,6.03422 -7.22299,8.43325 -9.52041,6.15334 -28.13388,14.15179 -40.16641,17.26004 -5.1899,1.34065 -8.50154,1.57237 -26.44954,1.8506 -14.43497,0.22377 -21.45031,0.0667 -23.6659,-0.52991 -2.657,-0.71546 -5.18313,-2.8403 -16.16597,-13.59792 -16.37339,-16.03764 -17.91592,-16.92449 -29.44264,-16.92757 -11.79017,-0.003 -13.24518,0.82928 -29.41638,16.82947 -10.41597,10.30582 -13.53007,12.98333 -15.83845,13.61791 -3.43957,0.94554 -208.19692,0.96388 -216.217542,0.0194 z M 219.51107,441.5412 c 3.35819,-1.59589 6.99072,-3.74519 8.07227,-4.77622 3.63491,-3.46511 3.27369,-9.48055 -0.72667,-12.10169 -2.80555,-1.83826 -6.50046,-1.50209 -10.95416,0.99665 -2.16365,1.21392 -5.7898,2.89642 -8.05811,3.7389 -2.2683,0.84247 -4.61186,2.22802 -5.2079,3.07898 -1.47703,2.10877 -1.3682,7.64772 0.18935,9.63608 3.03246,3.87124 7.66879,3.71211 16.68522,-0.5727 z m -33.95764,-0.31277 c 2.3174,-2.3174 2.50266,-2.80764 2.17144,-5.74625 -0.46199,-4.09874 -1.22283,-4.96241 -6.96231,-7.90321 -2.59078,-1.32746 -6.16512,-3.39994 -7.94299,-4.60549 -4.61016,-3.1261 -8.62613,-2.80264 -11.6569,0.93891 -1.23224,1.52123 -1.70522,6.39426 -0.83958,8.65009 1.20242,3.13345 15.47463,11.13559 19.9312,11.17504 2.22449,0.0197 3.26127,-0.47122 5.29914,-2.50909 z m 59.63376,-26.75233 c 3.31991,-2.1495 6.79352,-18.97774 4.86836,-23.58529 -1.29484,-3.09899 -3.70888,-4.59527 -7.41383,-4.59527 -4.78653,0 -6.97175,2.55207 -7.65597,8.94122 -0.29111,2.71834 -0.97927,6.42491 -1.52924,8.23682 -1.35286,4.45708 -1.2662,6.46603 0.3965,9.19298 2.21927,3.63977 7.26355,4.4451 11.33418,1.80954 z m -89.72607,-3.33687 c 3.1343,-1.62081 4.00322,-3.98208 3.38192,-9.19022 -0.29653,-2.48564 -0.75555,-7.05775 -1.02004,-10.16024 -0.44137,-5.17723 -0.67235,-5.81195 -2.81013,-7.72206 -4.18168,-3.73633 -10.61406,-1.99359 -12.37887,3.35384 -0.93744,2.84048 -0.54605,10.55073 0.87103,17.15895 1.40342,6.54448 6.53796,9.36155 11.95609,6.55973 z m 95.27674,-38.79624 c 1.49795,-0.62589 3.19242,-2.22826 4.36781,-4.1304 1.05621,-1.7093 3.53606,-4.7705 5.51077,-6.80268 2.98463,-3.07148 3.65294,-4.24987 3.96116,-6.98433 0.34146,-3.02938 0.17046,-3.48976 -2.16279,-5.823 -2.12193,-2.12194 -3.04078,-2.53356 -5.65554,-2.53356 -2.95436,0 -3.41138,0.30005 -8.51222,5.58877 -8.70517,9.0258 -10.56893,14.997 -6.002,19.22949 1.56508,1.45046 2.51792,1.8641 5.48357,2.38048 0.309,0.0538 1.66316,-0.36235 3.00924,-0.92477 z m 84.99887,-0.72238 c 1.06686,-0.56465 5.16666,-4.28252 9.11068,-8.26192 l 7.17095,-7.23529 7.94661,7.92408 c 6.49262,6.4742 8.43135,8.00272 10.59587,8.35398 5.35864,0.86959 9.13797,-2.47976 9.13797,-8.09833 0,-2.44046 -0.70425,-3.38028 -8.2309,-10.98404 l -8.2309,-8.31521 8.2309,-8.33355 c 8.16308,-8.26489 8.2309,-8.36157 8.2309,-11.73431 0,-2.80096 -0.37033,-3.7711 -2.09974,-5.50049 -1.72939,-1.72941 -2.69953,-2.09974 -5.50049,-2.09974 -3.37274,0 -3.46942,0.0678 -11.73431,8.2309 l -8.33355,8.2309 -8.31521,-8.2309 c -8.25344,-8.16975 -8.34053,-8.2309 -11.72196,-8.2309 -2.80756,0 -3.77603,0.3693 -5.50646,2.09974 -1.72941,1.72939 -2.09974,2.69953 -2.09974,5.50049 0,3.37274 0.0678,3.46942 8.2309,11.73431 l 8.2309,8.33355 -8.2309,8.31521 c -8.01501,8.09712 -8.23049,8.39842 -8.21493,11.48712 0.0313,6.22468 5.84413,9.71971 11.33341,6.8144 z m -179.97751,-6.12364 c 1.96333,-2.19717 1.97541,-2.2746 1.97541,-12.6704 v -10.45972 l -2.09974,-2.09973 c -3.14124,-3.14124 -7.91392,-3.08945 -11.18938,0.12143 -2.12795,2.08599 -2.15805,2.22262 -2.39853,10.88668 -0.14561,5.24602 0.0868,9.8766 0.57788,11.5158 1.72716,5.76478 9.0525,7.27394 13.13436,2.70594 z M 297.1238,350.55858 c 4.57326,-4.08655 3.05367,-11.46665 -2.68939,-13.06145 -3.82699,-1.06272 -9.87843,-0.9508 -12.71693,0.23521 -3.23935,1.35348 -4.73996,3.71974 -4.73996,7.47427 0,2.49939 0.42192,3.54983 2.09974,5.22764 2.02794,2.02795 2.33455,2.09974 8.9678,2.09974 6.47762,0 6.99374,-0.11229 9.07874,-1.97541 z M 154.59765,322.52771 c 2.73294,-2.21376 3.13698,-4.04216 3.13698,-14.19567 v -9.81652 l -2.44233,-2.44232 c -3.95128,-3.95128 -9.62038,-3.07175 -12.10276,1.87765 -0.98304,1.96001 -1.2562,4.34601 -1.25708,10.98022 -0.001,9.06038 0.69367,11.61046 3.74627,13.7486 2.12948,1.49154 6.99227,1.40869 8.91892,-0.15196 z m 7.87991,-41.3135 c 0.83075,-0.47985 3.09349,-2.24754 5.02832,-3.9282 1.93482,-1.68066 4.97248,-4.11901 6.75035,-5.41857 4.21862,-3.08364 5.28276,-6.56327 3.19794,-10.45696 -1.01936,-1.90381 -2.21155,-2.89848 -4.3673,-3.64377 -2.82982,-0.97833 -3.15358,-0.93295 -7.09209,0.99399 -5.69311,2.78537 -13.82437,10.53982 -14.42844,13.7598 -1.18665,6.32541 5.62093,11.74948 10.91122,8.69371 z m 54.4036,-13.39923 c 3.2168,-1.22303 4.7849,-3.60156 4.7849,-7.25787 0,-2.54758 -0.41601,-3.80019 -1.73461,-5.22298 -2.3612,-2.54778 -3.84061,-2.80218 -14.69596,-2.52713 -8.97063,0.22729 -9.48461,0.32213 -11.23317,2.07263 -3.61617,3.6202 -3.00571,9.57701 1.24718,12.16999 2.01057,1.22585 3.62461,1.4347 11.10527,1.43699 4.81403,0.001 9.55091,-0.30075 10.52639,-0.67163 z m 45.56807,-0.76536 c 4.25289,-2.59298 4.86335,-8.54979 1.24718,-12.16999 -1.74856,-1.7505 -2.26254,-1.84534 -11.23317,-2.07263 -10.85535,-0.27505 -12.33476,-0.0207 -14.69596,2.52713 -1.32242,1.4269 -1.72918,2.65755 -1.71176,5.17884 0.0448,6.48365 2.84809,7.96686 15.0621,7.96922 7.71182,10e-4 9.31116,-0.20069 11.33161,-1.43257 z m 42.78661,0.76536 c 3.19791,-1.21584 4.78489,-3.60481 4.78489,-7.20294 0,-6.82514 -2.67847,-8.12871 -16.03402,-7.80344 -9.11249,0.22193 -9.82865,0.34388 -11.55505,1.96772 -3.68872,3.46954 -3.0255,9.71312 1.31276,12.35859 1.84401,1.12447 3.66915,1.34947 10.96502,1.3517 4.81404,0.001 9.55091,-0.30075 10.5264,-0.67163 z m 33.77225,-4.8869 c 2.82334,-1.47835 6.83041,-4.32507 8.90459,-6.32605 3.34953,-3.23133 3.77123,-3.96882 3.77123,-6.59528 0,-3.80852 -2.64476,-7.13462 -6.20408,-7.80235 -2.96036,-0.55537 -5.03689,0.26119 -9.15031,3.59816 -1.62967,1.32206 -4.67042,3.26073 -6.75721,4.30816 -6.43158,3.22823 -7.80345,9.58259 -2.95043,13.66613 3.10027,2.6087 6.18709,2.39717 12.38621,-0.84877 z m 20.19366,-32.09455 c 3.87712,-1.61997 4.97317,-4.54683 4.44914,-11.881 -0.55283,-7.73745 -2.20736,-13.35447 -4.58185,-15.55507 -3.90675,-3.62065 -11.61912,-1.21803 -12.75971,3.97502 -0.24854,1.13158 0.0509,3.99793 0.66552,6.36966 0.61458,2.37172 1.11741,5.97867 1.11741,8.01544 0,4.62356 1.57071,7.75575 4.53605,9.04546 2.91931,1.2697 3.60004,1.27285 6.57344,0.0305 z M 176.35603,220.32 c 18.89778,-3.0662 33.1701,-21.46514 31.32687,-40.38453 -1.5083,-15.48139 -11.74031,-28.34397 -26.19155,-32.92521 -6.48109,-2.05458 -16.55528,-2.04161 -23.14609,0.0298 -8.28807,2.60486 -15.7738,8.52629 -20.80715,16.45906 -7.15767,11.28079 -6.86927,28.42306 0.67352,40.03305 8.37494,12.89087 22.86303,19.26724 38.1444,16.78781 z m 164.26559,-27.54275 c 5.58916,-5.58916 1.87074,-11.88173 -9.12265,-15.43798 -11.34625,-3.6704 -17.88658,-1.42248 -17.88658,6.14762 0,4.55473 2.09382,6.56582 8.15977,7.83735 2.70198,0.56638 6.25442,1.6473 7.89434,2.40203 4.81668,2.21678 8.07125,1.93484 10.95512,-0.94902 z m -87.77571,-3.95796 c 3.68964,-3.46874 3.02683,-9.71285 -1.31188,-12.35859 -2.44963,-1.49377 -11.08798,-1.90436 -14.30812,-0.68006 -6.11,2.32301 -6.61543,11.00739 -0.83407,14.33105 0.87416,0.50255 4.01606,0.75013 8.02468,0.63233 5.82731,-0.17125 6.80063,-0.39349 8.42939,-1.92473 z m 42.31669,1.28789 c 4.20006,-2.14793 5.61859,-8.77191 2.57753,-12.0361 -2.34982,-2.52224 -4.41329,-2.96496 -13.80565,-2.96208 -9.76718,0.003 -12.74624,1.01857 -14.21624,4.84637 -1.4927,3.88698 0.43461,8.80488 4.02679,10.27513 2.20776,0.90363 19.60537,0.80345 21.41757,-0.12332 z"
     id="path1636"
     transform="scale(1.0000312)" />
  <path
     style="fill:#ffffff;stroke-width:0.718331"
     d="m 164.19633,204.3487 c -9.81426,-2.77789 -17.51493,-13.89695 -16.19601,-23.38558 0.63142,-4.54263 4.24774,-11.80628 7.06374,-14.18808 11.65542,-9.85822 28.3764,-6.38487 35.01043,7.27251 2.34682,4.83137 2.45333,12.8378 0.23505,17.66829 -4.58683,9.98818 -15.9815,15.50061 -26.11321,12.63286 z"
     id="path1638"
     transform="scale(1.0000312)" />
  <path
     style="fill:#ffffff;stroke-width:0.718331"
     d="m 492.11757,368.54454 c -10.43804,-13.26249 -26.70634,-23.78061 -44.20818,-28.58236 -8.87739,-2.43557 -11.27298,-3.69467 -13.53833,-7.11558 l -1.87494,-2.83135 -0.21976,-20.65996 c -0.14879,-13.9882 0.0473,-21.65174 0.60721,-23.7311 0.6917,-2.56877 2.92872,-5.20142 13.67584,-16.09444 15.91064,-16.12667 16.82493,-17.70557 16.82493,-29.05535 0,-11.34861 -0.91537,-12.92977 -16.81505,-29.04532 -10.2332,-10.37215 -12.99988,-13.5928 -13.63166,-15.86849 -1.13924,-4.10355 -1.12452,-167.965369 0.0154,-171.376118 0.95266,-2.850444 3.75693,-6.095341 6.51115,-7.534211 8.49928,-4.440232 30.7999,8.448961 42.93116,24.813119 7.21813,9.736731 12.15211,22.225641 13.63511,34.513294 0.60084,4.978363 0.76593,46.208396 0.61036,152.434116 l -0.21325,145.60998 z"
     id="path1640"
     transform="scale(1.0000312)" />
</svg>
