<?xml version="1.0" encoding="UTF-8" standalone="no"?>
<svg
   xmlns:dc="http://purl.org/dc/elements/1.1/"
   xmlns:cc="http://creativecommons.org/ns#"
   xmlns:rdf="http://www.w3.org/1999/02/22-rdf-syntax-ns#"
   xmlns:svg="http://www.w3.org/2000/svg"
   xmlns="http://www.w3.org/2000/svg"
   xmlns:sodipodi="http://sodipodi.sourceforge.net/DTD/sodipodi-0.dtd"
   xmlns:inkscape="http://www.inkscape.org/namespaces/inkscape"
   version="1.1"
   id="Layer_1"
   x="0px"
   y="0px"
   viewBox="0 0 512 512"
   style="enable-background:new 0 0 512 512;"
   xml:space="preserve"
   sodipodi:docname="maps-and-flags.svg"
   inkscape:version="1.0.2-2 (e86c870879, 2021-01-15)"><metadata
   id="metadata926"><rdf:RDF><cc:Work
       rdf:about=""><dc:format>image/svg+xml</dc:format><dc:type
         rdf:resource="http://purl.org/dc/dcmitype/StillImage" /><dc:title></dc:title></cc:Work></rdf:RDF></metadata><defs
   id="defs924" /><sodipodi:namedview
   pagecolor="#ffffff"
   bordercolor="#666666"
   borderopacity="1"
   objecttolerance="10"
   gridtolerance="10"
   guidetolerance="10"
   inkscape:pageopacity="0"
   inkscape:pageshadow="2"
   inkscape:window-width="3840"
   inkscape:window-height="2050"
   id="namedview922"
   showgrid="false"
   inkscape:pagecheckerboard="true"
   showborder="false"
   inkscape:zoom="1.96875"
   inkscape:cx="256"
   inkscape:cy="252.44444"
   inkscape:window-x="5108"
   inkscape:window-y="-12"
   inkscape:window-maximized="1"
   inkscape:current-layer="Layer_1" />
<g
   id="g883">
	<g
   id="g881">
		<path
   d="M256,0C153.755,0,70.573,83.182,70.573,185.426c0,126.888,165.939,313.167,173.004,321.035    c6.636,7.391,18.222,7.378,24.846,0c7.065-7.868,173.004-194.147,173.004-321.035C441.425,83.182,358.244,0,256,0z M256,469.729    c-55.847-66.338-152.035-197.217-152.035-284.301c0-83.834,68.202-152.036,152.035-152.036s152.035,68.202,152.035,152.035    C408.034,272.515,311.861,403.37,256,469.729z"
   id="path879" />
	</g>
</g>
<g
   id="g889">
	<g
   id="g887">
		<path
   d="M256,92.134c-51.442,0-93.292,41.851-93.292,93.293s41.851,93.293,93.292,93.293s93.291-41.851,93.291-93.293    S307.441,92.134,256,92.134z M256,245.328c-33.03,0-59.9-26.871-59.9-59.901s26.871-59.901,59.9-59.901s59.9,26.871,59.9,59.901    S289.029,245.328,256,245.328z"
   id="path885" />
	</g>
</g>
<g
   id="g891">
</g>
<g
   id="g893">
</g>
<g
   id="g895">
</g>
<g
   id="g897">
</g>
<g
   id="g899">
</g>
<g
   id="g901">
</g>
<g
   id="g903">
</g>
<g
   id="g905">
</g>
<g
   id="g907">
</g>
<g
   id="g909">
</g>
<g
   id="g911">
</g>
<g
   id="g913">
</g>
<g
   id="g915">
</g>
<g
   id="g917">
</g>
<g
   id="g919">
</g>
<path
   style="fill:#ffffff;stroke-width:0.507937"
   d="M 248.02098,459.55556 C 182.02425,379.05807 134.19003,301.0092 114.86166,242.28571 104.34863,210.34503 101.93418,186.72617 106.44994,160 116.32792,101.53793 160.32523,53.590246 217.89111,38.552885 c 36.96806,-9.656797 77.2859,-4.689885 110.48984,13.611678 41.1964,22.706895 69.4503,62.243777 77.20645,108.038257 2.83993,16.76777 2.82301,32.11367 -0.0543,49.22209 -10.4326,62.03284 -61.71395,152.65622 -141.54224,250.13065 -4.17543,5.09841 -7.7668,9.26984 -7.98082,9.26984 -0.21402,0 -3.80911,-4.17143 -7.9891,-9.26984 z m 24.23299,-181.97078 c 49.22106,-8.85135 82.86029,-54.72582 76.42734,-104.22543 -7.11287,-54.73125 -59.31896,-91.110244 -113.46677,-79.067515 -42.33236,9.414915 -72.66652,47.446105 -72.66652,91.104995 0,46.77391 34.21622,86.0674 80.74544,92.72707 6.48796,0.92862 22.45113,0.63145 28.96051,-0.53912 z"
   id="path928" /><path
   style="fill:#ffffff;stroke-width:0.507937"
   d="m 244.06349,243.82124 c -14.87685,-3.2172 -28.17766,-12.0142 -36.9871,-24.46285 -3.3551,-4.74109 -7.16546,-13.00136 -8.75406,-18.97744 -1.78269,-6.7062 -2.26669,-18.00767 -1.06624,-24.89677 4.30758,-24.72017 23.94731,-44.45889 48.52473,-48.76932 5.4663,-0.95869 14.98243,-0.95568 20.49991,0.006 18.01247,3.14111 34.22132,15.13789 42.66913,31.58102 2.80865,5.46686 5.16195,12.68958 5.99406,18.39694 0.96694,6.63209 0.38616,17.43229 -1.27347,23.68164 -4.47602,16.85445 -16.23444,31.03818 -32.07652,38.69266 -8.59971,4.15515 -13.8043,5.34476 -24.32409,5.55975 -7.12606,0.14564 -9.43373,0.004 -13.20635,-0.81212 z"
   id="path930" /></svg>
