<?xml version="1.0" encoding="UTF-8" standalone="no"?>
<svg
   xmlns:dc="http://purl.org/dc/elements/1.1/"
   xmlns:cc="http://creativecommons.org/ns#"
   xmlns:rdf="http://www.w3.org/1999/02/22-rdf-syntax-ns#"
   xmlns:svg="http://www.w3.org/2000/svg"
   xmlns="http://www.w3.org/2000/svg"
   xmlns:sodipodi="http://sodipodi.sourceforge.net/DTD/sodipodi-0.dtd"
   xmlns:inkscape="http://www.inkscape.org/namespaces/inkscape"
   id="Capa_1"
   enable-background="new 0 0 509.795 509.795"
   height="512"
   viewBox="0 0 509.795 509.795"
   width="512"
   version="1.1"
   sodipodi:docname="medal.svg"
   inkscape:version="1.0.2-2 (e86c870879, 2021-01-15)">
  <metadata
     id="metadata857">
    <rdf:RDF>
      <cc:Work
         rdf:about="">
        <dc:format>image/svg+xml</dc:format>
        <dc:type
           rdf:resource="http://purl.org/dc/dcmitype/StillImage" />
      </cc:Work>
    </rdf:RDF>
  </metadata>
  <defs
     id="defs855" />
  <sodipodi:namedview
     pagecolor="#ffffff"
     bordercolor="#666666"
     borderopacity="1"
     objecttolerance="10"
     gridtolerance="10"
     guidetolerance="10"
     inkscape:pageopacity="0"
     inkscape:pageshadow="2"
     inkscape:window-width="3840"
     inkscape:window-height="2050"
     id="namedview853"
     showgrid="false"
     inkscape:zoom="1.96875"
     inkscape:cx="256"
     inkscape:cy="252.44444"
     inkscape:window-x="5108"
     inkscape:window-y="-12"
     inkscape:window-maximized="1"
     inkscape:current-layer="Capa_1" />
  <g
     id="g850">
    <path
       d="m420.831 165.934c0-91.496-74.437-165.934-165.933-165.934s-165.934 74.438-165.934 165.934c0 51.416 23.508 97.445 60.339 127.905l-46.383 189.191 64.555-23.211 49.495 49.977 37.947-154.783 37.947 154.783 49.495-49.977 64.555 23.211-46.39-189.217c36.813-30.461 60.307-76.478 60.307-127.879zm-301.867 0c0-74.955 60.98-135.934 135.934-135.934s135.934 60.979 135.934 135.934-60.979 135.934-135.934 135.934-135.934-60.98-135.934-135.934zm81.625 284.687-25.261-25.507-29.962 10.773 30.429-124.118c16.617 9.049 34.944 15.337 54.361 18.252zm163.879-14.733-29.962-10.773-25.261 25.507-29.568-120.605c19.416-2.92 37.742-9.212 54.357-18.266z"
       id="path846" />
    <path
       d="m188.313 189.179-6.196 36.124c-1.802 10.507 2.436 20.926 11.06 27.192 4.874 3.541 10.575 5.34 16.315 5.34 4.418 0 8.86-1.066 12.963-3.224l32.442-17.055 32.442 17.055c9.435 4.96 20.655 4.149 29.279-2.116 8.625-6.266 12.862-16.686 11.06-27.192l-6.196-36.124 26.246-25.583c7.633-7.44 10.329-18.361 7.035-28.5s-11.894-17.389-22.444-18.922l-36.271-5.27-16.221-32.867c-4.718-9.56-14.271-15.498-24.931-15.498s-20.213 5.938-24.931 15.498l-16.221 32.867-36.271 5.27c-10.549 1.533-19.149 8.784-22.443 18.922s-.598 21.059 7.035 28.5zm45.355-50.855 21.23-43.016 21.23 43.016 47.472 6.898-34.351 33.484 8.109 47.279-42.459-22.322-42.459 22.322 8.109-47.279-34.351-33.484z"
       id="path848" />
  </g>
  <path
     style="fill:#ffffff;stroke-width:0.507937"
     d="m 214.12727,224.18733 c 0.17451,-1.08081 1.98189,-11.56511 4.01639,-23.29844 l 3.69909,-21.33333 -6.66741,-6.60382 c -3.66707,-3.6321 -11.35312,-11.18764 -17.0801,-16.7901 l -10.4127,-10.18628 22.34921,-3.19983 c 12.29206,-1.7599 22.93782,-3.31065 23.65725,-3.44611 1.16016,-0.21844 2.47579,-2.62442 11.63625,-21.27992 5.68052,-11.56849 10.48443,-21.033627 10.67537,-21.033627 0.19095,0 4.99732,9.465677 10.68083,21.034847 9.15572,18.63709 10.48205,21.06213 11.63562,21.27425 0.71609,0.13168 11.35912,1.68266 23.65118,3.44663 l 22.34921,3.20722 -10.92063,10.69015 c -6.00635,5.87959 -13.69358,13.43436 -17.08272,16.78838 l -6.16208,6.09821 4.00343,23.06869 c 2.2019,12.68778 3.90574,23.1664 3.78632,23.28582 -0.11942,0.11943 -9.60657,-4.72103 -21.08255,-10.75656 l -20.86543,-10.97369 -20.20093,10.64441 c -11.11051,5.85442 -20.60187,10.79827 -21.09192,10.98631 -0.78441,0.30101 -0.85303,0.10685 -0.57368,-1.62321 z"
     id="path859"
     transform="scale(0.99569336)" />
  <path
     style="fill:#ffffff;stroke-width:0.507937"
     d="m 243.80952,302.43066 c -0.69841,-0.11872 -4.01269,-0.57877 -7.36508,-1.02235 -11.45255,-1.51535 -24.77197,-5.41479 -36.57142,-10.70677 -38.1829,-17.1248 -67.56051,-53.01535 -76.63287,-93.62217 -2.67641,-11.97934 -3.10242,-16.12188 -3.10797,-30.22223 -0.005,-13.37753 0.30841,-17.02367 2.33784,-27.1746 4.21434,-21.07965 13.87328,-41.483175 27.82446,-58.776336 4.86853,-6.034781 16.00807,-17.007302 21.896,-21.567717 19.14441,-14.828043 41.95231,-24.37161 66.79365,-27.948644 6.06064,-0.872704 27.9711,-0.872704 34.03174,0 15.45603,2.225594 29.44437,6.489422 42.66667,13.005361 14.77247,7.279862 26.29093,15.657463 37.87237,27.545315 10.23974,10.510661 17.42724,20.578968 24.06487,33.710271 6.95524,13.75962 10.80223,26.05659 13.58621,43.42858 1.02751,6.41159 0.87147,29.59366 -0.24617,36.57142 -4.88191,30.47951 -17.64043,55.98343 -38.47282,76.90606 -20.91373,21.00434 -47.00397,34.25468 -76.67748,38.94188 -5.0627,0.7997 -28.72394,1.48878 -32,0.93193 z m -26.23204,-44.18033 c 1.95785,-0.50017 9.59304,-4.19137 20.48781,-9.90477 9.55178,-5.0091 17.63543,-9.10746 17.96368,-9.10746 0.32824,0 8.01786,3.90969 17.08804,8.6882 9.07019,4.77851 17.78653,9.15773 19.36966,9.73158 3.56679,1.29292 10.95765,1.73529 14.99355,0.89744 4.14376,-0.86024 10.36033,-4.12965 13.40752,-7.05127 5.4656,-5.24036 8.25973,-11.36972 8.60171,-18.86913 0.19363,-4.24627 -0.17258,-7.08093 -3.05136,-23.61905 l -3.27141,-18.79365 14.35233,-14.0775 c 7.89378,-7.74264 15.08881,-15.22521 15.98895,-16.62795 2.81606,-4.38845 4.21163,-9.23667 4.24722,-14.75487 0.0811,-12.57458 -7.29241,-23.05749 -19.1646,-27.24625 -1.48115,-0.52258 -38.85536,-6.27755 -40.76797,-6.27755 -0.12781,0 -4.1274,-7.89329 -8.88798,-17.540632 C 279.96039,75.511091 278.05267,72.361182 273.93662,68.933636 269.46596,65.210787 261.89849,62.49383 256,62.49383 c -6.3373,0 -14.63948,3.209452 -18.87475,7.296589 -3.94871,3.810591 -4.7776,5.219628 -13.91566,23.655112 -4.85066,9.785909 -8.9372,17.792569 -9.08121,17.792569 -1.83985,0 -39.37426,5.80311 -40.80936,6.30945 -5.91353,2.08642 -11.54121,6.42347 -14.66501,11.30181 -4.49912,7.02611 -5.75845,16.93352 -3.10497,24.42746 0.71852,2.02923 2.04472,4.8401 2.94712,6.24637 0.90241,1.40627 8.10032,8.88885 15.99537,16.62795 l 14.35463,14.07108 -3.22443,18.53968 c -1.94926,11.20784 -3.23393,20.05425 -3.24847,22.36948 -0.0796,12.6696 8.47005,23.78151 20.86208,27.11436 3.65726,0.98363 10.50119,0.98581 14.34214,0.005 z"
     id="path861"
     transform="scale(0.99569336)" />
  <path
     style="fill:#ffffff;stroke-width:0.507937"
     d="m 188.4548,439.11111 c -6.82431,-6.84444 -12.42461,-12.44444 -12.44512,-12.44444 -0.0205,0 -6.65413,2.38647 -14.74138,5.30327 -8.08725,2.9168 -14.73393,5.25965 -14.7704,5.20634 -0.16231,-0.23725 30.04535,-122.71713 30.33803,-123.00844 0.18039,-0.17956 2.41764,0.72301 4.97165,2.00572 6.191,3.1093 15.56307,6.93267 22.45619,9.16106 6.69541,2.16448 18.42083,5.0946 22.35302,5.58589 1.54793,0.19341 3.10258,0.52973 3.45475,0.74738 0.48881,0.3021 -2.82469,14.53283 -14.00348,60.1417 -8.05409,32.86028 -14.77017,59.74597 -14.92461,59.74597 -0.15446,0 -5.86435,-5.6 -12.68865,-12.44445 z"
     id="path863"
     transform="scale(0.99569336)" />
  <path
     style="fill:#ffffff;stroke-width:0.507937"
     d="m 295.97097,391.81607 c -8.04772,-32.85526 -14.51632,-59.85273 -14.37468,-59.99437 0.14164,-0.14164 2.51704,-0.66337 5.27867,-1.15939 13.92328,-2.5008 30.4637,-8.03321 43.31746,-14.48875 2.55401,-1.28271 4.79125,-2.18841 4.97165,-2.01267 0.29475,0.28713 30.54542,122.80517 30.3695,122.99932 -0.0403,0.0444 -6.70067,-2.29787 -14.80084,-5.20519 l -14.72758,-5.28604 -12.45075,12.44329 c -6.84792,6.84381 -12.56337,12.44269 -12.70099,12.44196 -0.13763,-7.3e-4 -6.83473,-26.8829 -14.88244,-59.73816 z"
     id="path865"
     transform="scale(0.99569336)" />
</svg>
