<?xml version="1.0" encoding="UTF-8" standalone="no"?>
<svg
   xmlns:dc="http://purl.org/dc/elements/1.1/"
   xmlns:cc="http://creativecommons.org/ns#"
   xmlns:rdf="http://www.w3.org/1999/02/22-rdf-syntax-ns#"
   xmlns:svg="http://www.w3.org/2000/svg"
   xmlns="http://www.w3.org/2000/svg"
   xmlns:sodipodi="http://sodipodi.sourceforge.net/DTD/sodipodi-0.dtd"
   xmlns:inkscape="http://www.inkscape.org/namespaces/inkscape"
   id="Layer_1"
   enable-background="new 0 0 60 60"
   height="512"
   viewBox="0 0 60 60"
   width="512"
   version="1.1"
   sodipodi:docname="modules.svg"
   inkscape:version="1.0.2-2 (e86c870879, 2021-01-15)">
  <metadata
     id="metadata122">
    <rdf:RDF>
      <cc:Work
         rdf:about="">
        <dc:format>image/svg+xml</dc:format>
        <dc:type
           rdf:resource="http://purl.org/dc/dcmitype/StillImage" />
        <dc:title></dc:title>
      </cc:Work>
    </rdf:RDF>
  </metadata>
  <defs
     id="defs120" />
  <sodipodi:namedview
     pagecolor="#ffffff"
     bordercolor="#666666"
     borderopacity="1"
     objecttolerance="10"
     gridtolerance="10"
     guidetolerance="10"
     inkscape:pageopacity="0"
     inkscape:pageshadow="2"
     inkscape:window-width="3840"
     inkscape:window-height="2050"
     id="namedview118"
     showgrid="false"
     inkscape:pagecheckerboard="true"
     showborder="false"
     inkscape:zoom="1.96875"
     inkscape:cx="256"
     inkscape:cy="252.44444"
     inkscape:window-x="5108"
     inkscape:window-y="-12"
     inkscape:window-maximized="1"
     inkscape:current-layer="Layer_1" />
  <path
     d="m5.03 35c-2.757 0-5-2.243-5-5s2.243-5 5-5 5 2.243 5 5-2.243 5-5 5zm0-8c-1.654 0-3 1.346-3 3s1.346 3 3 3 3-1.346 3-3-1.346-3-3-3z"
     id="path67" />
  <path
     d="m55.03 35c-2.757 0-5-2.243-5-5s2.243-5 5-5 5 2.243 5 5-2.243 5-5 5zm0-8c-1.654 0-3 1.346-3 3s1.346 3 3 3 3-1.346 3-3-1.346-3-3-3z"
     id="path69" />
  <path
     d="m30.03 60c-2.757 0-5-2.243-5-5s2.243-5 5-5 5 2.243 5 5-2.243 5-5 5zm0-8c-1.654 0-3 1.346-3 3s1.346 3 3 3 3-1.346 3-3-1.346-3-3-3z"
     id="path71" />
  <path
     d="m30.03 10c-2.757 0-5-2.243-5-5s2.243-5 5-5 5 2.243 5 5-2.243 5-5 5zm0-8c-1.654 0-3 1.346-3 3s1.346 3 3 3 3-1.346 3-3-1.346-3-3-3z"
     id="path73" />
  <path
     d="m54.711 27.032c-.482 0-.908-.351-.986-.843-.304-1.9-.836-3.76-1.583-5.526-.215-.509.022-1.096.531-1.311.51-.216 1.096.022 1.311.531.81 1.915 1.388 3.931 1.716 5.991.087.545-.284 1.058-.83 1.145-.053.009-.106.013-.159.013z"
     id="path75" />
  <path
     d="m49.825 15.733c-.299 0-.595-.134-.792-.389-1.258-1.629-2.723-3.094-4.355-4.354-.437-.337-.518-.965-.18-1.402s.966-.517 1.403-.18c1.767 1.364 3.353 2.95 4.715 4.714.337.438.257 1.065-.18 1.402-.183.141-.397.209-.611.209z"
     id="path77" />
  <path
     d="m39.756 7.967c-.13 0-.262-.025-.389-.079-1.766-.747-3.626-1.28-5.527-1.584-.545-.087-.917-.6-.83-1.146.087-.545.601-.918 1.145-.829 2.061.329 4.076.907 5.991 1.717.509.215.747.802.531 1.311-.161.381-.531.61-.921.61z"
     id="path79" />
  <path
     d="m33.997 55.684c-.483 0-.908-.351-.986-.842-.087-.546.284-1.059.83-1.146 1.901-.304 3.761-.837 5.527-1.584.51-.214 1.096.021 1.311.531.215.509-.022 1.096-.531 1.311-1.915.81-3.93 1.388-5.991 1.717-.055.009-.108.013-.16.013z"
     id="path81" />
  <path
     d="m45.297 50.795c-.299 0-.595-.134-.792-.389-.337-.438-.257-1.065.18-1.402 1.63-1.259 3.095-2.725 4.354-4.356.336-.438.964-.517 1.402-.181.438.338.518.966.181 1.403-1.363 1.767-2.949 3.354-4.714 4.716-.182.141-.397.209-.611.209z"
     id="path83" />
  <path
     d="m53.062 40.727c-.13 0-.262-.025-.389-.079-.509-.215-.747-.802-.531-1.311.747-1.767 1.28-3.626 1.583-5.526.086-.546.601-.919 1.145-.83.545.087.917.6.83 1.145-.329 2.061-.906 4.076-1.716 5.991-.161.381-.532.61-.922.61z"
     id="path85" />
  <path
     d="m6.997 40.727c-.39 0-.76-.229-.921-.61-.81-1.915-1.388-3.931-1.716-5.991-.087-.545.284-1.058.83-1.145.54-.089 1.059.284 1.145.83.304 1.9.836 3.76 1.583 5.526.215.509-.022 1.096-.531 1.311-.128.053-.26.079-.39.079z"
     id="path87" />
  <path
     d="m14.77 50.801c-.214 0-.429-.068-.611-.209-1.767-1.364-3.353-2.95-4.715-4.714-.337-.438-.257-1.065.18-1.402.437-.338 1.064-.258 1.403.18 1.258 1.629 2.723 3.094 4.355 4.354.437.337.518.965.18 1.402-.197.255-.493.389-.792.389z"
     id="path89" />
  <path
     d="m26.063 55.684c-.052 0-.105-.004-.159-.013-2.061-.329-4.076-.907-5.991-1.717-.509-.215-.747-.802-.531-1.311.215-.51.801-.745 1.311-.531 1.766.747 3.626 1.28 5.527 1.584.545.087.917.6.83 1.146-.079.491-.504.842-.987.842z"
     id="path91" />
  <path
     d="m20.304 7.967c-.39 0-.76-.229-.921-.61-.215-.509.022-1.096.531-1.311 1.915-.81 3.93-1.388 5.991-1.717.545-.089 1.058.285 1.145.829.087.546-.284 1.059-.83 1.146-1.901.304-3.761.837-5.527 1.584-.128.053-.259.079-.389.079z"
     id="path93" />
  <path
     d="m10.229 15.741c-.213 0-.428-.068-.61-.208-.438-.338-.518-.966-.181-1.403 1.363-1.767 2.949-3.354 4.714-4.716.437-.337 1.064-.258 1.403.18.337.438.257 1.065-.18 1.402-1.63 1.259-3.095 2.725-4.354 4.356-.197.255-.493.389-.792.389z"
     id="path95" />
  <path
     d="m5.348 27.032c-.053 0-.105-.004-.159-.013-.545-.087-.917-.6-.83-1.145.329-2.061.906-4.076 1.716-5.991.215-.509.801-.747 1.311-.531.509.215.747.802.531 1.311-.747 1.767-1.28 3.626-1.583 5.526-.078.493-.503.843-.986.843z"
     id="path97" />
  <path
     d="m22.03 34c-.153 0-.306-.035-.447-.105l-8-4c-.339-.17-.553-.516-.553-.895v-8c0-.347.18-.668.474-.851.295-.184.664-.198.973-.044l8 4c.339.17.553.516.553.895v8c0 .347-.18.668-.474.851-.161.099-.344.149-.526.149zm-7-5.618 6 3v-5.764l-6-3z"
     id="path99" />
  <path
     d="m22.03 34c-.183 0-.365-.05-.526-.149-.294-.183-.474-.504-.474-.851v-8c0-.379.214-.725.553-.895l8-4c.31-.154.678-.14.973.044.294.183.474.504.474.851v8c0 .379-.214.725-.553.895l-8 4c-.141.07-.294.105-.447.105zm1-8.382v5.764l6-3v-5.764z"
     id="path101" />
  <path
     d="m22.03 26c-.153 0-.307-.035-.447-.105l-8-4c-.339-.17-.553-.516-.553-.895s.214-.725.553-.895l8-4c.281-.141.613-.141.895 0l8 4c.339.17.553.516.553.895s-.214.725-.553.895l-8 4c-.142.07-.295.105-.448.105zm-5.764-5 5.764 2.882 5.764-2.882-5.764-2.882z"
     id="path103" />
  <path
     d="m38.03 34c-.153 0-.306-.035-.447-.105l-8-4c-.339-.17-.553-.516-.553-.895v-8c0-.347.18-.668.474-.851.295-.184.664-.198.973-.044l8 4c.339.17.553.516.553.895v8c0 .347-.18.668-.474.851-.161.099-.344.149-.526.149zm-7-5.618 6 3v-5.764l-6-3z"
     id="path105" />
  <path
     d="m38.03 34c-.183 0-.365-.05-.526-.149-.294-.183-.474-.504-.474-.851v-8c0-.379.214-.725.553-.895l8-4c.31-.154.678-.14.973.044.294.183.474.504.474.851v8c0 .379-.214.725-.553.895l-8 4c-.141.07-.294.105-.447.105zm1-8.382v5.764l6-3v-5.764z"
     id="path107" />
  <path
     d="m38.03 26c-.153 0-.307-.035-.447-.105l-8-4c-.339-.17-.553-.516-.553-.895s.214-.725.553-.895l8-4c.281-.141.613-.141.895 0l8 4c.339.17.553.516.553.895s-.214.725-.553.895l-8 4c-.142.07-.295.105-.448.105zm-5.764-5 5.764 2.882 5.764-2.882-5.764-2.882z"
     id="path109" />
  <path
     d="m30.03 46c-.153 0-.306-.035-.447-.105l-8-4c-.339-.17-.553-.516-.553-.895v-8c0-.347.18-.668.474-.851.295-.184.663-.198.973-.044l8 4c.339.17.553.516.553.895v8c0 .347-.18.668-.474.851-.161.099-.344.149-.526.149zm-7-5.618 6 3v-5.764l-6-3z"
     id="path111" />
  <path
     d="m30.03 46c-.183 0-.365-.05-.526-.149-.294-.183-.474-.504-.474-.851v-8c0-.379.214-.725.553-.895l8-4c.31-.154.678-.14.973.044.294.183.474.504.474.851v8c0 .379-.214.725-.553.895l-8 4c-.141.07-.294.105-.447.105zm1-8.382v5.764l6-3v-5.764z"
     id="path113" />
  <path
     d="m30.03 38c-.153 0-.307-.035-.447-.105l-8-4c-.339-.17-.553-.516-.553-.895s.214-.725.553-.895l8-4c.281-.141.613-.141.895 0l8 4c.339.17.553.516.553.895s-.214.725-.553.895l-8 4c-.142.07-.295.105-.448.105zm-5.764-5 5.764 2.882 5.764-2.882-5.764-2.882z"
     id="path115" />
  <path
     style="fill:#ffffff;stroke-width:0.507937"
     d="m 196.57143,243.04862 v -24.12599 l 25.39682,-12.70041 25.39683,-12.7004 v 24.25735 24.25736 l -25.14421,12.56903 c -13.82931,6.91298 -25.25788,12.56904 -25.39682,12.56904 -0.13894,0 -0.25262,-10.85669 -0.25262,-24.12598 z"
     id="path124"
     transform="scale(0.1171875)" />
  <path
     style="fill:#ffffff;stroke-width:0.507937"
     d="m 153.52381,254.57705 -25.01587,-12.54051 v -24.25736 -24.25736 l 25.39682,12.7004 25.39683,12.70041 v 24.12599 c 0,13.26929 -0.17143,24.11315 -0.38096,24.09746 -0.20952,-0.0157 -11.63809,-5.67175 -25.39682,-12.56903 z"
     id="path128"
     transform="scale(0.1171875)" />
  <path
     style="fill:#ffffff;stroke-width:0.507937"
     d="m 163.30373,191.14685 -23.87088,-11.97228 24.25183,-12.12802 24.25183,-12.12802 24.25184,12.12803 24.25185,12.12803 -23.99577,12.00001 c -13.19766,6.6 -24.28242,11.98752 -24.63279,11.97226 -0.35037,-0.0153 -11.37893,-5.41526 -24.50791,-12.00001 z"
     id="path130"
     transform="scale(0.1171875)" />
  <path
     style="fill:#ffffff;stroke-width:0.507937"
     d="m 221.84127,357.05059 -25.26984,-12.67166 v -24.12597 c 0,-13.26929 0.11368,-24.12598 0.25262,-24.12598 0.13894,0 11.56751,5.65607 25.39682,12.56904 l 25.14421,12.56904 v 24.25636 c 0,13.341 -0.0571,24.24386 -0.12698,24.22859 -0.0699,-0.0153 -11.49842,-5.73001 -25.39683,-12.69942 z"
     id="path132"
     transform="scale(0.1171875)" />
  <path
     style="fill:#ffffff;stroke-width:0.507937"
     d="m 265.14286,345.52242 v -24.25736 l 25.1442,-12.56904 c 13.82932,-6.91297 25.25789,-12.56904 25.39683,-12.56904 0.13894,0 0.25262,10.8567 0.25262,24.12599 v 24.12599 l -25.39683,12.70041 -25.39682,12.7004 z"
     id="path134"
     transform="scale(0.1171875)" />
  <path
     style="fill:#ffffff;stroke-width:0.507937"
     d="m 231.74286,293.6839 -24.00318,-12.0384 24.26062,-12.12188 24.26061,-12.12189 24.25193,12.12276 24.25193,12.12275 -24.00143,12.03753 c -13.20079,6.62064 -24.23001,12.03752 -24.50937,12.03752 -0.27937,0 -11.30937,-5.41727 -24.51111,-12.03839 z"
     id="path136"
     transform="scale(0.1171875)" />
  <path
     style="fill:#ffffff;stroke-width:0.507937"
     d="m 290.15873,254.57705 -25.01587,-12.54051 v -24.25736 -24.25736 l 25.39682,12.7004 25.39683,12.70041 v 24.12599 c 0,13.26929 -0.17143,24.11315 -0.38095,24.09746 -0.20953,-0.0157 -11.6381,-5.67175 -25.39683,-12.56903 z"
     id="path138"
     transform="scale(0.1171875)" />
  <path
     style="fill:#ffffff;stroke-width:0.507937"
     d="M 333.20635,243.04862 V 218.92263 L 358.60317,206.22222 384,193.52182 v 24.25735 24.25736 l -25.14421,12.56903 c -13.82931,6.91298 -25.25788,12.56904 -25.39682,12.56904 -0.13894,0 -0.25262,-10.85669 -0.25262,-24.12598 z"
     id="path140"
     transform="scale(0.1171875)" />
  <path
     style="fill:#ffffff;stroke-width:0.507937"
     d="m 299.93865,191.14685 -23.87088,-11.97228 24.25183,-12.12802 24.25183,-12.12802 24.25184,12.12803 24.25185,12.12803 -23.99577,12.00001 c -13.19766,6.6 -24.28242,11.98752 -24.63279,11.97226 -0.35037,-0.0153 -11.37893,-5.41526 -24.50791,-12.00001 z"
     id="path142"
     transform="scale(0.1171875)" />
  <path
     style="fill:#ffffff;stroke-width:0.507937"
     d="m 251.68254,67.568645 c -5.80146,-1.283349 -10.08662,-3.735684 -13.98938,-8.00592 -7.26598,-7.95014 -8.66277,-18.951226 -3.66042,-28.829455 1.89232,-3.736815 7.32174,-8.913748 11.36792,-10.839279 16.66752,-7.93188 35.99617,4.296228 35.99617,22.772676 0,8.522471 -4.45624,16.696228 -11.60279,21.282154 -4.93992,3.169941 -12.92802,4.76647 -18.1115,3.619824 z"
     id="path144"
     transform="scale(0.1171875)" />
  <path
     style="fill:#ffffff;stroke-width:0.507937"
     d="m 38.349206,280.89636 c -5.771957,-1.26085 -10.08332,-3.72645 -13.989379,-8.0003 -7.26598,-7.95014 -8.662768,-18.95123 -3.660424,-28.82946 C 22.576577,240.35971 28.023049,235.15167 32,233.26072 48.7221,225.30973 68.063492,237.50515 68.063492,256 c 0,10.69513 -6.86908,20.38201 -16.900497,23.83332 -3.342038,1.14983 -9.918763,1.69544 -12.813789,1.06304 z"
     id="path146"
     transform="scale(0.1171875)" />
  <path
     style="fill:#ffffff;stroke-width:0.507937"
     d="m 251.68254,494.23531 c -5.80146,-1.28335 -10.08662,-3.73568 -13.98938,-8.00592 -7.26598,-7.95014 -8.66277,-18.95122 -3.66042,-28.82945 1.89232,-3.73682 7.32174,-8.91375 11.36792,-10.83928 16.66752,-7.93188 35.99617,4.29623 35.99617,22.77267 0,8.52247 -4.45624,16.69623 -11.60279,21.28216 -4.93992,3.16994 -12.92802,4.76647 -18.1115,3.61982 z"
     id="path148"
     transform="scale(0.1171875)" />
  <path
     style="fill:#ffffff;stroke-width:0.507937"
     d="m 465.52381,280.90377 c -5.77972,-0.97198 -10.39897,-3.52346 -14.49732,-8.00771 -7.26598,-7.95014 -8.66276,-18.95123 -3.66042,-28.82946 1.89599,-3.74405 7.32134,-8.91355 11.38358,-10.84675 16.63001,-7.91413 35.98051,4.33715 35.98051,22.78015 0,10.75378 -6.86416,20.38031 -17.02472,23.87606 -3.48506,1.19903 -8.59791,1.63038 -12.18163,1.02771 z"
     id="path150"
     transform="scale(0.1171875)" />
</svg>
