<?xml version="1.0" encoding="UTF-8" standalone="no"?>
<svg
   xmlns:dc="http://purl.org/dc/elements/1.1/"
   xmlns:cc="http://creativecommons.org/ns#"
   xmlns:rdf="http://www.w3.org/1999/02/22-rdf-syntax-ns#"
   xmlns:svg="http://www.w3.org/2000/svg"
   xmlns="http://www.w3.org/2000/svg"
   xmlns:sodipodi="http://sodipodi.sourceforge.net/DTD/sodipodi-0.dtd"
   xmlns:inkscape="http://www.inkscape.org/namespaces/inkscape"
   id="Layer_1_1_"
   enable-background="new 0 0 64 64"
   height="512"
   viewBox="0 0 64 64"
   width="512"
   version="1.1"
   sodipodi:docname="money.svg"
   inkscape:version="1.0.2-2 (e86c870879, 2021-01-15)">
  <metadata
     id="metadata172">
    <rdf:RDF>
      <cc:Work
         rdf:about="">
        <dc:format>image/svg+xml</dc:format>
        <dc:type
           rdf:resource="http://purl.org/dc/dcmitype/StillImage" />
        <dc:title></dc:title>
      </cc:Work>
    </rdf:RDF>
  </metadata>
  <defs
     id="defs170" />
  <sodipodi:namedview
     pagecolor="#ffffff"
     bordercolor="#666666"
     borderopacity="1"
     objecttolerance="10"
     gridtolerance="10"
     guidetolerance="10"
     inkscape:pageopacity="0"
     inkscape:pageshadow="2"
     inkscape:window-width="3840"
     inkscape:window-height="2050"
     id="namedview168"
     showgrid="false"
     inkscape:pagecheckerboard="true"
     showborder="false"
     inkscape:zoom="1.96875"
     inkscape:cx="315.11567"
     inkscape:cy="299.85725"
     inkscape:window-x="5108"
     inkscape:window-y="-12"
     inkscape:window-maximized="1"
     inkscape:current-layer="Layer_1_1_" />
  <path
     d="m 16,36.947 -1.469,14.204 c -0.003,0.034 -0.005,0.068 -0.005,0.103 0,0.425 -0.047,0.847 -0.139,1.258 -0.515,2.321 0.043,4.717 1.53,6.57 C 17.406,60.937 19.623,62 22,62 h 20 c 2.377,0 4.594,-1.063 6.082,-2.918 1.487,-1.854 2.045,-4.249 1.529,-6.572 -0.091,-0.409 -0.138,-0.831 -0.138,-1.256 0,-0.034 -0.002,-0.068 -0.005,-0.103 L 48,36.947 C 47.99,33.934 45.497254,28.71127 43.894254,26.17427 l -0.745,0.667 -0.745,0.667 C 43.814254,29.74027 46,34.348 46,37 c 0,0.034 0.002,0.068 0.005,0.103 l 1.469,14.205 c 0.004,0.553 0.066,1.104 0.186,1.638 0.384,1.726 -0.031,3.507 -1.138,4.886 C 45.416,59.209 43.768,60 42,60 H 22 c -1.768,0 -3.416,-0.791 -4.521,-2.169 -1.106,-1.379 -1.521,-3.16 -1.139,-4.884 0.12,-0.535 0.183,-1.087 0.187,-1.64 L 17.996,37.102 C 17.998,37.068 18,37.034 18,37 c 0,-4.818 2.447,-9.074 6.162,-11.594 3.157,-0.491 6.094,-1.587 7.465,-2.155 1.052,1.511 3.715,4.865 7.131,5.719 l 0.484,-1.939 c -2.141,-0.536 -4.01,-2.429 -5.165,-3.856 3.201,0.483 6.139254,1.89027 8.327254,4.33327 l 0.745,-0.667 0.745,-0.667 C 42.091254,24.16027 39.851,22.83 37.355,21.942 c 3.716,-1.532 7.186,-6.781 8.48,-10.787 l -1.977,-0.309 c -1.33,4.115 -5.145,8.952 -9.234,9.861 C 36.162,18.814 37,16.472 37,14 h -2 c 0,2.313 -0.9,4.486 -2.535,6.121 L 31.606,20.98 C 31.531,20.978 31.457,20.973 31.383,20.969 L 29.622,19.208 C 28.071,17.657 27.438,15.371 27.97,13.242 l -1.939,-0.484 c -0.663,2.649 0.059,5.473 1.861,7.502 C 23.295,18.577 20,14.172 20,9 V 7.828 c 0,-0.62 0.473,-0.863 0.617,-0.924 0.144,-0.061 0.65,-0.222 1.09,0.217 l 2.059,2.059 c 0.59,0.59 1.406,0.906 2.237,0.877 0.832,-0.032 1.62,-0.413 2.161,-1.046 L 31.24,5.422 c 0.387,-0.449 1.133,-0.449 1.52,0 l 3.075,3.589 c 0.542,0.633 1.33,1.014 2.162,1.046 0.834,0.028 1.647,-0.287 2.237,-0.877 L 42.293,7.121 C 42.731,6.683 43.237,6.844 43.383,6.904 43.527,6.965 44,7.208 44,7.828 V 9 c 0,0.622 -0.048,1.243 -0.142,1.846 l 1.977,0.309 C 45.944,10.449 46,9.725 46,9 V 7.828 C 46,6.592 45.29,5.53 44.148,5.057 43.006,4.585 41.753,4.833 40.878,5.707 L 38.82,7.766 c -0.2,0.2 -0.466,0.319 -0.746,0.292 C 37.793,8.047 37.537,7.924 37.353,7.71 L 34.277,4.121 C 33.707,3.455 32.877,3.073 32,3.073 c -0.877,0 -1.707,0.382 -2.277,1.048 L 26.646,7.71 C 26.463,7.924 26.208,8.047 25.926,8.058 25.65,8.082 25.38,7.966 25.18,7.766 L 23.121,5.707 C 22.247,4.833 20.992,4.585 19.851,5.057 18.71,5.53 18,6.592 18,7.828 V 9 c 0,5.829 3.582,10.832 8.659,12.936 -1.128,0.401 -2.197,0.921 -3.193,1.553 -3.134,0.424 -6.196,0.113 -7.634,-2.043 l -1.664,1.109 c 1.474,2.21 3.931,3.01 6.571,3.092 -2.913,2.889 -4.725,6.886 -4.739,11.3 z"
     id="path163"
     sodipodi:nodetypes="ccsccssccscccccsccccssccccsccccccccccccccsccscccssscsccccccsscssccssccccccscccsscsscccccc" />
  <path
     d="m37 40v-.5c0-2.31-1.756-4.197-4-4.449v-3.051h-2v3.051c-2.244.252-4 2.139-4 4.449 0 2.481 2.019 4.5 4.5 4.5h1c1.379 0 2.5 1.121 2.5 2.5s-1.121 2.5-2.5 2.5h-1c-1.379 0-2.5-1.121-2.5-2.5v-.5h-2v.5c0 2.31 1.756 4.197 4 4.449v3.051h2v-3.051c2.244-.252 4-2.139 4-4.449 0-2.481-2.019-4.5-4.5-4.5h-1c-1.379 0-2.5-1.121-2.5-2.5s1.121-2.5 2.5-2.5h1c1.379 0 2.5 1.121 2.5 2.5v.5z"
     id="path165" />
  <path
     style="fill:#ffffff;stroke-width:0.507937"
     d="m 167.36353,478.88653 c -13.28908,-2.90076 -24.22806,-10.58802 -30.96767,-21.76223 -2.13445,-3.53891 -3.8751,-7.82128 -5.2394,-12.89008 -1.3647,-5.07028 -1.46736,-14.82951 -0.21503,-20.44046 0.46765,-2.09524 1.06222,-6.55238 1.32127,-9.90476 0.25906,-3.35238 3.00523,-30.4381 6.10261,-60.19048 3.09738,-29.75238 5.83902,-57.86666 6.09253,-62.47619 0.2535,-4.60952 0.9142,-11.00952 1.46821,-14.22222 2.89406,-16.78255 10.10656,-33.52288 20.48669,-47.54998 5.0579,-6.83495 15.79661,-17.64178 22.22674,-22.36774 l 4.82539,-3.54653 9.39683,-1.85312 c 11.80794,-2.32861 26.25914,-6.4565 38.79982,-11.08292 5.33947,-1.96979 10.07642,-3.69678 10.52656,-3.83775 0.57078,-0.17874 1.59262,0.80809 3.37676,3.26106 10.20995,14.03742 25.23234,28.06587 37.51744,35.03515 4.78917,2.71687 12.88215,6.1252 15.58597,6.56397 l 1.62637,0.26392 1.92004,-7.74938 c 1.05602,-4.26217 1.74076,-7.89315 1.52164,-8.06887 -0.21913,-0.17571 -1.75224,-0.75985 -3.40692,-1.29808 -4.303,-1.39966 -10.21063,-4.55892 -15.64932,-8.36887 -4.6624,-3.26615 -18.87347,-16.82721 -20.16666,-19.24426 l -0.64657,-1.20847 2.46569,0.36386 c 8.51964,1.25727 22.71549,5.95275 31.87698,10.54378 14.01797,7.02472 27.97257,18.57018 33.25535,27.51411 14.38831,24.35993 24.93362,52.37659 26.21435,69.64599 0.18646,2.51429 2.95024,29.93556 6.14171,60.93616 3.19148,31.0006 5.80269,57.2673 5.80269,58.37043 0,1.10315 0.59673,5.56759 1.32605,9.92099 2.06057,12.29963 1.13155,20.53081 -3.38302,29.97414 -6.00952,12.57038 -15.95822,20.84847 -30.19699,25.12624 -3.54807,1.06595 -3.73801,1.0684 -90.15873,1.15947 -72.42024,0.0763 -87.13448,-0.0247 -89.84738,-0.61688 z m 96.95849,-58.83685 v -12.37901 l 2.66666,-0.35353 c 3.01675,-0.39994 8.99012,-2.66043 11.89754,-4.50236 8.09642,-5.12929 13.76598,-12.71132 16.21723,-21.68768 1.22478,-4.48508 1.23005,-13.76739 0.0104,-18.28572 -3.40362,-12.60883 -13.56911,-22.73407 -26.02201,-25.91898 -2.9683,-0.75917 -5.61221,-1.00165 -10.92128,-1.00165 -3.85267,0 -8.21611,-0.25342 -9.69652,-0.56315 -6.13322,-1.2832 -11.88692,-5.84438 -14.52754,-11.51656 -1.16224,-2.49654 -1.35341,-3.58207 -1.3613,-7.72982 -0.008,-4.37723 0.14057,-5.1415 1.60321,-8.22893 2.05137,-4.33016 5.38407,-7.66286 9.71423,-9.71423 3.26655,-1.5475 3.70544,-1.61939 10.90452,-1.78614 6.46711,-0.1498 7.97231,-0.0288 10.92064,0.87746 4.17281,1.28272 7.82622,3.97456 10.40594,7.66711 2.43553,3.48614 3.42641,6.82074 3.42641,11.53089 v 3.71733 h 8.38095 8.38096 l -0.0177,-3.42857 c -0.069,-13.3434 -6.69546,-25.14363 -17.83895,-31.76702 -2.82683,-1.68019 -8.4763,-3.74244 -12.7465,-4.65292 l -1.39682,-0.29782 v -12.1808 -12.1808 h -8.38096 -8.38095 v 12.20641 c 0,9.3399 -0.1491,12.24456 -0.63492,12.36882 -0.3492,0.0893 -2.20282,0.53956 -4.11913,1.00054 -10.07462,2.42351 -18.8911,9.69426 -23.49599,19.37661 -2.53455,5.32919 -3.42035,9.35517 -3.40859,15.49206 0.0302,15.76449 9.72738,29.2719 24.59771,34.26271 3.83797,1.28811 5.23816,1.46892 13.91807,1.79733 8.12111,0.30727 10.10587,0.5406 12.52192,1.47211 8.21789,3.16842 13.00488,10.62479 12.5174,19.49751 -0.28307,5.15234 -2.02449,9.14674 -5.50504,12.62729 -4.47079,4.47079 -9.01797,6.01056 -17.77677,6.01956 -9.04991,0.009 -13.51347,-1.50252 -18.20186,-6.16505 -3.45236,-3.43333 -5.3038,-7.84328 -5.56224,-13.2487 l -0.21291,-4.45323 h -8.39144 -8.39143 l 0.3482,5.05566 c 0.4425,6.42472 1.33457,9.91387 3.8475,15.0487 2.07345,4.23683 5.68009,8.74341 9.66381,12.07517 3.20334,2.6791 10.77842,6.26226 14.85714,7.02773 l 3.42857,0.64346 v 12.3286 12.32861 h 8.38095 8.38096 z"
     id="path178"
     transform="scale(0.125)" />
  <path
     style="fill:#ffffff;stroke-width:0.507937"
     d="m 242.5994,158.91738 c -9.65873,-9.79283 -13.25871,-14.6635 -16.23656,-21.96759 -3.43604,-8.42796 -4.6087,-19.3344 -2.9825,-27.73907 0.48422,-2.50262 0.51446,-3.52592 0.10832,-3.66527 -1.91097,-0.65569 -15.20064,-3.79176 -15.36629,-3.62612 -0.11098,0.11098 -0.51992,1.89241 -0.90876,3.95874 -2.69433,14.31768 -0.48041,29.1405 6.38662,42.76024 1.71776,3.40691 5.03152,8.55368 6.69061,10.39155 1.73769,1.9249 0.54586,1.90136 -3.89389,-0.0769 -9.11511,-4.06154 -18.16255,-10.22997 -26.10936,-17.80105 -9.07972,-8.65042 -14.79034,-16.40141 -20.22656,-27.45337 -6.89189,-14.011379 -9.866,-27.606716 -9.866,-45.099796 0,-6.23209 0.13741,-7.434736 1.06941,-9.359995 1.68939,-3.489809 6.55087,-5.298154 9.75764,-3.629588 0.6102,0.317506 5.68343,5.078033 11.27383,10.57895 8.88868,8.746388 10.64636,10.239873 14.00462,11.899617 8.21294,4.059055 18.7588,3.055692 25.52938,-2.428937 1.4405,-1.1669 8.60454,-9.085324 15.9201,-17.596497 14.28485,-16.619492 15.3198,-17.538178 19.14356,-16.992998 1.08261,0.154355 2.39934,0.511287 2.92606,0.793183 0.52673,0.281895 7.13643,7.708051 14.68824,16.502568 7.5518,8.794518 14.8065,16.775328 16.12156,17.735134 6.9773,5.092462 16.79232,5.898674 24.90547,2.045752 3.4052,-1.617123 4.88746,-2.880741 14.27122,-12.166164 6.65206,-6.582349 10.98856,-10.491426 11.88939,-10.717518 2.08991,-0.524536 5.16722,0.02828 6.85756,1.231909 2.72056,1.93721 3.13448,3.63483 3.12986,12.836703 -0.007,14.172347 -0.75958,17.953687 -5.87168,29.506754 -3.01285,6.808873 -7.19761,14.195673 -12.30106,21.713463 -14.64634,21.57518 -32.75834,36.93448 -50.99932,43.24832 -1.86914,0.64698 -3.5262,1.04856 -3.68236,0.89241 -0.15615,-0.15616 1.23782,-2.55066 3.09772,-5.32113 7.68888,-11.45321 12.41178,-24.66238 13.8782,-38.81499 0.27499,-2.65397 0.50394,-5.68254 0.50878,-6.73016 l 0.009,-1.90476 h -8.3071 -8.30708 l -0.2848,4.95238 c -0.96256,16.73794 -7.69661,31.15916 -20.87211,44.69841 -3.33027,3.42222 -6.30846,6.22574 -6.61817,6.23004 -0.30972,0.004 -4.50973,-3.99359 -9.33336,-8.8842 z"
     id="path180"
     transform="scale(0.125)" />
</svg>
