<?xml version="1.0" encoding="UTF-8" standalone="no"?>
<svg
   xmlns:dc="http://purl.org/dc/elements/1.1/"
   xmlns:cc="http://creativecommons.org/ns#"
   xmlns:rdf="http://www.w3.org/1999/02/22-rdf-syntax-ns#"
   xmlns:svg="http://www.w3.org/2000/svg"
   xmlns="http://www.w3.org/2000/svg"
   xmlns:sodipodi="http://sodipodi.sourceforge.net/DTD/sodipodi-0.dtd"
   xmlns:inkscape="http://www.inkscape.org/namespaces/inkscape"
   height="682.66669pt"
   viewBox="-21 -21 682.66669 682.66669"
   width="682.66669pt"
   version="1.1"
   id="svg1025"
   sodipodi:docname="object.svg"
   inkscape:version="1.0.2-2 (e86c870879, 2021-01-15)">
  <metadata
     id="metadata1031">
    <rdf:RDF>
      <cc:Work
         rdf:about="">
        <dc:format>image/svg+xml</dc:format>
        <dc:type
           rdf:resource="http://purl.org/dc/dcmitype/StillImage" />
        <dc:title></dc:title>
      </cc:Work>
    </rdf:RDF>
  </metadata>
  <defs
     id="defs1029" />
  <sodipodi:namedview
     pagecolor="#ffffff"
     bordercolor="#666666"
     borderopacity="1"
     objecttolerance="10"
     gridtolerance="10"
     guidetolerance="10"
     inkscape:pageopacity="0"
     inkscape:pageshadow="2"
     inkscape:window-width="3840"
     inkscape:window-height="2050"
     id="namedview1027"
     showgrid="false"
     inkscape:pagecheckerboard="true"
     showborder="false"
     inkscape:zoom="1.1074218"
     inkscape:cx="455.11112"
     inkscape:cy="448.79014"
     inkscape:window-x="5108"
     inkscape:window-y="-12"
     inkscape:window-maximized="1"
     inkscape:current-layer="svg1025" />
  <path
     d="m461.5625 231.050781-135.3125-78.125c-3.863281-2.238281-8.636719-2.238281-12.5 0l-135.3125 78.125c-3.863281 2.234375-6.25 6.363281-6.25 10.824219v156.25c0 4.460938 2.386719 8.589844 6.25 10.824219l135.3125 78.125c1.9375 1.113281 4.085938 1.675781 6.25 1.675781s4.3125-.5625 6.25-1.675781l135.3125-78.125c3.863281-2.234375 6.25-6.363281 6.25-10.824219v-156.25c0-4.460938-2.386719-8.589844-6.25-10.824219zm-264.375 32.738281 110.3125 63.6875v127.125l-110.3125-63.6875zm122.8125 42.035157-110.539062-63.824219 110.539062-63.8125 110.539062 63.8125zm122.8125 85.089843-110.3125 63.6875v-127.125l110.3125-63.6875zm0 0"
     id="path1019" />
  <path
     d="m627.5 100.023438c6.898438 0 12.5-5.601563 12.5-12.5v-75.023438c0-6.898438-5.601562-12.5-12.5-12.5h-75.023438c-6.898437 0-12.5 5.601562-12.5 12.5v25.015625h-439.953124v-25.015625c0-6.898438-5.601563-12.5-12.5-12.5h-75.023438c-6.898438 0-12.5 5.601562-12.5 12.5v75.023438c0 6.898437 5.601562 12.5 12.5 12.5h25.015625v439.953124h-25.015625c-6.898438 0-12.5 5.601563-12.5 12.5v75.023438c0 6.898438 5.601562 12.5 12.5 12.5h75.023438c6.898437 0 12.5-5.601562 12.5-12.5v-25.015625h40.828124c6.898438 0 12.5-5.59375 12.5-12.5 0-6.898437-5.601562-12.5-12.5-12.5h-40.828124v-25.007813c0-6.898437-5.601563-12.5-12.5-12.5h-25.007813v-439.953124h25.007813c6.898437 0 12.5-5.601563 12.5-12.5v-25.007813h439.953124v25.007813c0 6.898437 5.601563 12.5 12.5 12.5h25.007813v439.953124h-25.007813c-6.898437 0-12.5 5.601563-12.5 12.5v25.007813h-311.414062c-6.914062 0-12.5 5.601563-12.5 12.5 0 6.90625 5.585938 12.5 12.5 12.5h311.414062v25.015625c0 6.898438 5.601563 12.5 12.5 12.5h75.023438c6.898438 0 12.5-5.601562 12.5-12.5v-75.023438c0-6.898437-5.601562-12.5-12.5-12.5h-25.015625v-439.953124zm-552.476562 464.953124v50.023438h-50.023438v-50.023438zm0-489.953124h-50.023438v-50.023438h50.023438zm539.976562 489.953124v50.023438h-50.023438v-50.023438zm-50.023438-489.953124v-50.023438h50.023438v50.023438zm0 0"
     id="path1021" />
  <path
     d="m184.726562 602.492188c-6.898437 0-12.503906-5.597657-12.503906-12.5 0-6.90625 5.589844-12.5 12.496094-12.5h.007812c6.90625 0 12.5 5.59375 12.5 12.5 0 6.902343-5.59375 12.5-12.5 12.5zm0 0"
     id="path1023" />
  <path
     style="fill:#ffffff;stroke-width:0.902998;fill-opacity:1"
     d="M 781.9965,94.363319 V 61.403882 h 32.95943 32.95944 V 94.363319 127.32276 H 814.95593 781.9965 Z"
     id="path1037"
     transform="matrix(0.75000002,0,0,0.75000002,-21,-21)" />
  <path
     style="fill:#ffffff;fill-opacity:1;stroke-width:0.902998"
     d="M 61.403882,94.363319 V 61.403882 H 94.363319 127.32276 V 94.363319 127.32276 H 94.363319 61.403882 Z"
     id="path1600"
     transform="matrix(0.75000002,0,0,0.75000002,-21,-21)" />
  <path
     style="fill:#ffffff;fill-opacity:1;stroke-width:0.902998"
     d="m 381.73962,393.02063 c -40.106,-23.16034 -72.61394,-42.40219 -72.23986,-42.75967 0.74576,-0.71266 144.70139,-83.87647 145.18923,-83.87647 0.50498,0 144.40057,83.15782 145.14278,83.87857 0.38082,0.36982 -30.90807,18.91055 -69.53087,41.20162 -38.62281,22.29107 -71.44233,41.23493 -72.93228,42.09745 l -2.70899,1.56823 z"
     id="path1602"
     transform="matrix(0.75000002,0,0,0.75000002,-21,-21)" />
  <path
     style="fill:#ffffff;fill-opacity:1;stroke-width:0.902998"
     d="m 364.3598,591.06341 -72.23986,-41.79853 -0.23041,-84.15598 c -0.12673,-46.28579 0.0764,-83.99372 0.4515,-83.7954 0.37505,0.19832 33.29143,19.1604 73.14752,42.13796 l 72.46561,41.77739 v 83.88647 c 0,46.13755 -0.30476,83.855 -0.67725,83.81654 -0.37249,-0.0385 -33.18519,-18.87925 -72.91711,-41.86845 z"
     id="path1604"
     transform="matrix(0.75000002,0,0,0.75000002,-21,-21)" />
  <path
     style="fill:#ffffff;fill-opacity:1;stroke-width:0.902998"
     d="M 471.36509,549.12781 V 465.25383 L 543.8307,423.4748 c 39.85609,-22.97847 72.77038,-41.94488 73.14286,-42.14758 0.37249,-0.20269 0.67725,37.43263 0.67725,83.63405 v 84.00259 l -8.35273,4.87953 c -25.69323,15.00956 -137.11087,79.15839 -137.48716,79.15839 -0.2452,0 -0.44583,-37.74328 -0.44583,-83.87397 z"
     id="path1606"
     transform="matrix(0.75000002,0,0,0.75000002,-21,-21)" />
  <path
     style="fill:#ffffff;fill-opacity:1;stroke-width:0.902998"
     d="M 61.403882,814.95593 V 781.9965 h 32.959437 32.959441 v 32.95943 32.95944 H 94.363319 61.403882 Z"
     id="path1608"
     transform="matrix(0.75000002,0,0,0.75000002,-21,-21)" />
  <path
     style="fill:#ffffff;fill-opacity:1;stroke-width:0.902998"
     d="M 781.9965,814.95593 V 781.9965 h 32.95943 32.95944 v 32.95943 32.95944 H 814.95593 781.9965 Z"
     id="path1610"
     transform="matrix(0.75000002,0,0,0.75000002,-21,-21)" />
</svg>
