<?xml version="1.0" encoding="UTF-8" standalone="no"?>
<svg
   xmlns:dc="http://purl.org/dc/elements/1.1/"
   xmlns:cc="http://creativecommons.org/ns#"
   xmlns:rdf="http://www.w3.org/1999/02/22-rdf-syntax-ns#"
   xmlns:svg="http://www.w3.org/2000/svg"
   xmlns="http://www.w3.org/2000/svg"
   xmlns:sodipodi="http://sodipodi.sourceforge.net/DTD/sodipodi-0.dtd"
   xmlns:inkscape="http://www.inkscape.org/namespaces/inkscape"
   version="1.1"
   id="Capa_1"
   x="0px"
   y="0px"
   viewBox="0 0 512.001 512.001"
   style="enable-background:new 0 0 512.001 512.001;"
   xml:space="preserve"
   sodipodi:docname="pencil-filled.svg"
   inkscape:version="1.0.2-2 (e86c870879, 2021-01-15)"><metadata
   id="metadata917"><rdf:RDF><cc:Work
       rdf:about=""><dc:format>image/svg+xml</dc:format><dc:type
         rdf:resource="http://purl.org/dc/dcmitype/StillImage" /><dc:title></dc:title></cc:Work></rdf:RDF></metadata><defs
   id="defs915" /><sodipodi:namedview
   pagecolor="#ffffff"
   bordercolor="#666666"
   borderopacity="1"
   objecttolerance="10"
   gridtolerance="10"
   guidetolerance="10"
   inkscape:pageopacity="0"
   inkscape:pageshadow="2"
   inkscape:window-width="3840"
   inkscape:window-height="2050"
   id="namedview913"
   showgrid="false"
   inkscape:pagecheckerboard="true"
   showborder="false"
   inkscape:zoom="1.9687462"
   inkscape:cx="256.0005"
   inkscape:cy="252.44494"
   inkscape:window-x="5108"
   inkscape:window-y="-12"
   inkscape:window-maximized="1"
   inkscape:current-layer="Capa_1" />
<g
   id="g880">
	<g
   id="g878">
		<path
   d="M496.063,62.299l-46.396-46.4c-21.199-21.199-55.689-21.198-76.888,0C352.82,35.86,47.964,340.739,27.591,361.113    c-2.17,2.17-3.624,5.054-4.142,7.875L0.251,494.268c-0.899,4.857,0.649,9.846,4.142,13.339c3.497,3.497,8.487,5.042,13.338,4.143    L143,488.549c2.895-0.54,5.741-2.008,7.875-4.143l345.188-345.214C517.311,117.944,517.314,83.55,496.063,62.299z M33.721,478.276    l14.033-75.784l61.746,61.75L33.721,478.276z M140.269,452.585L59.41,371.721L354.62,76.488l80.859,80.865L140.269,452.585z     M474.85,117.979l-18.159,18.161l-80.859-80.865l18.159-18.161c9.501-9.502,24.96-9.503,34.463,0l46.396,46.4    C484.375,93.039,484.375,108.453,474.85,117.979z"
   id="path876" />
	</g>
</g>
<g
   id="g882">
</g>
<g
   id="g884">
</g>
<g
   id="g886">
</g>
<g
   id="g888">
</g>
<g
   id="g890">
</g>
<g
   id="g892">
</g>
<g
   id="g894">
</g>
<g
   id="g896">
</g>
<g
   id="g898">
</g>
<g
   id="g900">
</g>
<g
   id="g902">
</g>
<g
   id="g904">
</g>
<g
   id="g906">
</g>
<g
   id="g908">
</g>
<g
   id="g910">
</g>
<path
   style="fill:#ffffff;stroke-width:0.507937"
   d="M 100.19045,411.81011 59.937487,371.55476 207.2389,224.25401 354.5403,76.95326 l 40.25383,40.25383 40.25383,40.25382 -147.30228,147.30228 -147.30227,147.30227 z"
   id="path919" /><path
   style="fill:#ffffff;stroke-width:0.507937"
   d="m 34.255731,476.88769 c 0.206737,-0.90836 11.501331,-61.97332 13.315758,-71.99251 l 0.309454,-1.7088 30.38847,30.38531 c 16.71366,16.71192 30.337617,30.43615 30.275477,30.4983 -0.0621,0.0621 -16.338726,3.11399 -36.170177,6.78189 -19.83145,3.66789 -36.582753,6.7974 -37.225118,6.95446 -1.017537,0.24879 -1.132644,0.13049 -0.893864,-0.91865 z"
   id="path921" /><path
   style="fill:#ffffff;stroke-width:0.507937"
   d="M 416.37448,95.359526 376.36711,55.111219 386.68336,44.849724 c 9.45345,-9.403281 10.65415,-10.422827 14.35652,-12.1905 3.9832,-1.901755 4.12638,-1.929005 10.13553,-1.929005 6.00653,0 6.15439,0.0281 10.15875,1.930596 3.97904,1.890469 4.60402,2.471119 30.06946,27.936563 25.47548,25.475481 26.04497,26.088495 27.91787,30.051754 1.6851,3.565858 1.9362,4.601451 2.11677,8.729942 0.23933,5.472116 -0.87366,9.969106 -3.50085,14.144956 -1.39141,2.21162 -20.55964,22.10489 -21.28446,22.08954 -0.14911,-0.003 -18.27442,-18.11747 -40.27847,-40.254044 z"
   id="path923" /></svg>
