<?xml version="1.0" encoding="UTF-8" standalone="no"?>
<svg
   xmlns:dc="http://purl.org/dc/elements/1.1/"
   xmlns:cc="http://creativecommons.org/ns#"
   xmlns:rdf="http://www.w3.org/1999/02/22-rdf-syntax-ns#"
   xmlns:svg="http://www.w3.org/2000/svg"
   xmlns="http://www.w3.org/2000/svg"
   xmlns:sodipodi="http://sodipodi.sourceforge.net/DTD/sodipodi-0.dtd"
   xmlns:inkscape="http://www.inkscape.org/namespaces/inkscape"
   version="1.1"
   id="Capa_1"
   x="0px"
   y="0px"
   width="38.083px"
   height="38.083px"
   viewBox="0 0 38.083 38.083"
   style="enable-background:new 0 0 38.083 38.083;"
   xml:space="preserve"
   sodipodi:docname="play-button-arrow.svg"
   inkscape:version="1.0.2-2 (e86c870879, 2021-01-15)"><metadata
   id="metadata1547"><rdf:RDF><cc:Work
       rdf:about=""><dc:format>image/svg+xml</dc:format><dc:type
         rdf:resource="http://purl.org/dc/dcmitype/StillImage" /><dc:title></dc:title></cc:Work></rdf:RDF></metadata><defs
   id="defs1545" /><sodipodi:namedview
   pagecolor="#ffffff"
   bordercolor="#666666"
   borderopacity="1"
   objecttolerance="10"
   gridtolerance="10"
   guidetolerance="10"
   inkscape:pageopacity="0"
   inkscape:pageshadow="2"
   inkscape:window-width="3840"
   inkscape:window-height="2050"
   id="namedview1543"
   showgrid="false"
   inkscape:pagecheckerboard="true"
   showborder="false"
   inkscape:zoom="26.468503"
   inkscape:cx="19.0415"
   inkscape:cy="23.310725"
   inkscape:window-x="5108"
   inkscape:window-y="-12"
   inkscape:window-maximized="1"
   inkscape:current-layer="Capa_1" />
<g
   id="g1510">
	<g
   id="g1508">
		<path
   d="M6.655,36.904V1.177c0-0.461,0.269-0.879,0.687-1.07c0.419-0.191,0.911-0.121,1.26,0.178l22.416,17.568    c0.258,0.223,0.406,0.545,0.41,0.885c0.004,0.326-0.143,0.663-0.396,0.889L8.616,37.784c-0.347,0.31-0.842,0.385-1.265,0.194    C6.927,37.787,6.655,37.368,6.655,36.904z M9.01,3.744v30.535l19.449-15.52L9.01,3.744z"
   id="path1506" />
	</g>
</g>
<g
   id="g1512">
</g>
<g
   id="g1514">
</g>
<g
   id="g1516">
</g>
<g
   id="g1518">
</g>
<g
   id="g1520">
</g>
<g
   id="g1522">
</g>
<g
   id="g1524">
</g>
<g
   id="g1526">
</g>
<g
   id="g1528">
</g>
<g
   id="g1530">
</g>
<g
   id="g1532">
</g>
<g
   id="g1534">
</g>
<g
   id="g1536">
</g>
<g
   id="g1538">
</g>
<g
   id="g1540">
</g>
<path
   style="fill:#ffffff;stroke-width:0.0377808"
   d="m 9.0296002,19.028465 c 0,-8.366935 0.00832,-15.2126088 0.018478,-15.2126088 0.010163,0 3.6782018,2.8253119 8.1511978,6.2784708 4.472996,3.453159 8.804273,6.796282 9.625059,7.429161 0.820787,0.632879 1.514812,1.171409 1.542278,1.196734 0.04033,0.03719 -0.08683,0.154785 -0.661163,0.61143 -1.581208,1.257197 -18.5483405,14.797911 -18.6097333,14.851601 -0.062954,0.05506 -0.066116,-0.669749 -0.066116,-15.154788 z"
   id="path2110" /></svg>
