<?xml version="1.0" encoding="UTF-8" standalone="no"?>
<svg
   xmlns:dc="http://purl.org/dc/elements/1.1/"
   xmlns:cc="http://creativecommons.org/ns#"
   xmlns:rdf="http://www.w3.org/1999/02/22-rdf-syntax-ns#"
   xmlns:svg="http://www.w3.org/2000/svg"
   xmlns="http://www.w3.org/2000/svg"
   xmlns:sodipodi="http://sodipodi.sourceforge.net/DTD/sodipodi-0.dtd"
   xmlns:inkscape="http://www.inkscape.org/namespaces/inkscape"
   id="Capa_1"
   enable-background="new 0 0 512 512"
   height="512"
   viewBox="0 0 512 512"
   width="512"
   version="1.1"
   sodipodi:docname="police-car.svg"
   inkscape:version="1.0.2-2 (e86c870879, 2021-01-15)">
  <metadata
     id="metadata863">
    <rdf:RDF>
      <cc:Work
         rdf:about="">
        <dc:format>image/svg+xml</dc:format>
        <dc:type
           rdf:resource="http://purl.org/dc/dcmitype/StillImage" />
        <dc:title></dc:title>
      </cc:Work>
    </rdf:RDF>
  </metadata>
  <defs
     id="defs861" />
  <sodipodi:namedview
     pagecolor="#ffffff"
     bordercolor="#666666"
     borderopacity="1"
     objecttolerance="10"
     gridtolerance="10"
     guidetolerance="10"
     inkscape:pageopacity="0"
     inkscape:pageshadow="2"
     inkscape:window-width="3840"
     inkscape:window-height="2050"
     id="namedview859"
     showgrid="false"
     inkscape:pagecheckerboard="true"
     showborder="false"
     inkscape:zoom="2.499733"
     inkscape:cx="326.67848"
     inkscape:cy="300.35793"
     inkscape:window-x="5108"
     inkscape:window-y="-12"
     inkscape:window-maximized="1"
     inkscape:current-layer="Capa_1" />
  <g
     id="XMLID_1514_">
    <g
       id="XMLID_343_">
      <path
         id="XMLID_1181_"
         d="M 482,310 H 389.813 L 332.756,208.918 c -1.772,-3.142 -5.101,-5.084 -8.708,-5.084 h -68.024 v -12 c 0,-17.645 -14.355,-32 -32,-32 -17.645,0 -32,14.355 -32,32 v 12 h -68.19 c -3.607,0 -6.936,1.943 -8.708,5.084 L 58.068,310 H 30 C 13.458,310 0,323.458 0,340 v 68 c 0,5.523 4.478,10 10,10 h 71.006 c 4.646,22.795 24.847,40 48.994,40 24.147,0 44.348,-17.205 48.994,-40 h 197.61504 c 5.522,0 0.99904,-4.477 0.99904,-10 0,-5.523 3.52285,-10 -1.99915,-10 H 233.94 V 330 H 372 v 78 c 0,27.57 22.43,50 50,50 24.146,0 44.348,-17.205 48.994,-40 H 502 c 5.522,0 10,-4.477 10,-10 v -68 c 0,-16.542 -13.458,-30 -30,-30 z M 366.753,309.833 H 233.94 v -86 h 84.269 z m -154.73,-118 c 0,-6.617 5.383,-12 12,-12 6.617,0 12,5.383 12,12 v 12 h -24 z m -82.351,32 h 84.269 v 86 H 81.128 Z M 20,398 v -20 h 20 v 20 z m 110,40 c -16.542,0 -30,-13.458 -30,-30 0,-16.542 13.458,-30 30,-30 16.542,0 30,13.458 30,30 0,16.542 -13.458,30 -30,30 z m 83.94,-40 h -34.947 c -4.646,-22.795 -24.847,-40 -48.994,-40 -24.147,0 -44.348,17.205 -48.994,40 H 60 v -30 c 0,-5.523 -4.478,-10 -10,-10 H 20 v -18 c 0,-5.514 4.486,-10 10,-10 H 213.94 Z M 482,330 c 5.514,0 10,4.486 10,10 v 18 h -30 c -5.522,0 -10,4.477 -10,10 v 0.027 C 443.637,361.735 433.248,358 422,358 c -11.248,0 -21.637,3.735 -30,10.027 V 330 Z m -60,108 c -16.542,0 -30,-13.458 -30,-30 0,-16.542 13.458,-30 30,-30 16.542,0 30,13.458 30,30 0,16.542 -13.458,30 -30,30 z m 70,-40 h -20 v -20 h 20 z"
         sodipodi:nodetypes="sccscssscsccsssscscssscccsscsssscccccsssccsccccccccccsssssccsccsscssccsscsscsccssssssccccc" />
      <path
         id="XMLID_1333_"
         d="m 223.94,123.195 c 5.522,0 10,-4.477 10,-10 V 64 c 0,-5.523 -4.478,-10 -10,-10 -5.522,0 -10,4.477 -10,10 v 49.195 c 0,5.523 4.478,10 10,10 z" />
      <path
         id="XMLID_1334_"
         d="m 105.719,166.421 c 1.953,1.953 4.512,2.929 7.071,2.929 2.559,0 5.118,-0.976 7.071,-2.929 3.905,-3.905 3.905,-10.237 0,-14.143 L 91.812,124.229 c -3.906,-3.905 -10.236,-3.905 -14.143,0 -3.905,3.905 -3.905,10.237 0,14.143 z" />
      <path
         id="XMLID_1336_"
         d="m 335.092,169.35 c 2.56,0 5.118,-0.977 7.071,-2.929 l 28.048,-28.049 c 3.905,-3.905 3.905,-10.237 0,-14.142 -3.906,-3.905 -10.236,-3.905 -14.143,0 l -28.048,28.049 c -3.905,3.905 -3.905,10.237 0,14.142 1.954,1.953 4.512,2.929 7.072,2.929 z" />
      <path
         id="XMLID_1338_"
         d="m 130,398 c -2.63,0 -5.21,1.07 -7.07,2.93 -1.86,1.86 -2.93,4.44 -2.93,7.07 0,2.63 1.069,5.21 2.93,7.07 1.861,1.86 4.44,2.93 7.07,2.93 2.63,0 5.21,-1.07 7.069,-2.93 1.86,-1.86 2.931,-4.44 2.931,-7.07 0,-2.63 -1.07,-5.21 -2.931,-7.07 C 135.21,399.07 132.63,398 130,398 Z" />
      <path
         id="XMLID_1339_"
         d="m 422,398 c -2.63,0 -5.21,1.07 -7.07,2.93 -1.86,1.86 -2.93,4.44 -2.93,7.07 0,2.63 1.069,5.21 2.93,7.07 1.861,1.86 4.44,2.93 7.07,2.93 2.63,0 5.21,-1.07 7.069,-2.93 1.86,-1.86 2.931,-4.44 2.931,-7.07 0,-2.63 -1.07,-5.21 -2.931,-7.07 C 427.21,399.07 424.63,398 422,398 Z" />
    </g>
  </g>
  <path
     style="fill:#ffffff;stroke-width:0.400043"
     d="m 60.250022,382.4393 c 0,-17.18516 -0.118053,-18.194 -2.460428,-21.02645 -0.705805,-0.85347 -2.196134,-1.97683 -3.311844,-2.49635 -2.025759,-0.94329 -2.050807,-0.9446 -18.130281,-0.94851 l -16.10172,-0.004 v -9.65463 c 0,-6.24292 0.166247,-10.20951 0.470457,-11.22487 0.615402,-2.05403 3.279361,-5.04746 5.314677,-5.97198 1.55209,-0.70503 5.278973,-0.73425 94.725597,-0.74269 l 93.10995,-0.009 v 33.80361 33.80361 h -17.40186 c -15.13947,0 -17.40186,-0.0774 -17.40186,-0.59528 0,-0.32741 -0.55936,-2.35262 -1.24302,-4.50048 -5.67559,-17.83103 -20.85952,-31.12203 -39.14232,-34.26258 -4.77134,-0.8196 -12.84902,-0.83194 -17.46669,-0.0267 -18.36768,3.20306 -33.81219,16.92301 -39.156853,34.78454 -0.592535,1.98021 -1.14465,3.82541 -1.226927,4.10044 -0.114597,0.38308 -2.538795,0.50005 -10.363235,0.50005 H 60.250022 Z"
     id="path865" />
  <path
     style="fill:#ffffff;stroke-width:0.400043"
     d="m 126.41231,437.56433 c -8.8317,-1.19633 -16.74311,-6.24009 -21.53305,-13.72798 -4.10546,-6.41786 -5.54053,-14.25227 -3.99037,-21.78442 1.23041,-5.97849 3.78857,-10.60408 8.34253,-15.08475 3.80003,-3.73885 6.48863,-5.4292 11.32056,-7.11733 4.78466,-1.67162 11.53932,-1.98726 16.37241,-0.76508 10.70163,2.70622 19.09937,10.98893 21.98504,21.68389 1.05341,3.90422 0.97297,10.89768 -0.17169,14.92532 -2.21463,7.79246 -7.22668,14.22852 -14.14971,18.16987 -5.22723,2.97591 -12.53744,4.46423 -18.17572,3.70048 z m 8.14458,-20.47153 c 3.09628,-1.44474 5.70168,-5.61369 5.70168,-9.12337 0,-1.9013 -1.15267,-4.97094 -2.46043,-6.5523 -2.49521,-3.01726 -8.08189,-4.4034 -11.68302,-2.89875 -4.7463,1.98313 -7.3152,7.63224 -5.78827,12.72866 0.54625,1.82324 3.09307,4.87681 4.80646,5.76284 2.80053,1.44821 6.42916,1.48014 9.42358,0.0829 z"
     id="path867" />
  <path
     style="fill:#ffffff;stroke-width:0.400043"
     d="m 20.245749,388.16731 v -9.80104 h 9.801047 9.801046 v 9.80104 9.80105 h -9.801046 -9.801047 z"
     id="path869" />
  <path
     style="fill:#ffffff;stroke-width:0.400043"
     d="m 81.862509,309.25888 c 0.0056,-0.16501 10.789337,-19.38207 23.963861,-42.70456 l 23.95368,-42.40453 42.04319,-0.10184 42.04319,-0.10185 v 42.80641 42.80641 h -66.00705 c -36.30388,0 -66.00247,-0.13502 -65.996871,-0.30004 z"
     id="path871" />
  <path
     style="fill:#ffffff;stroke-width:0.400043"
     d="m 212.33519,196.04679 c 0.12036,-6.87749 0.20626,-7.64116 1.03373,-9.18986 1.41451,-2.64741 3.16139,-4.38601 5.61116,-5.58457 5.83155,-2.85312 12.74189,-0.34548 15.71941,5.7043 0.89908,1.82676 0.97881,2.49807 1.10105,9.27015 l 0.13178,7.30078 h -11.8642 -11.8642 z"
     id="path873" />
  <path
     style="fill:#ffffff;stroke-width:0.400043"
     d="m 234.26861,266.75434 v -42.80457 l 41.90448,0.0132 41.90447,0.0132 22.80244,40.4516 c 12.54134,22.24839 23.39792,41.5045 24.12574,42.79136 l 1.3233,2.33975 h -66.03021 -66.03022 z"
     id="path875" />
  <path
     style="fill:#ffffff;stroke-width:0.400043"
     d="m 234.26861,364.16475 v -33.80361 h 68.80735 68.80735 v 33.80361 33.80361 h -68.80735 -68.80735 z"
     id="path877" />
  <path
     style="fill:#ffffff;stroke-width:0.400043"
     d="m 392.28549,348.93607 v -18.57493 h 46.00927 46.00928 l 1.80677,0.84928 c 0.99372,0.46711 2.43597,1.58436 3.20499,2.48279 2.28505,2.66956 2.58033,4.37808 2.58033,14.92988 v 9.31579 l -16.76785,0.11261 -16.76785,0.11262 -1.69605,1.20013 c -2.42361,1.71495 -3.89707,3.71833 -4.45153,6.05247 l -0.48179,2.02824 -2.75586,-1.78276 c -12.21875,-7.90426 -28.83477,-9.96054 -42.76763,-5.2926 -3.94741,1.3225 -8.72264,3.63505 -11.82186,5.72508 l -2.10022,1.41634 z"
     id="path879" />
  <path
     style="fill:#ffffff;stroke-width:0.400043"
     d="m 418.13775,437.53329 c -6.47923,-0.86729 -12.14441,-3.76625 -17.05132,-8.72542 -3.89751,-3.93903 -5.57713,-6.57826 -7.33961,-11.53296 -1.17859,-3.31329 -1.24646,-3.82192 -1.24163,-9.30548 0.005,-5.29904 0.10117,-6.07735 1.11595,-9.00096 1.64744,-4.74637 3.95466,-8.37361 7.63376,-12.00129 5.80875,-5.72755 11.40512,-8.16827 19.49819,-8.50367 5.85323,-0.24257 9.42945,0.4877 14.26188,2.91231 9.32274,4.67757 15.05451,12.69999 16.51066,23.10901 1.36104,9.72917 -2.93474,20.2003 -10.94674,26.68312 -6.08362,4.92248 -14.78398,7.3903 -22.44114,6.36534 z m 8.46234,-20.46856 c 2.2313,-1.03381 4.35856,-3.55805 5.09862,-6.05011 0.74133,-2.49631 0.74178,-3.5949 0.002,-6.07292 -1.26602,-4.24378 -5.08823,-6.97334 -9.7647,-6.97334 -8.72765,0 -13.29588,10.09115 -7.53235,16.63886 1.79546,2.03975 3.22373,2.88406 5.61495,3.31925 2.21831,0.40371 4.49257,0.10592 6.58108,-0.86174 z"
     id="path881" />
  <path
     style="fill:#ffffff;stroke-width:0.400043"
     d="m 472.29404,388.16731 v -9.80104 h 9.80104 9.80105 v 9.80104 9.80105 h -9.80105 -9.80104 z"
     id="path883" />
</svg>
