<?xml version="1.0" encoding="UTF-8" standalone="no"?>
<svg
   xmlns:dc="http://purl.org/dc/elements/1.1/"
   xmlns:cc="http://creativecommons.org/ns#"
   xmlns:rdf="http://www.w3.org/1999/02/22-rdf-syntax-ns#"
   xmlns:svg="http://www.w3.org/2000/svg"
   xmlns="http://www.w3.org/2000/svg"
   xmlns:sodipodi="http://sodipodi.sourceforge.net/DTD/sodipodi-0.dtd"
   xmlns:inkscape="http://www.inkscape.org/namespaces/inkscape"
   id="Layer_5"
   enable-background="new 0 0 64 64"
   height="512"
   viewBox="0 0 64 64"
   width="512"
   version="1.1"
   sodipodi:docname="police-station.svg"
   inkscape:version="1.0.2-2 (e86c870879, 2021-01-15)">
  <metadata
     id="metadata931">
    <rdf:RDF>
      <cc:Work
         rdf:about="">
        <dc:format>image/svg+xml</dc:format>
        <dc:type
           rdf:resource="http://purl.org/dc/dcmitype/StillImage" />
        <dc:title></dc:title>
      </cc:Work>
    </rdf:RDF>
  </metadata>
  <defs
     id="defs929" />
  <sodipodi:namedview
     pagecolor="#ffffff"
     bordercolor="#666666"
     borderopacity="1"
     objecttolerance="10"
     gridtolerance="10"
     guidetolerance="10"
     inkscape:pageopacity="0"
     inkscape:pageshadow="2"
     inkscape:window-width="3840"
     inkscape:window-height="2050"
     id="namedview927"
     showgrid="false"
     inkscape:pagecheckerboard="true"
     showborder="false"
     inkscape:zoom="1.96875"
     inkscape:cx="256"
     inkscape:cy="252.44444"
     inkscape:window-x="5108"
     inkscape:window-y="-12"
     inkscape:window-maximized="1"
     inkscape:current-layer="Layer_5" />
  <g
     id="g924">
    <path
       d="m60 5h-5v-1c0-1.654-1.346-3-3-3h-40c-1.654 0-3 1.346-3 3v1h-5c-1.654 0-3 1.346-3 3v4c0 1.302.839 2.402 2 2.816v48.184h58v-48.184c1.161-.414 2-1.514 2-2.816v-4c0-1.654-1.346-3-3-3zm-49-1c0-.552.448-1 1-1h40c.552 0 1 .448 1 1v12c0 .552-.448 1-1 1h-40c-.552 0-1-.448-1-1zm-8 4c0-.552.448-1 1-1h5v6h-5c-.552 0-1-.448-1-1zm28 39v14h-6v-14zm2 0h6v14h-6zm8 0h2v-2h-22v2h2v14h-4v-20h26v20h-4zm6-6h4v20h-4zm-36-2v-4h42l.002 4zm6 2v20h-4v-20zm36 20v-20c1.103 0 2-.897 2-2v-4c0-1.103-.897-2-2-2h-42c-1.103 0-2 .897-2 2v4c0 1.103.897 2 2 2v20h-6v-46h4v1c0 1.654 1.346 3 3 3h40c1.654 0 3-1.346 3-3v-1h4v46zm8-49c0 .552-.448 1-1 1h-5v-6h5c.552 0 1 .448 1 1z"
       id="path902" />
    <path
       d="m15 11h1c1.654 0 3-1.346 3-3s-1.346-3-3-3h-3v10h2zm0-4h1c.552 0 1 .448 1 1s-.448 1-1 1h-1z"
       id="path904" />
    <path
       d="m23 15h2c1.103 0 2-.897 2-2v-6c0-1.103-.897-2-2-2h-2c-1.103 0-2 .897-2 2v6c0 1.103.897 2 2 2zm0-8h2l.002 6h-2.002z"
       id="path906" />
    <path
       d="m33 13h-2v-8h-2v10h4z"
       id="path908" />
    <path
       d="m35 5h2v10h-2z"
       id="path910" />
    <path
       d="m42 15c1.654 0 3-1.346 3-3v-1h-2v1c0 .552-.448 1-1 1s-1-.448-1-1v-4c0-.552.448-1 1-1s1 .448 1 1v1h2v-1c0-1.654-1.346-3-3-3s-3 1.346-3 3v4c0 1.654 1.346 3 3 3z"
       id="path912" />
    <path
       d="m51 13h-2v-2h2v-2h-2v-2h2v-2h-4v10h4z"
       id="path914" />
    <path
       d="m13 29h8v-8h-8zm2-6h4v4h-4z"
       id="path916" />
    <path
       d="m23 29h8v-8h-8zm2-6h4v4h-4z"
       id="path918" />
    <path
       d="m33 29h8v-8h-8zm2-6h4v4h-4z"
       id="path920" />
    <path
       d="m43 29h8v-8h-8zm2-6h4v4h-4z"
       id="path922" />
  </g>
  <path
     style="fill:#ffffff;stroke-width:0.507937"
     d="M 40.380952,304 V 120.38095 h 15.746032 15.746032 v 5.48059 c 0,8.87338 1.885521,14.07229 6.935027,19.1218 3.280155,3.28015 7.722586,5.69627 12.229514,6.65131 5.172617,1.0961 324.752273,1.0961 329.924883,0 4.52055,-0.95792 9.12925,-3.46228 12.30644,-6.68729 4.9857,-5.06075 6.8581,-10.27156 6.8581,-19.08582 v -5.48059 h 15.74604 15.74603 V 304 487.61905 H 448 424.38095 v -79.677 -79.67698 l 2.28258,-0.31287 c 4.76259,-0.65278 9.51787,-4.20281 12.01278,-8.96807 1.18925,-2.27148 1.19764,-2.40944 1.34554,-22.14477 0.14224,-18.97865 0.10265,-19.9825 -0.89295,-22.64348 -1.4725,-3.93561 -4.01457,-6.67472 -8.02843,-8.65074 l -3.39657,-1.67212 H 256 84.296099 l -3.39657,1.67212 c -4.01386,1.97602 -6.555926,4.71513 -8.028427,8.65074 -0.995601,2.66098 -1.035188,3.66483 -0.892952,22.64348 0.147907,19.73533 0.15629,19.87329 1.345545,22.14477 2.494905,4.76526 7.250187,8.31529 12.012777,8.96807 l 2.282576,0.31287 v 79.67698 79.677 H 64 40.380952 Z M 168.38095,199.87302 v -32.25397 h -32.25397 -32.25396 v 32.25397 32.25396 h 32.25396 32.25397 z m 79.74603,0 v -32.25397 h -32.25396 -32.25397 v 32.25397 32.25396 h 32.25397 32.25396 z m 80.25397,0 v -32.25397 h -32.25397 -32.25396 v 32.25397 32.25396 h 32.25396 32.25397 z m 79.74603,0 v -32.25397 h -32.25396 -32.25397 v 32.25397 32.25396 h 32.25397 32.25396 z"
     id="path1494"
     transform="scale(0.125)" />
  <path
     style="fill:#ffffff;stroke-width:0.507937"
     d="m 120.12698,200.12698 v -15.74603 h 15.74604 15.74603 v 15.74603 15.74604 h -15.74603 -15.74604 z"
     id="path1496"
     transform="scale(0.125)" />
  <path
     style="fill:#ffffff;stroke-width:0.507937"
     d="m 200.38095,200.12698 v -15.74603 h 15.74603 15.74604 v 15.74603 15.74604 h -15.74604 -15.74603 z"
     id="path1498"
     transform="scale(0.125)" />
  <path
     style="fill:#ffffff;stroke-width:0.507937"
     d="m 280.12698,200.12698 v -15.74603 h 15.74604 15.74603 v 15.74603 15.74604 h -15.74603 -15.74604 z"
     id="path1500"
     transform="scale(0.125)" />
  <path
     style="fill:#ffffff;stroke-width:0.507937"
     d="m 360.38095,200.12698 v -15.74603 h 15.74603 15.74604 v 15.74603 15.74604 h -15.74604 -15.74603 z"
     id="path1502"
     transform="scale(0.125)" />
  <path
     style="fill:#ffffff;stroke-width:0.507937"
     d="m 92.185311,134.47619 c -0.923563,-0.62857 -2.157365,-1.78817 -2.741782,-2.57688 -1.061392,-1.43244 -1.062577,-1.49029 -1.062577,-51.899219 0,-50.408898 0.0012,-50.466783 1.062577,-51.899304 0.584417,-0.788766 1.818219,-1.948406 2.741782,-2.576977 l 1.679205,-1.142858 H 256 418.13548 l 1.67921,1.142858 c 0.92356,0.628571 2.15736,1.788189 2.74178,2.576929 1.06139,1.432474 1.06258,1.490343 1.06258,51.899261 0,50.40892 -0.001,50.46679 -1.06258,51.89926 -0.58442,0.78874 -1.81822,1.94836 -2.74178,2.57693 l -1.67921,1.14286 H 256 93.864516 Z M 120.12698,104.38095 V 88.380952 l 4.69842,-0.0088 c 8.96796,-0.01686 15.47283,-2.379311 20.44348,-7.424772 4.51835,-4.586346 6.8581,-10.368215 6.8581,-16.947342 0,-9.017371 -4.77718,-17.081709 -12.57676,-21.230773 -5.02897,-2.67521 -8.34742,-3.131386 -22.85181,-3.14136 l -12.82539,-0.0088 V 80 120.38095 H 112 h 8.12698 z m 86.97554,14.07391 c 3.99424,-1.96755 6.55389,-4.71516 8.00453,-8.59234 0.97454,-2.60471 1.01993,-3.93367 1.01993,-29.86252 0,-25.928852 -0.0454,-27.25781 -1.01993,-29.862519 -1.45124,-3.878776 -4.01016,-6.624908 -8.00658,-8.592339 L 203.7039,39.873016 H 192 180.2961 l -3.39657,1.672126 c -3.99642,1.967431 -6.55534,4.713563 -8.00658,8.592339 -0.97454,2.604709 -1.01993,3.933667 -1.01993,29.862519 0,25.80068 0.0495,27.2687 1.00556,29.82222 1.2783,3.41418 3.51272,6.1236 6.48801,7.86724 4.07119,2.38587 6.07864,2.67592 17.66201,2.55188 l 10.6794,-0.11436 z M 264.38095,112 v -8.38095 h -8.12698 -8.12699 v -32.000002 -32 H 240 231.87302 V 80 120.38095 h 16.25396 16.25397 z m 32,-32 V 39.619048 H 288 279.61905 V 80 120.38095 H 288 h 8.38095 z m 43.97021,39.83046 c 7.26526,-1.32701 14.26904,-6.63678 17.36351,-13.16379 1.93631,-4.08417 2.66628,-7.933916 2.66628,-14.061545 V 87.873016 H 352 343.61905 v 4.960305 c 0,5.48547 -0.72891,7.607279 -3.26338,9.499539 -1.99504,1.48951 -6.58231,1.43667 -8.73749,-0.10064 -3.16557,-2.258013 -3.23723,-2.749401 -3.23723,-22.198315 0,-19.443568 0.0803,-20.014659 3.11714,-22.180619 2.2759,-1.62322 6.80529,-1.718407 8.85758,-0.186146 2.53447,1.892256 3.26338,4.014067 3.26338,9.499538 v 4.960306 H 352 h 8.38095 v -4.73211 c 0,-2.60266 -0.24772,-6.088374 -0.55049,-7.746031 -1.82073,-9.968307 -9.98849,-17.892721 -20.17635,-19.575209 -12.61273,-2.082949 -25.16107,6.854298 -27.48457,19.575209 -0.73116,4.003026 -0.73116,36.699287 0,40.702317 2.02271,11.07415 12.01294,19.61725 23.35622,19.97298 0.99631,0.0312 3.16774,-0.19091 4.8254,-0.49368 z M 408.12698,112 v -8.38095 h -7.87301 -7.87302 V 96 88.380952 h 7.87302 7.87301 V 80 71.619048 h -7.87301 -7.87302 V 64 56.380952 h 7.87302 7.87301 V 48 39.619048 H 391.87302 375.61905 V 80 120.38095 h 16.25397 16.25396 z"
     id="path1504"
     transform="scale(0.125)" />
  <path
     style="fill:#ffffff;stroke-width:0.507937"
     d="M 184.12698,80 V 56.380952 H 192 199.87302 V 80 103.61905 H 192 184.12698 Z"
     id="path1506"
     transform="scale(0.125)" />
  <path
     style="fill:#ffffff;stroke-width:0.507937"
     d="m 28.185311,102.47619 c -0.923563,-0.62857 -2.157365,-1.78808 -2.741782,-2.576682 -1.032364,-1.393057 -1.062577,-1.958851 -1.062577,-19.898969 0,-17.939946 0.03022,-18.50594 1.062577,-19.899508 0.584417,-0.7889 1.818219,-1.94865 2.741782,-2.577221 1.67455,-1.139689 1.737437,-1.142858 22.683455,-1.142858 h 21.00425 V 80 103.61905 h -21.00425 c -20.946018,0 -21.008905,-0.003 -22.683455,-1.14286 z"
     id="path1508"
     transform="scale(0.125)" />
  <path
     style="fill:#ffffff;stroke-width:0.507937"
     d="M 440.12698,80 V 56.380952 h 21.00425 c 20.94602,0 21.00891,0.0032 22.68346,1.142858 0.92356,0.628571 2.15736,1.788189 2.74178,2.576929 1.03236,1.393291 1.06258,1.959177 1.06258,19.899261 0,17.940084 -0.0302,18.50597 -1.06258,19.899261 -0.58442,0.788739 -1.81822,1.948359 -2.74178,2.576929 -1.67455,1.13969 -1.73744,1.14286 -22.68346,1.14286 h -21.00425 z"
     id="path1510"
     transform="scale(0.125)" />
  <path
     style="fill:#ffffff;stroke-width:0.507937"
     d="M 88.126984,296.12698 V 280.38095 H 256 423.87302 v 15.74603 15.74604 H 256 88.126984 Z"
     id="path1512"
     transform="scale(0.125)" />
  <path
     style="fill:#ffffff;stroke-width:0.507937"
     d="m 104.38095,407.87302 v -79.74604 h 15.74603 15.74604 v 79.74604 79.74603 h -15.74604 -15.74603 z"
     id="path1514"
     transform="scale(0.125)" />
  <path
     style="fill:#ffffff;stroke-width:0.507937"
     d="M 152.12698,407.87302 V 328.12698 H 256 359.87302 v 79.74604 79.74603 H 344.12698 328.38095 V 432 376.38095 h 7.87302 7.87301 V 368 359.61905 H 256 167.87302 V 368 v 8.38095 h 7.87301 7.87302 V 432 487.61905 h -15.74603 -15.74604 z"
     id="path1516"
     transform="scale(0.125)" />
  <path
     style="fill:#ffffff;stroke-width:0.507937"
     d="M 200.38095,432 V 376.38095 H 224 247.61905 V 432 487.61905 H 224 200.38095 Z"
     id="path1518"
     transform="scale(0.125)" />
  <path
     style="fill:#ffffff;stroke-width:0.507937"
     d="M 264.38095,432 V 376.38095 H 288 311.61905 V 432 487.61905 H 288 264.38095 Z"
     id="path1520"
     transform="scale(0.125)" />
  <path
     style="fill:#ffffff;stroke-width:0.507937"
     d="m 376.12698,407.87302 v -79.74604 h 15.74604 15.74603 v 79.74604 79.74603 h -15.74603 -15.74604 z"
     id="path1522"
     transform="scale(0.125)" />
</svg>
