<?xml version="1.0" encoding="UTF-8" standalone="no"?>
<svg
   xmlns:dc="http://purl.org/dc/elements/1.1/"
   xmlns:cc="http://creativecommons.org/ns#"
   xmlns:rdf="http://www.w3.org/1999/02/22-rdf-syntax-ns#"
   xmlns:svg="http://www.w3.org/2000/svg"
   xmlns="http://www.w3.org/2000/svg"
   xmlns:sodipodi="http://sodipodi.sourceforge.net/DTD/sodipodi-0.dtd"
   xmlns:inkscape="http://www.inkscape.org/namespaces/inkscape"
   id="Capa_1"
   enable-background="new 0 0 512.8 512.8"
   height="512"
   viewBox="0 0 512.8 512.8"
   width="512"
   version="1.1"
   sodipodi:docname="police.svg"
   inkscape:version="1.0.2-2 (e86c870879, 2021-01-15)">
  <metadata
     id="metadata857">
    <rdf:RDF>
      <cc:Work
         rdf:about="">
        <dc:format>image/svg+xml</dc:format>
        <dc:type
           rdf:resource="http://purl.org/dc/dcmitype/StillImage" />
        <dc:title></dc:title>
      </cc:Work>
    </rdf:RDF>
  </metadata>
  <defs
     id="defs855" />
  <sodipodi:namedview
     pagecolor="#ffffff"
     bordercolor="#666666"
     borderopacity="1"
     objecttolerance="10"
     gridtolerance="10"
     guidetolerance="10"
     inkscape:pageopacity="0"
     inkscape:pageshadow="2"
     inkscape:window-width="3840"
     inkscape:window-height="2050"
     id="namedview853"
     showgrid="false"
     inkscape:pagecheckerboard="true"
     showborder="false"
     inkscape:zoom="1.96875"
     inkscape:cx="256"
     inkscape:cy="252.44444"
     inkscape:window-x="5108"
     inkscape:window-y="-12"
     inkscape:window-maximized="1"
     inkscape:current-layer="Capa_1" />
  <g
     id="g850">
    <path
       d="m418.9 241.8h-17.5v-44.504c13.045-15.791 46.79-59.35 46.79-87.337 0-27.798-17.732-52.348-44.127-61.09l-147.663-48.869-147.667 48.87c-26.391 8.741-44.123 33.291-44.123 61.089 0 27.987 33.745 71.546 46.79 87.337v44.504h-17.5c-26.191 0-47.5 21.309-47.5 47.5v32.5c0 26.191 21.309 47.5 47.5 47.5h17.519c.809 79.264 65.529 143.5 144.981 143.5s144.172-64.236 144.981-143.5h17.519c26.191 0 47.5-21.309 47.5-47.5v-32.5c0-26.192-21.309-47.5-47.5-47.5zm-277.5-34.968h230v17.451c0 18.628-15.155 33.782-33.783 33.782h-162.434c-18.628 0-33.783-15.154-33.783-33.782zm-23.237-129.482 138.237-45.75 138.233 45.749c14.09 4.667 23.557 17.771 23.557 32.61 0 13.574-21.771 45.928-38.813 66.873h-245.958c-17.043-20.928-38.809-53.266-38.809-66.873 0-14.839 9.466-27.943 23.553-32.609zm-41.763 244.45v-32.5c0-9.649 7.851-17.5 17.5-17.5h17.5v67.5h-17.5c-9.649 0-17.5-7.851-17.5-17.5zm180 161c-63.411 0-115-51.589-115-115v-89.452c9.804 6.148 21.381 9.718 33.783 9.718h162.435c12.401 0 23.979-3.57 33.783-9.718v89.452c-.001 63.411-51.59 115-115.001 115zm180-161c0 9.649-7.851 17.5-17.5 17.5h-17.5v-67.5h17.5c9.649 0 17.5 7.851 17.5 17.5z"
       id="path846" />
    <path
       d="m256.4 155.8c26.191 0 47.5-21.309 47.5-47.5s-21.309-47.5-47.5-47.5-47.5 21.309-47.5 47.5 21.308 47.5 47.5 47.5zm0-65c9.649 0 17.5 7.851 17.5 17.5s-7.851 17.5-17.5 17.5-17.5-7.851-17.5-17.5 7.851-17.5 17.5-17.5z"
       id="path848" />
  </g>
  <path
     style="fill:#ffffff;stroke-width:0.507937"
     d="m 131.80952,174.35402 c -12.33546,-15.38012 -26.45998,-36.7902 -31.983251,-48.48055 -4.730628,-10.01266 -5.867355,-16.03243 -4.348981,-23.03093 1.991277,-9.1782 8.703002,-18.232874 16.862332,-22.748687 2.15544,-1.192937 26.37451,-9.441438 73.44373,-25.013371 l 70.2278,-23.233496 70.21665,23.228159 c 55.14873,18.243588 71.01595,23.68008 73.94142,25.334117 2.42078,1.368686 5.02376,3.465582 7.43522,5.989631 8.34522,8.734842 11.51594,20.653237 8.16254,30.682077 -4.34444,12.99265 -18.76866,36.19815 -35.65582,57.36261 l -1.44449,1.81036 H 256 133.33333 Z m 130.03175,-18.96196 c 9.69309,-1.14837 19.38129,-5.69562 26.66426,-12.51515 8.2983,-7.77025 13.24528,-17.45266 14.76967,-28.90775 1.49615,-11.2429 -1.73148,-24.143403 -8.35193,-33.381742 -2.6023,-3.631319 -8.6365,-9.568625 -12.16858,-11.973179 -3.54623,-2.414193 -10.3648,-5.495814 -14.92801,-6.746643 -5.69838,-1.561995 -17.95498,-1.561995 -23.65336,0 -4.56321,1.250829 -11.38178,4.33245 -14.92801,6.746643 -3.53208,2.404554 -9.56628,8.34186 -12.16858,11.973179 -8.47095,11.820587 -10.92647,27.811032 -6.45118,42.010432 4.49428,14.25964 15.75251,25.73682 30.00303,30.58654 7.31487,2.48938 13.44752,3.12763 21.21269,2.20767 z"
     id="path859"
     transform="scale(1.0015625)" />
  <path
     style="fill:#ffffff;stroke-width:0.507937"
     d="m 251.90062,124.7959 c -12.63857,-3.57166 -17.21313,-18.5121 -8.56533,-27.974177 3.77917,-4.135007 7.17036,-5.64712 12.66471,-5.64712 5.49435,0 8.88554,1.512113 12.66471,5.64712 6.01656,6.583077 5.92609,16.181117 -0.2166,22.980347 -3.85236,4.2641 -11.2402,6.49366 -16.54749,4.99383 z"
     id="path861"
     transform="scale(1.0015625)" />
  <path
     style="fill:#ffffff;stroke-width:0.507937"
     d="m 168.64237,256.74436 c -9.56625,-1.73048 -19.04914,-8.86589 -23.28847,-17.52346 -3.29226,-6.72343 -3.70631,-8.93698 -4.011,-21.44312 l -0.26915,-11.04762 H 256 370.92625 l -0.26915,11.04762 c -0.30469,12.50614 -0.71874,14.71969 -4.01099,21.44312 -4.29817,8.77771 -13.71994,15.80171 -23.535,17.54552 -5.88398,1.04539 -168.68156,1.0248 -174.46874,-0.0221 z"
     id="path863"
     transform="scale(1.0015625)" />
  <path
     style="fill:#ffffff;stroke-width:0.507937"
     d="m 248.88889,481.45971 c -30.61869,-1.72059 -60.40815,-16.74511 -80.33553,-40.51779 -14.08344,-16.80106 -22.80173,-36.43404 -26.18806,-58.97367 -0.67429,-4.48811 -0.83587,-13.11799 -1.01957,-54.45482 l -0.2183,-49.12148 4.96506,2.52787 c 5.55138,2.82638 10.58514,4.54843 17.2731,5.90914 4.2431,0.86329 9.67533,0.91707 92.63441,0.91707 82.95908,0 88.39131,-0.0538 92.63441,-0.91707 6.61911,-1.3467 11.62892,-3.05185 17.24624,-5.86996 l 4.99176,-2.50428 -0.21821,49.0901 c -0.23307,52.42966 -0.24429,52.67984 -2.8957,64.58216 -7.49607,33.65026 -30.58919,62.7907 -61.83273,78.02468 -17.7558,8.65752 -36.84739,12.44259 -57.03688,11.30805 z"
     id="path865"
     transform="scale(1.0015625)" />
  <path
     style="fill:#ffffff;stroke-width:0.507937"
     d="m 87.370633,337.16258 c -3.892626,-1.49417 -8.109327,-5.77932 -9.595364,-9.75111 -1.095935,-2.92914 -1.116893,-3.42765 -0.971494,-23.10736 l 0.148606,-20.11363 1.248119,-2.53969 c 1.594977,-3.24547 5.157202,-6.80769 8.402675,-8.40267 2.41513,-1.18691 3.069032,-1.25612 13.333333,-1.41124 l 10.793652,-0.16312 v 33.30598 33.30597 l -10.28572,-0.0265 c -9.200319,-0.0237 -10.579921,-0.1394 -13.073807,-1.09667 z"
     id="path867"
     transform="scale(1.0015625)" />
  <path
     style="fill:#ffffff;stroke-width:0.507937"
     d="m 401.26984,304.97974 v -33.30598 l 10.79365,0.16312 c 10.2643,0.15512 10.91821,0.22433 13.33334,1.41124 3.24547,1.59498 6.80769,5.1572 8.40267,8.40267 l 1.24812,2.53969 0.1486,20.11363 c 0.1454,19.67971 0.12445,20.17822 -0.97149,23.10736 -1.52302,4.07064 -5.70196,8.26509 -9.73959,9.77577 -2.64943,0.99127 -3.92546,1.09847 -13.07562,1.09847 h -10.13968 z"
     id="path869"
     transform="scale(1.0015625)" />
</svg>
