<?xml version="1.0" encoding="UTF-8" standalone="no"?>
<svg
   xmlns:dc="http://purl.org/dc/elements/1.1/"
   xmlns:cc="http://creativecommons.org/ns#"
   xmlns:rdf="http://www.w3.org/1999/02/22-rdf-syntax-ns#"
   xmlns:svg="http://www.w3.org/2000/svg"
   xmlns="http://www.w3.org/2000/svg"
   xmlns:sodipodi="http://sodipodi.sourceforge.net/DTD/sodipodi-0.dtd"
   xmlns:inkscape="http://www.inkscape.org/namespaces/inkscape"
   version="1.1"
   id="Capa_1"
   x="0px"
   y="0px"
   viewBox="0 0 512 512"
   style="enable-background:new 0 0 512 512;"
   xml:space="preserve"
   sodipodi:docname="police-swat.svg"
   inkscape:version="1.0.2-2 (e86c870879, 2021-01-15)"><metadata
   id="metadata917"><rdf:RDF><cc:Work
       rdf:about=""><dc:format>image/svg+xml</dc:format><dc:type
         rdf:resource="http://purl.org/dc/dcmitype/StillImage" /><dc:title></dc:title></cc:Work></rdf:RDF></metadata><defs
   id="defs915" /><sodipodi:namedview
   pagecolor="#ffffff"
   bordercolor="#666666"
   borderopacity="1"
   objecttolerance="10"
   gridtolerance="10"
   guidetolerance="10"
   inkscape:pageopacity="0"
   inkscape:pageshadow="2"
   inkscape:window-width="3840"
   inkscape:window-height="2050"
   id="namedview913"
   showgrid="false"
   inkscape:pagecheckerboard="true"
   showborder="false"
   inkscape:zoom="1.96875"
   inkscape:cx="256"
   inkscape:cy="252.44444"
   inkscape:window-x="5108"
   inkscape:window-y="-12"
   inkscape:window-maximized="1"
   inkscape:current-layer="Capa_1" />
<g
   id="g880">
	<g
   id="g878">
		<path
   d="M493.765,229.25c-11.575-11.23-26.762-17.415-42.765-17.415h-0.571c-7.684-100.542-91.952-180-194.429-180    c-103.002,0-187.702,79.458-195.426,180H60c-33.084,0-60,26.916-60,60s26.916,60,60,60v60h61v54.271    c4.859,1.814,57.643,34.058,135,34.058c77.097,0,130.44-32.355,135-34.058v-54.271h60v-60c16.003,0,31.19-6.185,42.765-17.415    C505.524,303.013,512,287.888,512,271.836C512,255.782,505.524,240.659,493.765,229.25z M60,301.836c-16.542,0-30-13.458-30-30    s13.458-30,30-30V301.836z M361,427.375c-23.787,10.817-48.965,17.736-74.534,20.803l42.015-63.022l-24.962-16.641l-54.277,81.415    c-33.639-0.888-67.128-8.406-98.242-22.555v-185.54h56.972l-24.453,36.68l24.962,16.641l35.547-53.32h43.944l-104.453,156.68    l24.962,16.641l115.547-173.32H361V427.375z M421,361.836h-30v-150H121v150H90c0-16.905,0-120.523,0-135    c0-90.981,74.467-165,166-165c90.981,0,165,74.019,165,165C421,240.633,421,344.099,421,361.836z M451,301.836v-60    c16.804,0,31,13.738,31,30C482,288.097,467.804,301.836,451,301.836z"
   id="path876" />
	</g>
</g>
<g
   id="g882">
</g>
<g
   id="g884">
</g>
<g
   id="g886">
</g>
<g
   id="g888">
</g>
<g
   id="g890">
</g>
<g
   id="g892">
</g>
<g
   id="g894">
</g>
<g
   id="g896">
</g>
<g
   id="g898">
</g>
<g
   id="g900">
</g>
<g
   id="g902">
</g>
<g
   id="g904">
</g>
<g
   id="g906">
</g>
<g
   id="g908">
</g>
<g
   id="g910">
</g>
<path
   style="fill:#ffffff;stroke-width:0.507937"
   d="m 90.413123,289.65079 c 2.63e-4,-44.68654 0.195961,-74.11956 0.515871,-77.5873 4.13285,-44.79901 26.427766,-85.71558 62.213866,-114.177532 51.86152,-41.247303 124.37083,-47.323007 182.22895,-15.269341 13.78469,7.636783 24.74252,15.931354 36.46934,27.605603 9.58091,9.53797 14.30823,15.27068 21.56359,26.14969 14.84603,22.26077 23.89396,47.85606 26.64133,75.36445 0.33477,3.35183 0.52536,31.4997 0.52536,77.5873 v 72.32713 H 405.84127 391.11111 V 286.73016 211.80952 H 256 120.88889 v 74.92064 74.92063 h -15.2381 -15.238092 z"
   id="path2135" /><path
   style="fill:#ffffff;stroke-width:0.507937"
   d="M 55.365079,301.1958 C 43.77095,299.1719 34.189306,290.35964 31.230213,278.99892 c -0.985134,-3.78219 -0.961083,-10.62113 0.05115,-14.54465 2.020767,-7.83271 8.054936,-15.3887 15.047613,-18.84263 4.30221,-2.12501 8.393394,-3.31136 11.448801,-3.3199 l 2.15873,-0.006 V 272 301.71429 l -1.142857,-0.0598 c -0.628572,-0.0329 -2.171429,-0.23929 -3.428572,-0.45874 z"
   id="path2137" /><path
   style="fill:#ffffff;stroke-width:0.507937"
   d="m 235.68254,448.96739 c -28.07808,-2.42485 -57.97301,-9.94205 -81.39683,-20.46759 l -2.92063,-1.31239 v -92.45085 -92.45085 h 27.94015 27.94015 l -11.71878,17.56721 c -6.44533,9.66197 -11.83715,17.87569 -11.98183,18.25272 -0.17469,0.45523 3.80323,3.39484 11.84212,8.75114 6.65785,4.4361 12.3586,8.21592 12.66835,8.39959 0.34443,0.20424 7.44678,-10.01272 18.28572,-26.3046 l 17.72253,-26.63855 21.46032,-0.0137 c 11.80317,-0.008 21.46032,0.1011 21.46032,0.24147 0,0.14037 -23.31429,35.22552 -51.80953,77.967 -28.49523,42.74147 -51.80952,77.82523 -51.80952,77.96391 0,0.55166 25.13371,16.97623 25.44768,16.62974 0.18513,-0.20428 26.19261,-39.17143 57.79442,-86.59365 l 57.45783,-86.22223 h 18.28632 18.28632 l -0.12835,92.56977 -0.12835,92.56976 -7.11111,2.96906 c -17.7221,7.39937 -41.76321,14.04422 -59.93651,16.56616 -2.23492,0.31015 -4.58238,0.67643 -5.21658,0.81397 -0.89539,0.19417 3.50331,-6.73314 19.68254,-30.99718 11.4596,-17.18598 20.8294,-31.42006 20.82178,-31.63129 -0.0207,-0.57538 -24.85966,-16.96145 -25.29927,-16.68976 -0.20856,0.1289 -12.48413,18.41546 -27.27907,40.63682 l -26.89987,40.40247 -4.31746,-0.0557 c -2.37461,-0.0306 -6.48889,-0.24322 -9.14286,-0.47241 z"
   id="path2139" /><path
   style="fill:#ffffff;stroke-width:0.507937"
   d="m 451.04762,271.97812 v -29.83149 l 3.1746,0.26456 c 11.92277,0.99361 22.98447,10.25901 26.49075,22.18894 1.01707,3.46056 1.04508,10.5378 0.0564,14.25317 -1.32488,4.97876 -3.80514,9.14163 -7.87686,13.22056 -5.42922,5.43882 -11.55306,8.44039 -19.17822,9.40012 l -2.66667,0.33564 z"
   id="path2141" /></svg>
