<?xml version="1.0" encoding="UTF-8" standalone="no"?>
<svg
   xmlns:dc="http://purl.org/dc/elements/1.1/"
   xmlns:cc="http://creativecommons.org/ns#"
   xmlns:rdf="http://www.w3.org/1999/02/22-rdf-syntax-ns#"
   xmlns:svg="http://www.w3.org/2000/svg"
   xmlns="http://www.w3.org/2000/svg"
   xmlns:sodipodi="http://sodipodi.sourceforge.net/DTD/sodipodi-0.dtd"
   xmlns:inkscape="http://www.inkscape.org/namespaces/inkscape"
   id="Capa_1"
   enable-background="new 0 0 512.101 512.101"
   height="512"
   viewBox="0 0 512.101 512.101"
   width="512"
   version="1.1"
   sodipodi:docname="power-button.svg"
   inkscape:version="1.0.2-2 (e86c870879, 2021-01-15)">
  <metadata
     id="metadata861">
    <rdf:RDF>
      <cc:Work
         rdf:about="">
        <dc:format>image/svg+xml</dc:format>
        <dc:type
           rdf:resource="http://purl.org/dc/dcmitype/StillImage" />
      </cc:Work>
    </rdf:RDF>
  </metadata>
  <defs
     id="defs859" />
  <sodipodi:namedview
     pagecolor="#ffffff"
     bordercolor="#666666"
     borderopacity="1"
     objecttolerance="10"
     gridtolerance="10"
     guidetolerance="10"
     inkscape:pageopacity="0"
     inkscape:pageshadow="2"
     inkscape:window-width="3840"
     inkscape:window-height="2050"
     id="namedview857"
     showgrid="false"
     inkscape:zoom="1.96875"
     inkscape:cx="256"
     inkscape:cy="252.44444"
     inkscape:window-x="5108"
     inkscape:window-y="-12"
     inkscape:window-maximized="1"
     inkscape:current-layer="Capa_1" />
  <g
     id="g854">
    <path
       d="m436.862 75.238c-100.3-100.301-261.29-100.335-361.624 0-100.301 100.3-100.335 261.29 0 361.624 100.3 100.301 261.29 100.335 361.624 0 100.301-100.299 100.335-261.29 0-361.624zm-180.812 406.812c-124.617 0-226-101.383-226-226s101.383-226 226-226 226 101.383 226 226-101.383 226-226 226z"
       id="path848" />
    <path
       d="m329.703 173.005c-6.197-5.499-15.677-4.934-21.176 1.263-5.499 6.196-4.934 15.677 1.263 21.176 17.324 15.375 27.26 37.465 27.26 60.607 0 44.664-36.336 81-81 81s-81-36.336-81-81c0-23.371 10.101-45.606 27.712-61.005 6.236-5.453 6.872-14.929 1.418-21.166-5.453-6.237-14.929-6.871-21.166-1.418-24.127 21.096-37.965 51.563-37.965 83.589 0 61.206 49.794 111 111 111s111-49.794 111-111c.001-31.714-13.611-61.982-37.346-83.046z"
       id="path850" />
    <path
       d="m256.05 231.05c8.284 0 15-6.716 15-15v-80c0-8.284-6.716-15-15-15s-15 6.716-15 15v80c0 8.285 6.716 15 15 15z"
       id="path852" />
  </g>
  <path
     style="fill:#ffffff;stroke-width:0.507937"
     d="m 237.46032,480.94882 c -45.1664,-3.8712 -87.31582,-20.82211 -123.13485,-49.5202 -8.12922,-6.51312 -20.589587,-18.51624 -28.017356,-26.98926 -32.189469,-36.71922 -51.175771,-81.6588 -55.309871,-130.91555 -0.658221,-7.84254 -0.658221,-27.20508 0,-35.04762 3.999776,-47.65631 21.532707,-90.44755 52.199243,-127.39859 4.957922,-5.97396 17.715954,-18.998484 24.105484,-24.609008 34.54587,-30.334105 77.05632,-49.21241 123.3002,-54.755927 9.2628,-1.110383 32.33908,-1.532196 41.9686,-0.767147 39.15325,3.110658 74.70972,15.221793 107.11077,36.483743 21.35214,14.011521 40.96017,32.426292 56.80298,53.346179 22.59884,29.84101 37.90282,66.9059 42.97889,104.09109 1.57996,11.57414 2.04892,18.7 2.04892,31.13347 0,12.44929 -0.46723,19.5343 -2.06005,31.2381 -5.54148,40.71807 -23.14676,80.46455 -49.98345,112.84493 -10.12847,12.22071 -25.25144,26.60313 -38.10475,36.23881 -34.66899,25.99012 -74.33104,41.02812 -117.84127,44.67992 -7.17035,0.6018 -28.79476,0.57006 -36.06349,-0.0529 z m 28.99114,-114.25065 c 20.55823,-2.00051 39.81095,-9.46099 56.49509,-21.89199 6.29881,-4.69312 17.15712,-15.54401 21.77343,-21.75856 29.83462,-40.16385 29.97811,-93.80398 0.35752,-133.64777 -5.66978,-7.62664 -14.8276,-16.83071 -18.64327,-18.73742 -5.46653,-2.73166 -12.27367,-1.88344 -16.79023,2.09219 -3.35094,2.94961 -5.05194,6.75524 -5.04926,11.29658 0.003,5.40154 1.18104,7.58182 7.70965,14.27114 6.04027,6.18895 9.86106,11.10472 13.48461,17.34909 21.45916,36.98003 10.2282,84.06752 -25.69388,107.72545 -26.86161,17.69079 -61.32863,17.69079 -88.19024,0 -35.92208,-23.65793 -47.15304,-70.74542 -25.69388,-107.72545 3.62672,-6.24984 7.31682,-10.9775 13.69508,-17.5458 6.84496,-7.04891 8.02828,-9.18381 8.0507,-14.52469 0.0188,-4.48724 -1.73591,-8.39937 -5.09284,-11.35426 -2.85479,-2.51288 -6.00845,-3.61176 -10.36536,-3.61176 -5.2961,0 -8.15152,1.70014 -15.55939,9.26417 -12.51996,12.78391 -20.91049,26.39831 -26.3739,42.79408 -11.60866,34.83778 -5.47641,72.55639 16.62423,102.25338 4.64434,6.24069 15.4893,17.08472 21.76286,21.76101 22.58657,16.83596 50.13625,24.65327 77.49908,21.99061 z m -5.08163,-136.43831 c 1.71072,-0.58175 3.41351,-1.76062 5.37867,-3.72373 4.75223,-4.74728 4.4896,-1.78902 4.4896,-50.56999 0,-48.71431 0.27235,-45.68981 -4.5513,-50.54346 -3.23903,-3.25919 -6.24346,-4.53379 -10.6868,-4.53379 -4.44334,0 -7.44777,1.2746 -10.6868,4.53379 -4.82365,4.85365 -4.5513,1.82915 -4.5513,50.54346 0,48.78247 -0.2631,45.82028 4.49214,50.57552 1.81033,1.81032 3.72504,3.17689 5.1612,3.68364 3.03262,1.07005 7.8648,1.0853 10.95459,0.0345 z"
     id="path863"
     transform="scale(1.0001973)" />
</svg>
