<?xml version="1.0" encoding="UTF-8" standalone="no"?>
<svg
   xmlns:dc="http://purl.org/dc/elements/1.1/"
   xmlns:cc="http://creativecommons.org/ns#"
   xmlns:rdf="http://www.w3.org/1999/02/22-rdf-syntax-ns#"
   xmlns:svg="http://www.w3.org/2000/svg"
   xmlns="http://www.w3.org/2000/svg"
   xmlns:sodipodi="http://sodipodi.sourceforge.net/DTD/sodipodi-0.dtd"
   xmlns:inkscape="http://www.inkscape.org/namespaces/inkscape"
   version="1.1"
   id="Capa_1"
   x="0px"
   y="0px"
   viewBox="0 0 512 512"
   style="enable-background:new 0 0 512 512;"
   xml:space="preserve"
   sodipodi:docname="quiet.svg"
   inkscape:version="1.0.2-2 (e86c870879, 2021-01-15)"><metadata
   id="metadata977"><rdf:RDF><cc:Work
       rdf:about=""><dc:format>image/svg+xml</dc:format><dc:type
         rdf:resource="http://purl.org/dc/dcmitype/StillImage" /></cc:Work></rdf:RDF></metadata><defs
   id="defs975" /><sodipodi:namedview
   pagecolor="#ffffff"
   bordercolor="#666666"
   borderopacity="1"
   objecttolerance="10"
   gridtolerance="10"
   guidetolerance="10"
   inkscape:pageopacity="0"
   inkscape:pageshadow="2"
   inkscape:window-width="3840"
   inkscape:window-height="2050"
   id="namedview973"
   showgrid="false"
   inkscape:zoom="1.96875"
   inkscape:cx="256"
   inkscape:cy="252.44444"
   inkscape:window-x="5108"
   inkscape:window-y="-12"
   inkscape:window-maximized="1"
   inkscape:current-layer="Capa_1" />
<g
   id="g910">
	<g
   id="g908">
		<path
   d="M160,149.333c-17.643,0-32,14.357-32,32c0,17.643,14.357,32,32,32s32-14.357,32-32    C192,163.691,177.643,149.333,160,149.333z M160,192c-5.867,0-10.667-4.779-10.667-10.667s4.8-10.667,10.667-10.667    c5.867,0,10.667,4.779,10.667,10.667S165.867,192,160,192z"
   id="path906" />
	</g>
</g>
<g
   id="g916">
	<g
   id="g914">
		<path
   d="M352,149.333c-17.643,0-32,14.357-32,32c0,17.643,14.357,32,32,32c17.643,0,32-14.357,32-32    C384,163.691,369.643,149.333,352,149.333z M352,192c-5.867,0-10.667-4.779-10.667-10.667s4.8-10.667,10.667-10.667    c5.867,0,10.667,4.779,10.667,10.667S357.867,192,352,192z"
   id="path912" />
	</g>
</g>
<g
   id="g922">
	<g
   id="g920">
		<path
   d="M309.333,341.333h-42.667c-5.888,0-10.667,4.779-10.667,10.667c0,5.888,4.779,10.667,10.667,10.667h42.667    c5.888,0,10.667-4.779,10.667-10.667C320,346.112,315.221,341.333,309.333,341.333z"
   id="path918" />
	</g>
</g>
<g
   id="g928">
	<g
   id="g926">
		<path
   d="M256,0C114.837,0,0,114.837,0,256c0,85.376,42.347,164.821,113.323,212.544c4.864,3.285,11.52,2.005,14.805-2.901    c3.285-4.885,1.984-11.52-2.901-14.805C60.16,407.104,21.333,334.251,21.333,256c0-129.387,105.28-234.667,234.667-234.667    S490.667,126.613,490.667,256S385.387,490.667,256,490.667c-11.285,0-23.424-1.045-37.077-3.221    c-5.696-0.939-11.285,3.029-12.203,8.853c-0.917,5.824,3.051,11.285,8.875,12.203C230.357,510.869,243.563,512,256,512    c141.163,0,256-114.837,256-256S397.163,0,256,0z"
   id="path924" />
	</g>
</g>
<g
   id="g934">
	<g
   id="g932">
		<path
   d="M224,341.333h-21.333c-5.888,0-10.667,4.779-10.667,10.667c0,5.888,4.779,10.667,10.667,10.667H224    c5.888,0,10.667-4.779,10.667-10.667C234.667,346.112,229.888,341.333,224,341.333z"
   id="path930" />
	</g>
</g>
<g
   id="g940">
	<g
   id="g938">
		<path
   d="M245.333,298.667c-17.643,0-32,14.357-32,32v53.739C203.584,384.064,192.171,384,192,384    c-47.061,0-85.333,28.715-85.333,64c0,35.285,38.272,64,85.333,64s85.333-28.715,85.333-64V330.667    C277.333,313.024,262.976,298.667,245.333,298.667z M256,448c0,23.125-29.312,42.667-64,42.667S128,471.125,128,448    c0-23.125,29.312-42.667,64-42.667c6.699,0,26.88,0.427,29.888,0.875c3.072,0.597,6.4-0.171,8.853-2.219    c2.496-2.027,3.925-5.056,3.925-8.256v-65.067c0-5.888,4.8-10.667,10.667-10.667C251.2,320,256,324.779,256,330.667V448z"
   id="path936" />
	</g>
</g>
<g
   id="g942">
</g>
<g
   id="g944">
</g>
<g
   id="g946">
</g>
<g
   id="g948">
</g>
<g
   id="g950">
</g>
<g
   id="g952">
</g>
<g
   id="g954">
</g>
<g
   id="g956">
</g>
<g
   id="g958">
</g>
<g
   id="g960">
</g>
<g
   id="g962">
</g>
<g
   id="g964">
</g>
<g
   id="g966">
</g>
<g
   id="g968">
</g>
<g
   id="g970">
</g>
<path
   style="fill:#ffffff;stroke-width:0.507937"
   d="m 261.33333,485.51484 c 7.1426,-7.49887 11.77008,-15.22612 14.55718,-24.30849 l 1.16904,-3.80952 0.15191,-47.36508 0.15192,-47.36508 h 17.52902 c 16.23124,0 17.66854,-0.0716 19.41355,-0.96644 C 318.12395,359.74224 320,356.54625 320,352 c 0,-4.54625 -1.87605,-7.74224 -5.69405,-9.70023 -1.7451,-0.89493 -3.18257,-0.96644 -19.42857,-0.96644 h -17.54405 v -7.7663 c 0,-8.87288 -0.56572,-11.81621 -3.38867,-17.63052 -2.71336,-5.5886 -8.5783,-11.33812 -14.3891,-14.10594 -5.21595,-2.48448 -8.27006,-3.1639 -14.22223,-3.1639 -5.95216,0 -9.00627,0.67942 -14.22222,3.1639 -6.09808,2.90466 -11.70922,8.51579 -14.61388,14.61387 -2.69999,5.66841 -3.1639,8.20427 -3.1639,17.29485 v 7.59404 h -6.88236 c -7.26012,0 -8.70984,0.34895 -11.3258,2.72608 -4.07377,3.70187 -4.26769,11.22483 -0.39909,15.48209 2.369,2.60699 4.31391,3.12517 11.72987,3.12517 h 6.87738 V 373.33333 384 H 198.2089 c -8.31844,0 -17.0613,0.23413 -19.42857,0.52029 -34.13229,4.12595 -61.39657,22.8878 -69.83685,48.05804 l -1.55653,4.64183 -3.28078,-2.79723 C 78.418514,412.52131 56.890468,384.13512 43.137618,354.03175 31.627109,328.83659 24.705418,302.4461 22.355077,274.79365 21.26949,262.02141 21.723277,241.00794 23.386154,227.04762 29.419588,176.39524 53.48756,127.32929 90.38079,90.469603 c 54.46818,-54.41864 130.35264,-78.399317 206.5081,-65.259786 60.88399,10.504658 116.716,46.562186 152.2973,98.356923 19.24941,28.02084 32.1073,59.63767 37.84882,93.06818 2.52811,14.72015 2.86684,19.37125 2.86684,39.36508 0,19.99383 -0.33873,24.64493 -2.86684,39.36508 -10.92283,63.59909 -48.03855,120.47495 -101.76517,155.94419 -36.05598,23.80343 -77.77674,37.38676 -118.85714,38.69718 l -9.6508,0.30785 z M 167.89328,212.56379 c 11.21931,-2.8519 20.48528,-12.11786 23.33718,-23.33717 0.98793,-3.88652 0.98793,-11.90006 0,-15.78657 -2.26864,-8.92476 -8.8874,-17.07467 -17.00824,-20.94282 -5.21594,-2.48447 -8.27006,-3.1639 -14.22222,-3.1639 -5.95216,0 -9.00628,0.67943 -14.22222,3.1639 -6.09808,2.90466 -11.70922,8.5158 -14.61388,14.61388 -2.48447,5.21595 -3.1639,8.27006 -3.1639,14.22222 0,5.94703 0.67861,9.00236 3.15886,14.22223 3.77624,7.94739 12.00195,14.68915 20.71416,16.97722 3.74193,0.98275 12.21168,0.99914 16.02026,0.031 z m 192,0 c 11.21931,-2.8519 20.48528,-12.11786 23.33718,-23.33717 0.98793,-3.88652 0.98793,-11.90006 0,-15.78657 -2.26864,-8.92476 -8.8874,-17.07467 -17.00824,-20.94282 -5.21594,-2.48447 -8.27006,-3.1639 -14.22222,-3.1639 -5.95216,0 -9.00628,0.67943 -14.22222,3.1639 -6.09808,2.90466 -11.70922,8.5158 -14.61388,14.61388 -2.48447,5.21595 -3.1639,8.27006 -3.1639,14.22222 0,5.94703 0.67861,9.00236 3.15886,14.22223 3.77624,7.94739 12.00195,14.68915 20.71416,16.97722 3.74193,0.98275 12.21168,0.99914 16.02026,0.031 z"
   id="path979" /><path
   style="fill:#ffffff;stroke-width:0.507937"
   d="m 185.90476,490.07292 c -10.96487,-0.6378 -22.19631,-3.59308 -31.62784,-8.32208 -12.38625,-6.21051 -21.43372,-15.50833 -24.48274,-25.16017 -6.97114,-22.06757 14.15887,-44.08828 47.72963,-49.74158 5.82657,-0.98119 8.33558,-1.10437 21.33333,-1.04735 8.10159,0.0356 17.18505,0.26398 20.18547,0.50765 7.12303,0.57847 10.24353,-0.16828 12.89798,-3.08653 2.83127,-3.11265 2.72608,-1.64934 2.72608,-37.92196 0,-19.95736 0.20298,-34.55005 0.50257,-36.12975 0.5759,-3.03672 1.83404,-5.02159 4.44568,-7.01358 1.62754,-1.24138 2.25967,-1.39567 5.71841,-1.39567 3.45875,0 4.09088,0.15429 5.71841,1.39567 2.64843,2.02005 3.88533,4.00449 4.47111,7.17324 0.33688,1.82238 0.46385,23.68406 0.36524,62.89004 l -0.15116,60.09661 -1.17911,3.55556 c -4.94465,14.91036 -20.51171,26.80131 -41.83071,31.95253 -9.23639,2.23176 -16.55248,2.84475 -26.82235,2.24737 z"
   id="path981" /><path
   style="fill:#ffffff;stroke-width:0.507937"
   d="m 155.5304,190.67061 c -2.29381,-1.1683 -5.098,-4.56774 -5.48953,-6.65482 -0.88248,-4.70399 0.69016,-8.69322 4.49765,-11.40895 1.37514,-0.98083 2.29032,-1.17827 5.46148,-1.17827 4.27984,0 5.93839,0.81598 8.5091,4.18635 1.24138,1.62754 1.39566,2.25967 1.39566,5.71841 0,3.45874 -0.15428,4.09088 -1.39566,5.71841 -2.38531,3.12731 -4.27247,4.14752 -7.98979,4.31935 -2.3481,0.10853 -3.80106,-0.0955 -4.98891,-0.70048 z"
   id="path983" /><path
   style="fill:#ffffff;stroke-width:0.507937"
   d="m 347.5304,190.67061 c -2.29381,-1.1683 -5.098,-4.56774 -5.48953,-6.65482 -0.88248,-4.70399 0.69016,-8.69322 4.49765,-11.40895 1.37514,-0.98083 2.29032,-1.17827 5.46148,-1.17827 4.27984,0 5.93839,0.81598 8.5091,4.18635 1.24138,1.62754 1.39566,2.25967 1.39566,5.71841 0,3.45874 -0.15428,4.09088 -1.39566,5.71841 -2.38531,3.12731 -4.27247,4.14752 -7.98979,4.31935 -2.3481,0.10853 -3.80106,-0.0955 -4.98891,-0.70048 z"
   id="path985" /></svg>
