<?xml version="1.0" encoding="UTF-8" standalone="no"?>
<svg
   xmlns:dc="http://purl.org/dc/elements/1.1/"
   xmlns:cc="http://creativecommons.org/ns#"
   xmlns:rdf="http://www.w3.org/1999/02/22-rdf-syntax-ns#"
   xmlns:svg="http://www.w3.org/2000/svg"
   xmlns="http://www.w3.org/2000/svg"
   xmlns:sodipodi="http://sodipodi.sourceforge.net/DTD/sodipodi-0.dtd"
   xmlns:inkscape="http://www.inkscape.org/namespaces/inkscape"
   version="1.1"
   id="Layer_1"
   x="0px"
   y="0px"
   viewBox="0 0 512 512"
   style="enable-background:new 0 0 512 512;"
   xml:space="preserve"
   sodipodi:docname="rubbish-filled.svg"
   inkscape:version="1.0.2-2 (e86c870879, 2021-01-15)"><metadata
   id="metadata1045"><rdf:RDF><cc:Work
       rdf:about=""><dc:format>image/svg+xml</dc:format><dc:type
         rdf:resource="http://purl.org/dc/dcmitype/StillImage" /><dc:title></dc:title></cc:Work></rdf:RDF></metadata><defs
   id="defs1043" /><sodipodi:namedview
   pagecolor="#ffffff"
   bordercolor="#666666"
   borderopacity="1"
   objecttolerance="10"
   gridtolerance="10"
   guidetolerance="10"
   inkscape:pageopacity="0"
   inkscape:pageshadow="2"
   inkscape:window-width="3840"
   inkscape:window-height="2050"
   id="namedview1041"
   showgrid="false"
   inkscape:pagecheckerboard="true"
   showborder="false"
   inkscape:zoom="1.96875"
   inkscape:cx="256"
   inkscape:cy="252.44444"
   inkscape:window-x="5108"
   inkscape:window-y="-12"
   inkscape:window-maximized="1"
   inkscape:current-layer="Layer_1" />
<g
   id="g990">
	<g
   id="g988">
		<path
   d="M425.298,51.358h-91.455V16.696c0-9.22-7.475-16.696-16.696-16.696H194.855c-9.22,0-16.696,7.475-16.696,16.696v34.662    H86.704c-9.22,0-16.696,7.475-16.696,16.696v51.357c0,9.22,7.475,16.696,16.696,16.696h5.072l15.26,359.906    c0.378,8.937,7.735,15.988,16.68,15.988h264.568c8.946,0,16.302-7.051,16.68-15.989l15.259-359.906h5.073    c9.22,0,16.696-7.475,16.696-16.696V68.054C441.994,58.832,434.519,51.358,425.298,51.358z M211.551,33.391h88.9v17.967h-88.9    V33.391z M372.283,478.609H139.719l-14.522-342.502h261.606L372.283,478.609z M408.602,102.715c-15.17,0-296.114,0-305.202,0    V84.749h305.202V102.715z"
   id="path986" />
	</g>
</g>
<g
   id="g996">
	<g
   id="g994">
		<path
   d="M188.835,187.304c-9.22,0-16.696,7.475-16.696,16.696v206.714c0,9.22,7.475,16.696,16.696,16.696    c9.22,0,16.696-7.475,16.696-16.696V204C205.53,194.779,198.055,187.304,188.835,187.304z"
   id="path992" />
	</g>
</g>
<g
   id="g1002">
	<g
   id="g1000">
		<path
   d="M255.998,187.304c-9.22,0-16.696,7.475-16.696,16.696v206.714c0,9.22,7.474,16.696,16.696,16.696    c9.22,0,16.696-7.475,16.696-16.696V204C272.693,194.779,265.218,187.304,255.998,187.304z"
   id="path998" />
	</g>
</g>
<g
   id="g1008">
	<g
   id="g1006">
		<path
   d="M323.161,187.304c-9.22,0-16.696,7.475-16.696,16.696v206.714c0,9.22,7.475,16.696,16.696,16.696    s16.696-7.475,16.696-16.696V204C339.857,194.779,332.382,187.304,323.161,187.304z"
   id="path1004" />
	</g>
</g>
<g
   id="g1010">
</g>
<g
   id="g1012">
</g>
<g
   id="g1014">
</g>
<g
   id="g1016">
</g>
<g
   id="g1018">
</g>
<g
   id="g1020">
</g>
<g
   id="g1022">
</g>
<g
   id="g1024">
</g>
<g
   id="g1026">
</g>
<g
   id="g1028">
</g>
<g
   id="g1030">
</g>
<g
   id="g1032">
</g>
<g
   id="g1034">
</g>
<g
   id="g1036">
</g>
<g
   id="g1038">
</g>
<path
   style="fill:#ffffff;stroke-width:0.507937"
   d="m 139.93651,478.09223 c 0,-0.21118 -3.19986,-75.81118 -7.11079,-168 -3.91094,-92.18882 -7.11094,-169.04461 -7.11111,-170.79064 l -3.2e-4,-3.17461 H 256 386.28571 l -2e-5,3.17461 c -2e-5,1.74603 -3.2,78.60317 -7.11109,170.79365 -3.91108,92.19047 -7.11107,167.79047 -7.11108,168 -2e-5,0.20952 -52.2286,0.38095 -116.06352,0.38095 -63.83492,0 -116.06349,-0.17278 -116.06349,-0.38396 z m 56.66131,-52.41653 c 3.88519,-1.91267 6.74449,-5.15669 8.1833,-9.28435 0.89414,-2.56509 0.93317,-7.13848 0.93317,-109.34373 0,-100.79737 -0.0494,-106.79033 -0.89765,-108.91408 -2.09793,-5.25251 -6.47981,-9.07954 -12.00425,-10.4842 -7.84724,-1.99527 -15.74109,1.81115 -19.47664,9.39164 l -1.14527,2.3241 V 307.30159 415.2381 l 1.08562,2.34788 c 4.14233,8.95863 14.35842,12.50233 23.32172,8.08972 z m 66.98231,0.0322 c 3.74931,-1.84579 5.98937,-4.17142 7.86058,-8.16087 l 1.32119,-2.81683 V 307.30159 199.87302 l -1.34499,-2.86881 c -1.71691,-3.66208 -4.83974,-6.77964 -8.48461,-8.4703 -2.34744,-1.08886 -3.6073,-1.3294 -6.9323,-1.32357 -6.90777,0.0121 -12.1137,3.19954 -15.08582,9.23661 l -1.67608,3.40451 -0.13287,106.40024 c -0.11667,93.43178 -0.0398,106.7203 0.6305,109.02612 2.99159,10.29072 14.18327,15.18619 23.8444,10.43004 z m 66.49885,0.53848 c 3.2435,-1.43476 6.68025,-4.79693 8.32332,-8.14272 l 1.40722,-2.86552 V 307.30159 199.36508 l -1.14528,-2.3241 c -1.85381,-3.76193 -4.44295,-6.37656 -8.0945,-8.17422 -2.82122,-1.38888 -3.93052,-1.65356 -6.96281,-1.66136 -5.41979,-0.014 -8.54017,1.25675 -12.28692,5.00349 -5.59005,5.59005 -5.0343,-7.11544 -5.0343,115.0927 0,84.35045 0.13322,106.85106 0.64254,108.52702 1.47595,4.85667 6.12371,9.44917 11.22447,11.09099 3.09834,0.9973 8.88865,0.67042 11.92626,-0.67326 z"
   id="path1608" /><path
   style="fill:#ffffff;stroke-width:0.507937"
   d="M 103.87302,93.714286 V 84.825397 H 256 408.12698 v 8.888889 8.888884 H 256 103.87302 Z"
   id="path1610" /><path
   style="fill:#ffffff;stroke-width:0.507937"
   d="M 211.55556,42.412698 V 33.52381 H 256 300.44444 v 8.888888 8.888889 H 256 211.55556 Z"
   id="path1612" /></svg>
