<?xml version="1.0" encoding="UTF-8" standalone="no"?>
<svg
   xmlns:dc="http://purl.org/dc/elements/1.1/"
   xmlns:cc="http://creativecommons.org/ns#"
   xmlns:rdf="http://www.w3.org/1999/02/22-rdf-syntax-ns#"
   xmlns:svg="http://www.w3.org/2000/svg"
   xmlns="http://www.w3.org/2000/svg"
   xmlns:sodipodi="http://sodipodi.sourceforge.net/DTD/sodipodi-0.dtd"
   xmlns:inkscape="http://www.inkscape.org/namespaces/inkscape"
   version="1.1"
   id="Capa_1"
   x="0px"
   y="0px"
   viewBox="0 0 511.999 511.999"
   style="enable-background:new 0 0 511.999 511.999;"
   xml:space="preserve"
   sodipodi:docname="script.svg"
   inkscape:version="1.0.2-2 (e86c870879, 2021-01-15)"><metadata
   id="metadata989"><rdf:RDF><cc:Work
       rdf:about=""><dc:format>image/svg+xml</dc:format><dc:type
         rdf:resource="http://purl.org/dc/dcmitype/StillImage" /><dc:title></dc:title></cc:Work></rdf:RDF></metadata><defs
   id="defs987" /><sodipodi:namedview
   pagecolor="#ffffff"
   bordercolor="#666666"
   borderopacity="1"
   objecttolerance="10"
   gridtolerance="10"
   guidetolerance="10"
   inkscape:pageopacity="0"
   inkscape:pageshadow="2"
   inkscape:window-width="3840"
   inkscape:window-height="2050"
   id="namedview985"
   showgrid="false"
   inkscape:pagecheckerboard="true"
   showborder="false"
   inkscape:zoom="3.9375077"
   inkscape:cx="364.07809"
   inkscape:cy="280.78945"
   inkscape:window-x="5108"
   inkscape:window-y="-12"
   inkscape:window-maximized="1"
   inkscape:current-layer="Capa_1" />
<g
   id="g916">
	<g
   id="g914">
		<path
   d="M359.983,130.296H200.219c-4.145,0-7.505,3.36-7.505,7.505c0,4.145,3.36,7.505,7.505,7.505h159.763    c4.145,0,7.506-3.36,7.506-7.505C367.488,133.655,364.128,130.296,359.983,130.296z"
   id="path912" />
	</g>
</g>
<g
   id="g922">
	<g
   id="g920">
		<path
   d="M165.297,130.296h-25.306c-4.145,0-7.505,3.36-7.505,7.505c0,4.145,3.359,7.505,7.505,7.505h25.306    c4.145,0,7.505-3.36,7.505-7.505C172.802,133.656,169.442,130.296,165.297,130.296z"
   id="path918" />
	</g>
</g>
<g
   id="g928">
	<g
   id="g926">
		<path
   d="M218.49,360.341h-78.499c-4.145,0-7.505,3.36-7.505,7.505c0,4.146,3.36,7.505,7.505,7.505h78.499    c4.145,0,7.505-3.36,7.505-7.505C225.995,363.7,222.635,360.341,218.49,360.341z"
   id="path924" />
	</g>
</g>
<g
   id="g934">
	<g
   id="g932">
		<path
   d="M249.987,283.66H139.991c-4.145,0-7.505,3.36-7.505,7.505c0,4.146,3.36,7.505,7.505,7.505h109.996    c4.144,0,7.505-3.36,7.505-7.505C257.492,287.019,254.132,283.66,249.987,283.66z"
   id="path930" />
	</g>
</g>
<g
   id="g940">
	<g
   id="g938">
		<path
   d="M303.53,206.977H139.991c-4.145,0-7.505,3.36-7.505,7.505s3.36,7.505,7.505,7.505H303.53    c4.145,0.001,7.505-3.359,7.505-7.505S307.675,206.977,303.53,206.977z"
   id="path936" />
	</g>
</g>
<g
   id="g946">
	<g
   id="g944">
		<path
   d="m 445.564,53.51 h -310.17 c -27.474,0 -49.825,22.352 -49.825,49.826 V 398.64 H 7.504 c -2.003,0 -3.924,0.801 -5.333,2.224 -1.41,1.424 -2.192,3.352 -2.171,5.355 0.296,29.8 21.711,52.271 49.813,52.271 h 310.17 0.945 c 27.474,0 49.825,-22.352 49.825,-49.826 V 282.92742 c 0,-4.145 -3.361,0.87693 -7.506,0.87693 -4.145,0 -7.505,-1.46538 -7.505,2.67962 V 408.665 c 0,19.198 -15.618,34.815 -34.814,34.815 h -0.945 c -19.629,0 -34.591,-16.083 -34.803,-37.409 -0.041,-4.116 -3.389,-7.431 -7.505,-7.431 H 100.583 V 103.335 c 0,-19.198 15.618,-34.815 34.814,-34.815 h 274.558 c -0.22,0.225 -0.428,0.461 -0.644,0.691 -0.262,0.279 -0.527,0.555 -0.783,0.839 -0.271,0.301 -0.532,0.61 -0.795,0.918 -0.253,0.295 -0.508,0.587 -0.754,0.888 -0.255,0.312 -0.499,0.632 -0.747,0.95 -0.24,0.308 -0.482,0.613 -0.715,0.927 -0.238,0.322 -0.466,0.651 -0.697,0.979 -0.227,0.322 -0.457,0.642 -0.677,0.969 -0.221,0.331 -0.432,0.669 -0.645,1.006 -0.213,0.335 -0.429,0.667 -0.634,1.007 -0.206,0.342 -0.4,0.691 -0.597,1.038 -0.197,0.345 -0.399,0.688 -0.588,1.039 -0.19,0.351 -0.366,0.71 -0.547,1.067 -0.181,0.356 -0.367,0.709 -0.539,1.069 -0.173,0.362 -0.332,0.731 -0.497,1.097 -0.164,0.365 -0.333,0.727 -0.488,1.096 -0.157,0.373 -0.299,0.753 -0.447,1.13 -0.146,0.372 -0.297,0.741 -0.434,1.117 -0.141,0.386 -0.266,0.779 -0.397,1.17 -0.126,0.376 -0.259,0.748 -0.377,1.128 -0.124,0.4 -0.231,0.807 -0.345,1.212 -0.106,0.378 -0.22,0.753 -0.318,1.135 -0.107,0.42 -0.197,0.846 -0.294,1.27 -0.085,0.373 -0.179,0.744 -0.255,1.12 -0.09,0.441 -0.161,0.887 -0.239,1.332 -0.064,0.368 -0.138,0.732 -0.194,1.102 -0.072,0.475 -0.124,0.956 -0.183,1.435 -0.042,0.346 -0.095,0.688 -0.13,1.036 -0.054,0.536 -0.087,1.078 -0.124,1.619 -0.02,0.297 -0.052,0.592 -0.067,0.89 -0.042,0.841 -0.064,1.688 -0.064,2.54 v 2.519 94.8231 c 0,4.146 3.36,-1.12991 7.505,-1.12991 4.145,0 7.505,0.19555 7.505,-3.94945 V 113.36 h 77.203 c 2.003,0 3.924,-0.801 5.333,-2.224 1.41,-1.424 2.192,-3.352 2.171,-5.355 C 495.161,75.981 473.746,53.51 445.564,53.51 Z M 310.693,413.651 c 0.103,0.777 0.223,1.546 0.356,2.31 0.044,0.256 0.098,0.507 0.146,0.762 0.095,0.505 0.19,1.01 0.298,1.508 0.064,0.299 0.137,0.593 0.205,0.889 0.104,0.449 0.209,0.898 0.324,1.341 0.08,0.311 0.167,0.619 0.252,0.927 0.117,0.422 0.235,0.843 0.361,1.26 0.094,0.313 0.193,0.624 0.293,0.934 0.13,0.406 0.265,0.81 0.404,1.211 0.107,0.309 0.216,0.617 0.329,0.923 0.146,0.398 0.297,0.792 0.452,1.184 0.118,0.298 0.235,0.596 0.357,0.891 0.165,0.397 0.337,0.789 0.51,1.181 0.124,0.281 0.247,0.563 0.376,0.841 0.19,0.41 0.39,0.814 0.589,1.217 0.124,0.25 0.243,0.502 0.371,0.75 0.244,0.473 0.499,0.938 0.756,1.402 0.093,0.169 0.182,0.341 0.277,0.508 0.357,0.628 0.726,1.246 1.107,1.854 0.089,0.142 0.184,0.278 0.274,0.419 0.297,0.465 0.598,0.927 0.909,1.38 0.144,0.209 0.294,0.412 0.44,0.619 0.268,0.378 0.536,0.755 0.814,1.124 0.167,0.222 0.338,0.438 0.508,0.657 0.268,0.345 0.538,0.689 0.814,1.025 0.182,0.221 0.367,0.439 0.552,0.657 0.276,0.326 0.556,0.648 0.84,0.966 0.191,0.214 0.385,0.425 0.58,0.635 0.139,0.15 0.273,0.306 0.414,0.454 H 49.812 v 0 c -17.224,0 -30.855,-12.385 -34.08,-29.829 z M 411.12,98.348 c 0.003,-0.051 0.008,-0.104 0.015,-0.156 0.034,-0.229 0.076,-0.456 0.115,-0.683 0.054,-0.32 0.109,-0.64 0.172,-0.958 0.048,-0.242 0.102,-0.482 0.155,-0.722 0.066,-0.298 0.133,-0.595 0.206,-0.89 0.062,-0.248 0.128,-0.495 0.195,-0.741 0.077,-0.281 0.156,-0.562 0.239,-0.84 0.075,-0.252 0.154,-0.502 0.235,-0.751 0.086,-0.266 0.176,-0.53 0.269,-0.794 0.09,-0.255 0.181,-0.51 0.277,-0.762 0.094,-0.249 0.193,-0.495 0.293,-0.742 0.105,-0.26 0.21,-0.519 0.322,-0.776 0.099,-0.229 0.204,-0.455 0.308,-0.681 0.123,-0.267 0.245,-0.536 0.374,-0.799 0.096,-0.196 0.199,-0.388 0.299,-0.582 0.148,-0.288 0.294,-0.576 0.45,-0.859 0.06,-0.11 0.126,-0.216 0.187,-0.325 0.693,-1.227 1.454,-2.411 2.286,-3.54 0.008,-0.011 0.015,-0.021 0.023,-0.032 0.268,-0.362 0.545,-0.717 0.826,-1.069 0.045,-0.056 0.088,-0.113 0.133,-0.169 0.275,-0.34 0.559,-0.673 0.846,-1.002 0.053,-0.061 0.106,-0.123 0.16,-0.184 0.292,-0.33 0.591,-0.653 0.896,-0.972 0.05,-0.052 0.099,-0.105 0.15,-0.157 0.316,-0.326 0.638,-0.647 0.966,-0.961 0.037,-0.035 0.074,-0.07 0.111,-0.106 0.346,-0.328 0.698,-0.65 1.058,-0.964 0.012,-0.011 0.025,-0.021 0.037,-0.032 4.596,-4.003 10.252,-6.826 16.494,-7.988 0.003,-0.001 0.007,-0.001 0.01,-0.002 0.511,-0.095 1.027,-0.179 1.546,-0.251 l 0.093,-0.012 c 0.495,-0.068 0.993,-0.126 1.494,-0.173 0.076,-0.007 0.153,-0.011 0.23,-0.017 0.459,-0.04 0.919,-0.074 1.383,-0.096 0.268,-0.012 0.538,-0.014 0.808,-0.021 0.29,-0.007 0.579,-0.02 0.871,-0.02 17.224,0 30.855,12.385 34.08,29.829 H 411.12 Z"
   id="path942"
   sodipodi:nodetypes="ssscsscscsssssssssscsscsccscccccccccsccscscccccccccccscssscsscsccsccccccscccscccccscccccccscccsccsccsccccccccccccccccccccccccccccccccccsccs" />
	</g>
</g>
<g
   id="g952">
	<g
   id="g950">
		<path
   d="M511.992,191.831c-0.001-0.087-0.003-0.174-0.006-0.262c-0.03-0.706-0.157-1.386-0.37-2.03    c-0.01-0.032-0.014-0.065-0.025-0.096c-0.009-0.026-0.024-0.05-0.033-0.076c-0.118-0.329-0.254-0.649-0.414-0.955    c-0.02-0.038-0.043-0.073-0.063-0.111c-0.148-0.27-0.312-0.529-0.491-0.778c-0.038-0.053-0.074-0.108-0.113-0.16    c-0.197-0.26-0.411-0.506-0.64-0.738c-0.05-0.051-0.103-0.098-0.154-0.147c-0.216-0.208-0.444-0.403-0.684-0.584    c-0.032-0.024-0.062-0.051-0.095-0.075c-0.27-0.196-0.556-0.371-0.851-0.531c-0.057-0.031-0.114-0.059-0.172-0.088    c-0.301-0.152-0.609-0.291-0.932-0.402c-0.002-0.001-0.004-0.002-0.006-0.002c-0.321-0.11-0.654-0.193-0.993-0.26    c-0.075-0.015-0.15-0.028-0.226-0.04c-0.339-0.056-0.683-0.098-1.036-0.107c-62.798-1.625-144.684,13.492-186.083,60.752    c-18.118,20.683-26.478,46.923-34.562,72.298c-0.662,2.077-1.323,4.153-1.99,6.226c-0.028,0.087-0.055,0.175-0.08,0.264    l-12.684,45.049c-1.123,3.989,1.201,8.135,5.19,9.259c0.68,0.192,1.365,0.282,2.038,0.282c3.277,0,6.289-2.164,7.221-5.474    l11.764-41.782c14.381-6.74,25.961-9.892,41.603-14.145c8.114-2.208,17.311-4.708,28.44-8.131    c24.06-7.4,70.216-38.36,91.458-61.347c18.578-20.106,34.211-35.048,52.271-49.961c0.021-0.017,0.037-0.038,0.058-0.056    c0.263-0.223,0.513-0.46,0.743-0.717c0.014-0.016,0.029-0.03,0.043-0.045c0.227-0.257,0.433-0.533,0.624-0.821    c0.035-0.053,0.069-0.106,0.103-0.16c0.36-0.573,0.644-1.196,0.84-1.86c0.019-0.063,0.037-0.125,0.054-0.189    c0.087-0.326,0.159-0.658,0.202-1c0.002-0.014,0.002-0.027,0.003-0.041c0.028-0.232,0.048-0.467,0.054-0.705    C512.001,191.999,511.993,191.915,511.992,191.831z M329.897,255.031c17.469-19.943,44.244-34.976,79.582-44.68    c9.497-2.608,19.533-4.772,29.876-6.48c-26.281,12.745-51.41,28.708-65.453,38.089c-22.663,15.14-47.127,33.505-65.193,49.839    C314.055,278.257,320.518,265.738,329.897,255.031z M445.979,237.452c-20.674,22.373-65.325,51.183-84.846,57.186    c-10.894,3.35-19.964,5.818-27.967,7.994c-7.241,1.969-13.828,3.763-20.342,5.831c2.914-2.791,6.33-5.92,10.357-9.433    c16.206-14.136,37.18-29.971,59.059-44.587c37.882-25.307,72.164-43.071,97.315-50.772    C468.632,213.731,457.888,224.563,445.979,237.452z"
   id="path948" />
	</g>
</g>
<g
   id="g954">
</g>
<g
   id="g956">
</g>
<g
   id="g958">
</g>
<g
   id="g960">
</g>
<g
   id="g962">
</g>
<g
   id="g964">
</g>
<g
   id="g966">
</g>
<g
   id="g968">
</g>
<g
   id="g970">
</g>
<g
   id="g972">
</g>
<g
   id="g974">
</g>
<g
   id="g976">
</g>
<g
   id="g978">
</g>
<g
   id="g980">
</g>
<g
   id="g982">
</g>
<path
   style="fill:#ffffff;stroke-width:0.253968"
   d="m 354.80827,442.95472 c -16.71292,-2.76974 -28.28577,-16.57327 -29.41993,-35.0907 -0.16792,-2.74155 -0.33982,-3.80352 -0.77549,-4.79064 -0.66066,-1.49694 -2.0392,-2.99944 -3.45531,-3.76599 l -1.01587,-0.54991 -109.77756,-0.0647 -109.77757,-0.0646 0.006,-147.23665 c 0.004,-92.10679 0.0974,-148.41596 0.25063,-150.38624 1.11463,-14.336751 10.30681,-26.106568 23.901,-30.603229 5.5278,-1.828475 -7.7914,-1.675687 146.07677,-1.675687 h 138.65265 l -1.38583,1.587299 c -6.57185,7.52726 -10.71785,16.659037 -11.99769,26.425655 -0.34268,2.61504 -0.39304,9.300872 -0.395,52.444342 l -0.003,49.44721 -5.14061,1.73652 c -34.09779,11.5185 -60.87646,29.22162 -77.18407,51.02586 -10.11077,13.51869 -17.33032,28.90211 -26.07231,55.55487 -4.37587,13.34123 -5.81546,18.15699 -11.99439,40.12411 -6.16149,21.90508 -6.38859,22.79234 -6.2774,24.52493 0.18512,2.88449 1.50071,4.89711 4.10454,6.27923 1.54997,0.82273 5.14982,0.80647 6.75972,-0.0305 1.43726,-0.74725 2.41897,-1.66168 3.17925,-2.96136 0.34984,-0.59805 2.95452,-9.42459 6.33285,-21.46028 3.15622,-11.24442 5.87861,-20.82241 6.04974,-21.28443 0.26958,-0.72782 0.63345,-0.98565 2.72384,-1.93005 10.05244,-4.54158 19.09227,-7.5243 40.88881,-13.49144 16.24875,-4.44834 27.0691,-7.63794 30.90986,-9.11154 5.9737,-2.29195 14.81322,-6.57704 21.98464,-10.65736 l 3.75174,-2.13463 -0.081,58.95546 c -0.0809,58.86746 -0.0818,58.95907 -0.61607,61.37717 -3.13425,14.18601 -12.9933,24.22413 -26.96391,27.45369 -2.92117,0.67527 -10.13555,0.86798 -13.23924,0.35362 z M 221.67315,374.78653 c 1.70377,-0.76996 3.43387,-2.66453 4.00591,-4.38679 0.57074,-1.71835 0.40534,-4.4995 -0.35592,-5.98465 -0.69295,-1.35189 -2.02572,-2.69378 -3.41025,-3.43359 l -1.07261,-0.57316 -41.13162,-0.0665 c -45.98105,-0.0744 -42.45579,-0.21341 -44.70132,1.76317 -4.52257,3.98092 -2.87415,11.50901 2.85972,13.05989 0.94831,0.2565 9.60013,0.31347 41.83044,0.27548 l 40.63484,-0.0479 z m 31.70633,-76.77874 c 1.66601,-0.87886 3.25288,-2.68444 3.79578,-4.31894 0.56609,-1.70435 0.39841,-4.49223 -0.35909,-5.97001 -0.7836,-1.52873 -2.46653,-3.04125 -4.03817,-3.62927 -1.33742,-0.50039 -2.02981,-0.50647 -57.69581,-0.50647 -63.36842,0 -57.83925,-0.17852 -60.19961,1.94364 -4.2893,3.85646 -2.84729,10.93255 2.61372,12.82576 1.24816,0.43271 4.084,0.4522 57.9472,0.39833 l 56.63481,-0.0566 z m 53.55587,-76.68761 c 3.37623,-1.79663 4.90722,-5.4906 3.82233,-9.2225 -0.34471,-1.18576 -0.72255,-1.77274 -1.89726,-2.94745 -2.51923,-2.51923 7.10551,-2.27727 -87.64592,-2.20342 l -83.42168,0.065 -1.2927,0.6821 c -5.92265,3.12512 -5.30522,11.77749 0.99618,13.95986 1.25193,0.43359 5.15609,0.45194 84.7408,0.39833 l 83.42841,-0.0562 z m -138.52651,-76.5573 c 2.86333,-1.32486 4.41448,-3.7609 4.42514,-6.94957 0.0104,-3.10729 -1.3981,-5.40037 -4.25463,-6.92677 l -1.0723,-0.57298 h -14.85712 -14.85711 l -1.0723,0.57298 c -1.68177,0.89866 -2.78419,2.00695 -3.55243,3.57136 -1.01161,2.05999 -1.00957,4.63955 0.005,6.70624 0.84079,1.71219 2.30057,3.04714 4.09227,3.7423 1.23436,0.47893 1.89804,0.49784 15.63824,0.44568 13.99455,-0.0531 14.37774,-0.0677 15.50494,-0.58924 z m 194.80574,-0.0409 c 2.68911,-1.32504 4.06871,-3.46405 4.23943,-6.57304 0.0995,-1.81179 0.0352,-2.23846 -0.51695,-3.42856 -0.76749,-1.65443 -2.216,-3.15011 -3.74785,-3.86988 l -1.14286,-0.53699 -81.57348,-0.065 c -81.22219,-0.0648 -81.57936,-0.0628 -82.94062,0.44648 -4.55486,1.70419 -6.37031,7.24967 -3.69541,11.28803 0.97513,1.47218 2.16079,2.38759 3.84982,2.97232 1.25152,0.43327 5.09379,0.45175 82.83604,0.39833 l 81.52365,-0.056 z"
   id="path1005" /><path
   style="fill:#ffffff;stroke-width:0.253968"
   d="m 309.47603,290.42398 c 0.44766,-1.44099 3.36038,-8.02988 5.21336,-11.79325 6.67162,-13.54988 14.72996,-24.14808 25.64272,-33.72488 20.72332,-18.18636 51.28078,-31.56221 89.39665,-39.13144 9.32174,-1.85115 9.22877,-1.96002 1.65079,1.93306 -3.63174,1.86575 -7.34602,3.80179 -8.25395,4.30232 -13.34124,7.35475 -21.15167,11.90294 -31.23804,18.19065 -28.95683,18.0513 -59.10877,40.13746 -80.34941,58.8556 -1.71318,1.50973 -2.20819,1.8381 -2.06212,1.36794 z"
   id="path1007" /><path
   style="fill:#ffffff;stroke-width:0.253968"
   d="m 315.70544,305.97195 c 23.41563,-21.69025 59.67644,-48.19645 94.21383,-68.86914 21.56257,-12.90649 41.98411,-23.1629 58.80591,-29.53438 3.95172,-1.49677 9.82062,-3.50666 9.92747,-3.39981 0.0457,0.0457 -1.02925,1.10408 -2.38872,2.35201 -4.53092,4.15917 -16.54882,16.15954 -22.61937,22.58638 -9.41479,9.96736 -14.31213,14.87022 -18.83645,18.85765 -18.74837,16.52355 -46.99219,35.14398 -66.1586,43.61669 -5.54158,2.44971 -11.73831,4.35863 -35.00123,10.78222 -7.56832,2.08984 -15.09414,4.20487 -16.72405,4.70007 -1.62992,0.4952 -3.05479,0.90036 -3.16639,0.90036 -0.11161,0 0.76482,-0.89642 1.9476,-1.99205 z"
   id="path1009" /><path
   style="fill:#ffffff;stroke-width:0.253968"
   d="m 411.47899,96.980287 c 0.42293,-2.274601 1.22428,-4.858318 2.23124,-7.193978 4.7662,-11.055304 14.6623,-18.737785 26.68215,-20.713733 3.57307,-0.587379 9.67106,-0.347641 13.13074,0.516224 6.52974,1.630446 11.79418,4.691175 16.4081,9.539617 4.30829,4.527275 7.33396,10.010344 8.95542,16.228884 0.34089,1.307353 0.6198,2.478779 0.6198,2.60317 0,0.131118 -14.34144,0.226163 -34.12588,0.226163 h -34.12587 z"
   id="path1011" /><path
   style="fill:#ffffff;stroke-width:0.253968"
   d="m 44.064919,442.83751 c -6.974413,-1.22842 -12.853386,-4.31055 -17.904434,-9.38664 -3.024439,-3.03943 -5.459703,-6.49452 -7.195153,-10.20828 -1.097034,-2.34759 -2.50688,-6.52936 -2.839284,-8.42165 l -0.167297,-0.95238 h 147.282299 147.2823 l 0.69095,3.49205 c 1.89175,9.56116 5.91668,17.7383 12.56317,25.52376 0.3613,0.42321 -6.25225,0.44345 -138.38983,0.42367 -131.601183,-0.0197 -138.901144,-0.044 -141.322721,-0.47053 z"
   id="path1013" /></svg>
