<?xml version="1.0" encoding="UTF-8" standalone="no"?>
<svg
   xmlns:dc="http://purl.org/dc/elements/1.1/"
   xmlns:cc="http://creativecommons.org/ns#"
   xmlns:rdf="http://www.w3.org/1999/02/22-rdf-syntax-ns#"
   xmlns:svg="http://www.w3.org/2000/svg"
   xmlns="http://www.w3.org/2000/svg"
   xmlns:sodipodi="http://sodipodi.sourceforge.net/DTD/sodipodi-0.dtd"
   xmlns:inkscape="http://www.inkscape.org/namespaces/inkscape"
   id="Capa_1"
   enable-background="new 0 0 512 512"
   height="512"
   viewBox="0 0 512 512"
   width="512"
   version="1.1"
   sodipodi:docname="speedometer.svg"
   inkscape:version="1.0.2-2 (e86c870879, 2021-01-15)">
  <metadata
     id="metadata1540">
    <rdf:RDF>
      <cc:Work
         rdf:about="">
        <dc:format>image/svg+xml</dc:format>
        <dc:type
           rdf:resource="http://purl.org/dc/dcmitype/StillImage" />
        <dc:title></dc:title>
      </cc:Work>
    </rdf:RDF>
  </metadata>
  <defs
     id="defs1538" />
  <sodipodi:namedview
     pagecolor="#ffffff"
     bordercolor="#666666"
     borderopacity="1"
     objecttolerance="10"
     gridtolerance="10"
     guidetolerance="10"
     inkscape:pageopacity="0"
     inkscape:pageshadow="2"
     inkscape:window-width="3840"
     inkscape:window-height="2050"
     id="namedview1536"
     showgrid="false"
     inkscape:pagecheckerboard="true"
     showborder="false"
     inkscape:zoom="1.96875"
     inkscape:cx="256"
     inkscape:cy="252.44444"
     inkscape:window-x="5108"
     inkscape:window-y="-12"
     inkscape:window-maximized="1"
     inkscape:current-layer="Capa_1" />
  <path
     d="m512 358.121c0-68.38-26.629-132.667-74.98-181.02-48.353-48.352-112.64-74.98-181.02-74.98s-132.667 26.629-181.02 74.98c-48.351 48.353-74.98 112.64-74.98 181.02v15h205.016c4.085 12.323 12.371 22.642 23.657 29.305 8.558 5.052 17.953 7.453 27.236 7.453 18.406 0 36.36-9.448 46.376-26.413 1.956-3.313 3.522-6.781 4.717-10.345h204.998zm-235.548 10.093c-6.656 11.276-21.247 15.037-32.526 8.378-5.463-3.225-9.343-8.384-10.925-14.528-1.583-6.144-.679-12.535 2.547-17.998s8.385-9.343 14.528-10.925c1.976-.509 3.977-.76 5.964-.76 4.194 0 8.328 1.12 12.034 3.308 5.463 3.225 9.343 8.384 10.925 14.528 1.583 6.143.679 12.535-2.547 17.997zm31.689-25.093c-.032-.129-.057-.259-.09-.388-2.296-8.916-6.74-16.908-12.887-23.425l43.106-73.015-25.834-15.252-43.106 73.015c-8.675-2.233-17.819-2.264-26.737.032-13.903 3.581-25.58 12.362-32.879 24.726-2.674 4.53-4.636 9.344-5.882 14.307h-173.34c1.992-30.247 9.976-58.88 22.75-84.742l33.311 19.232 15-25.98-33.274-19.21c16.444-24.477 37.541-45.578 62.018-62.022l19.212 33.276 25.98-15-19.236-33.318c25.861-12.774 54.5-20.737 84.746-22.729v38.493h30v-38.493c30.246 1.992 58.885 9.955 84.746 22.729l-19.236 33.318 25.98 15 19.212-33.276c24.477 16.444 45.573 37.545 62.018 62.022l-33.274 19.21 15 25.98 33.311-19.232c12.774 25.862 20.758 54.495 22.75 84.742z"
     id="path1533" />
  <path
     style="fill:#ffffff;stroke-width:0.507937"
     d="m 30.984127,340.94927 c 0,-2.77742 1.382549,-14.15726 2.576006,-21.20324 2.14353,-12.65506 6.451752,-28.50747 11.043384,-40.63492 2.793687,-7.3787 8.120861,-19.43317 8.763542,-19.83037 0.229783,-0.14201 7.735483,3.97601 16.679334,9.15116 8.943851,5.17516 16.363705,9.40937 16.488566,9.40937 0.34433,0 14.608171,-24.75757 14.851581,-25.77769 0.16806,-0.70431 -3.171561,-2.82825 -16.076668,-10.2245 -12.64331,-7.24621 -16.220182,-9.5143 -15.982249,-10.13434 0.482899,-1.25842 5.617772,-8.24891 11.399275,-15.5187 6.842443,-8.60383 24.760072,-26.52146 33.363902,-33.3639 7.23082,-5.75051 14.25887,-10.91584 15.50071,-11.39238 0.59597,-0.22869 2.99527,3.5512 10.13435,15.96581 5.14443,8.946 9.58676,16.27029 9.87185,16.27621 0.50415,0.0105 24.98122,-13.93445 25.79292,-14.69458 0.22357,-0.20937 -3.83357,-7.72512 -9.01587,-16.70166 -5.18231,-8.97653 -9.42238,-16.45423 -9.42238,-16.6171 0,-0.4377 9.55217,-4.82222 16.25397,-7.46069 12.89012,-5.07479 27.18158,-9.23566 40.38095,-11.75668 7.28348,-1.39111 22.04033,-3.3617 25.17421,-3.3617 h 2.00039 v 19.04761 19.04762 H 256 271.2381 v -19.04762 -19.04761 h 1.93387 c 3.21348,0 18.02305,1.96387 25.15108,3.33524 13.38145,2.57447 27.5825,6.70915 40.4706,11.78314 6.7018,2.63847 16.25397,7.02299 16.25397,7.46069 0,0.16287 -4.22857,7.62065 -9.39683,16.57285 -5.16825,8.9522 -9.39682,16.3553 -9.39682,16.45133 0,0.30684 24.85252,14.57827 25.77769,14.80269 0.70509,0.17105 2.82372,-3.15294 10.24248,-16.06977 7.14036,-12.43209 9.53827,-16.21451 10.13435,-15.98578 1.24184,0.47654 8.26989,5.64187 15.50071,11.39238 8.60383,6.84244 26.52146,24.76007 33.3639,33.3639 5.7857,7.27506 10.91645,14.26047 11.40022,15.52115 0.23918,0.62329 -3.3099,2.87442 -15.97753,10.13434 -12.44662,7.13326 -16.2387,9.53278 -16.08852,10.18037 0.22483,0.96942 14.51077,25.81937 14.84326,25.81937 0.12008,0 7.54674,-4.23082 16.50369,-9.40181 8.95695,-5.17101 16.46788,-9.28902 16.69094,-9.15117 0.68587,0.42389 6.11044,12.81335 9.01275,20.58473 4.61061,12.34552 8.83705,28.17664 11.05175,41.39682 0.97261,5.80583 2.30621,17.18573 2.30621,19.67943 v 1.90787 h -86.27774 -86.27774 l -1.11596,-3.42857 c -2.16726,-6.65855 -5.09777,-11.91365 -10.32894,-18.52226 l -1.39721,-1.76512 21.36472,-36.17598 c 11.7506,-19.89679 21.28976,-36.40091 21.19812,-36.67581 -0.0916,-0.27491 -5.87702,-3.89162 -12.85641,-8.03713 -9.41832,-5.59415 -12.83443,-7.38802 -13.25085,-6.95827 -0.30858,0.31845 -9.98659,16.57902 -21.50667,36.13457 -11.52009,19.55556 -21.09618,35.70168 -21.28021,35.88027 -0.18403,0.17859 -2.16317,-0.009 -4.39809,-0.41769 -5.49326,-1.00363 -16.3712,-0.61998 -21.60295,0.76189 -13.7924,3.64302 -24.9984,11.50937 -32.24406,22.63458 -2.90602,4.462 -5.77889,10.55476 -6.84678,14.52062 l -0.55172,2.0489 H 117.31376 30.984127 Z"
     id="path2103" />
  <path
     style="fill:#ffffff;stroke-width:0.507937"
     d="m 249.65079,378.74286 c -8.47683,-2.80702 -14.55173,-9.25808 -16.50036,-17.52205 -0.86503,-3.6685 -0.41954,-9.76821 0.98,-13.4185 2.26066,-5.89625 7.64008,-11.28554 13.62045,-13.64545 4.18309,-1.65069 12.31515,-1.65069 16.49824,0 3.86958,1.52697 7.77899,4.51468 10.37835,7.9315 8.9733,11.79526 4.71673,28.75069 -8.83429,35.1901 -3.63266,1.72624 -4.36224,1.88841 -9.03128,2.00757 -3.19564,0.0815 -5.83285,-0.11989 -7.11111,-0.54317 z"
     id="path2105" />
</svg>
