<?xml version="1.0" encoding="UTF-8" standalone="no"?>
<svg
   xmlns:dc="http://purl.org/dc/elements/1.1/"
   xmlns:cc="http://creativecommons.org/ns#"
   xmlns:rdf="http://www.w3.org/1999/02/22-rdf-syntax-ns#"
   xmlns:svg="http://www.w3.org/2000/svg"
   xmlns="http://www.w3.org/2000/svg"
   xmlns:sodipodi="http://sodipodi.sourceforge.net/DTD/sodipodi-0.dtd"
   xmlns:inkscape="http://www.inkscape.org/namespaces/inkscape"
   id="Layer_1"
   enable-background="new 0 0 512 512"
   height="512"
   viewBox="0 0 512 512"
   width="512"
   version="1.1"
   sodipodi:docname="stopwatch.svg"
   inkscape:version="1.0.2-2 (e86c870879, 2021-01-15)">
  <metadata
     id="metadata1682">
    <rdf:RDF>
      <cc:Work
         rdf:about="">
        <dc:format>image/svg+xml</dc:format>
        <dc:type
           rdf:resource="http://purl.org/dc/dcmitype/StillImage" />
        <dc:title></dc:title>
      </cc:Work>
    </rdf:RDF>
  </metadata>
  <defs
     id="defs1680" />
  <sodipodi:namedview
     pagecolor="#ffffff"
     bordercolor="#666666"
     borderopacity="1"
     objecttolerance="10"
     gridtolerance="10"
     guidetolerance="10"
     inkscape:pageopacity="0"
     inkscape:pageshadow="2"
     inkscape:window-width="3840"
     inkscape:window-height="2050"
     id="namedview1678"
     showgrid="false"
     inkscape:pagecheckerboard="true"
     showborder="false"
     inkscape:zoom="1.96875"
     inkscape:cx="256"
     inkscape:cy="252.44444"
     inkscape:window-x="5108"
     inkscape:window-y="-12"
     inkscape:window-maximized="1"
     inkscape:current-layer="Layer_1" />
  <path
     d="m479.451 112.98-53.74-53.74c-7.811-7.811-20.474-7.811-28.284 0s-7.811 20.474 0 28.284l12.728 12.728-26.102 26.102c-33.978-28.346-75.292-45.458-119.362-49.441v-36.913h18c11.046 0 20-8.954 20-20s-8.954-20-20-20h-76c-11.046 0-20 8.954-20 20s8.954 20 20 20h18v36.913c-109.724 9.916-198 102.055-198 217.087 0 120.482 97.501 218 218 218 120.482 0 218-97.501 218-218 0-51.511-17.756-100.286-50.354-139.362l26.102-26.102 12.728 12.728c7.81 7.81 20.473 7.811 28.284 0 7.81-7.81 7.81-20.473 0-28.284zm-234.76 359.02c-98.149 0-178-79.851-178-178s79.851-178 178-178 178 79.851 178 178-79.85 178-178 178zm103.923-178c0 11.046-8.954 20-20 20h-83.922c-11.046 0-20-8.954-20-20v-117.675c0-11.046 8.954-20 20-20s20 8.954 20 20v97.675h63.922c11.046 0 20 8.954 20 20z"
     id="path1675" />
  <path
     style="fill:#ffffff;stroke-width:0.507937"
     d="m 235.68254,471.57118 c -27.71702,-2.1241 -47.79217,-7.48081 -70.52006,-18.81704 -29.33114,-14.62982 -55.13769,-38.3833 -72.213452,-66.46843 -27.097709,-44.56859 -33.300056,-98.31673 -17.027394,-147.55555 4.709424,-14.25006 9.99893,-25.66236 17.575639,-37.92005 21.640437,-35.01017 55.076997,-61.68127 94.072787,-75.03835 19.75767,-6.76753 40.45747,-9.88721 61.77013,-9.30942 26.08796,0.70725 49.78769,6.48735 73.11277,17.83139 26.01008,12.64988 49.9464,32.93714 66.93278,56.72896 17.05299,23.88512 27.74668,51.327 31.77705,81.54545 1.11252,8.34136 1.26786,32.83951 0.25889,40.82869 -3.35985,26.60368 -11.11012,49.53102 -24.16557,71.48814 -28.15232,47.34757 -77.72631,79.4413 -132.36722,85.69329 -6.77435,0.77511 -24.28183,1.37031 -29.20635,0.99292 z M 332.22417,313.8606 c 6.27692,-1.14984 12.11931,-5.68237 14.85897,-11.52761 1.20561,-2.57223 1.3613,-3.51441 1.3613,-8.23775 0,-4.93763 -0.11963,-5.58586 -1.61239,-8.73687 -2.05137,-4.33016 -5.38407,-7.66286 -9.71423,-9.71423 l -3.40353,-1.61239 -34.4127,-0.14388 -34.4127,-0.14388 v -50.17663 c 0,-55.22811 0.12213,-52.96055 -3.12819,-58.08023 -9.63787,-15.18086 -33.0322,-11.03125 -36.75047,6.51868 -1.1023,5.20277 -1.1023,121.13481 0,126.33759 1.64094,7.74513 7.4473,13.63478 15.07392,15.29017 4.17181,0.90552 87.31782,1.11038 92.14002,0.22703 z"
     id="path2245" />
</svg>
