<?xml version="1.0" encoding="UTF-8" standalone="no"?>
<svg
   xmlns:dc="http://purl.org/dc/elements/1.1/"
   xmlns:cc="http://creativecommons.org/ns#"
   xmlns:rdf="http://www.w3.org/1999/02/22-rdf-syntax-ns#"
   xmlns:svg="http://www.w3.org/2000/svg"
   xmlns="http://www.w3.org/2000/svg"
   xmlns:sodipodi="http://sodipodi.sourceforge.net/DTD/sodipodi-0.dtd"
   xmlns:inkscape="http://www.inkscape.org/namespaces/inkscape"
   id="Capa_1"
   enable-background="new 0 0 513.485 513.485"
   height="512"
   viewBox="0 0 513.485 513.485"
   width="512"
   version="1.1"
   sodipodi:docname="storyboard.svg"
   inkscape:version="1.0.2-2 (e86c870879, 2021-01-15)">
  <metadata
     id="metadata911">
    <rdf:RDF>
      <cc:Work
         rdf:about="">
        <dc:format>image/svg+xml</dc:format>
        <dc:type
           rdf:resource="http://purl.org/dc/dcmitype/StillImage" />
        <dc:title></dc:title>
      </cc:Work>
    </rdf:RDF>
  </metadata>
  <defs
     id="defs909" />
  <sodipodi:namedview
     pagecolor="#ffffff"
     bordercolor="#666666"
     borderopacity="1"
     objecttolerance="10"
     gridtolerance="10"
     guidetolerance="10"
     inkscape:pageopacity="0"
     inkscape:pageshadow="2"
     inkscape:window-width="3840"
     inkscape:window-height="2050"
     id="namedview907"
     showgrid="false"
     inkscape:pagecheckerboard="true"
     showborder="false"
     inkscape:zoom="1.96875"
     inkscape:cx="267.91556"
     inkscape:cy="265.24927"
     inkscape:window-x="5108"
     inkscape:window-y="-12"
     inkscape:window-maximized="1"
     inkscape:current-layer="Capa_1" />
  <g
     id="g904">
    <path
       d="M 449.441,55.792 395.846,2.197 C 394.438,0.79 392.531,0 390.542,0 H 82.274 C 71.011,0 61.848,9.164 61.848,20.427 v 432.89246 c 0,4.142 3.357,2.02385 7.5,2.02385 4.143,0 7.5,3.13697 7.5,-1.00503 V 20.427 C 76.848,17.435 79.283,15 82.275,15 h 300.512 v 32.913 c 0,11.263 9.163,20.427 20.427,20.427 h 33.425 v 424.719 c 0,2.992 -2.435,5.427 -5.427,5.427 H 82.274 c -2.992,0 -5.427,-2.435 -5.427,-5.427 v -39.742 c 0,-4.142 -3.357,-7.5 -7.5,-7.5 -4.143,0 -7.5,3.358 -7.5,7.5 v 39.742 c 0,11.263 9.163,20.427 20.427,20.427 h 348.937 c 11.264,0 20.427,-9.164 20.427,-20.427 V 61.096 c 0,-1.99 -0.79,-3.897 -2.197,-5.304 z M 397.786,47.913 V 25.351 l 27.989,27.989 h -22.563 c -2.991,0 -5.426,-2.435 -5.426,-5.427 z"
       id="path890"
       sodipodi:nodetypes="scsssssssscsscssssssssssssssccss" />
    <path
       d="m 222.764,274.328 c -4.066,-0.828 -8.021,1.791 -8.849,5.849 l -4.906,24.044 h -93.054 c -7.471,0 -13.548,6.078 -13.548,13.548 v 93.972 c 0,7.471 6.077,13.548 13.548,13.548 h 93.973 c 7.471,0 13.549,-6.078 13.549,-13.548 v -39.486 h 53.474 l -7.723,7.347 c -3.001,2.855 -3.12,7.602 -0.266,10.603 1.475,1.55 3.453,2.331 5.436,2.331 1.856,0 3.717,-0.686 5.168,-2.066 l 8.652,-8.23 v 29.502 c 0,7.471 6.077,13.548 13.548,13.548 h 93.972 c 7.471,0 13.549,-6.078 13.549,-13.548 V 317.77 c 0,-7.471 -6.078,-13.548 -13.549,-13.548 h -16.729 c -4.143,0 -7.5,3.358 -7.5,7.5 0,4.142 3.357,7.5 7.5,7.5 h 15.278 v 91.069 h -91.068 v -91.069 h 43.828 c 4.143,0 7.5,-3.358 7.5,-7.5 0,-4.142 -3.357,-7.5 -7.5,-7.5 h -45.28 c -7.471,0 -13.548,6.078 -13.548,13.548 v 29.501 l -8.652,-8.23 c -3,-2.855 -7.748,-2.736 -10.604,0.265 -2.854,3.001 -2.735,7.748 0.266,10.603 l 7.723,7.347 h -53.474 v -35.688 c 0,0 23.539,4.75 24.036,4.75 3.49,0 6.616,-2.45 7.341,-6.002 0.828,-4.059 -1.791,-8.02 -5.849,-8.848 l -14.127,-2.883 64.271,-48.798 c 0.847,0.167 1.721,0.259 2.616,0.259 h 93.973 c 7.471,0 13.548,-6.078 13.548,-13.548 v -93.973 c 0,-7.47 -6.077,-13.548 -13.548,-13.548 h -93.973 c -7.471,0 -13.549,6.078 -13.549,13.548 v 29.501 l -8.651,-8.23 c -3,-2.855 -7.748,-2.736 -10.604,0.265 -2.854,3.001 -2.735,7.748 0.266,10.603 l 7.723,7.347 h -53.474 v -39.486 c 0,-7.47 -6.078,-13.548 -13.549,-13.548 h -93.973 c -7.471,0 -13.548,6.078 -13.548,13.548 v 93.973 c 0,7.47 6.077,13.548 13.548,13.548 h 93.973 c 7.471,0 13.549,-6.078 13.549,-13.548 v -39.486 h 53.474 l -7.723,7.347 c -3.001,2.855 -3.12,7.602 -0.266,10.603 1.475,1.55 3.453,2.331 5.436,2.331 1.856,0 3.717,-0.686 5.168,-2.066 l 8.651,-8.23 v 29.501 c 0,0.878 0.091,1.734 0.251,2.566 l -62.593,47.524 2.737,-13.411 c 0.828,-4.059 -1.791,-8.021 -5.848,-8.849 z m -14.287,-29.282 h -91.069 v -91.068 h 91.069 z m 0,165.244 h -91.069 v -91.069 h 91.069 z m 94.74,-256.312 h 91.069 v 91.068 h -91.069 z"
       id="path892" />
    <path
       d="m 239.017,85.406 c -4.143,0 -7.5,3.358 -7.5,7.5 0,4.142 3.357,7.5 7.5,7.5 h 98.473 c 7.647,0 13.869,-6.221 13.869,-13.868 V 49.472 c 0,-7.647 -6.222,-13.869 -13.869,-13.869 H 174.204 c -7.647,0 -13.869,6.222 -13.869,13.869 v 37.066 c 0,7.647 6.222,13.868 13.869,13.868 h 32.851 c 4.143,0 7.5,-3.358 7.5,-7.5 0,-4.142 -3.357,-7.5 -7.5,-7.5 h -31.72 V 50.604 h 161.023 v 34.803 h -97.341 z"
       id="path894" />
    <path
       d="m 163.301,167.225 h -11.108 c -4.143,0 -7.5,3.358 -7.5,7.5 0,4.142 3.357,7.5 7.5,7.5 h 3.608 v 44.472 c 0,4.142 3.357,7.5 7.5,7.5 4.143,0 7.5,-3.358 7.5,-7.5 v -51.972 c 0,-4.142 -3.358,-7.5 -7.5,-7.5 z"
       id="path896" />
    <path
       d="m 358.244,399.183 h 0.065 c 4.112,0 7.463,-3.316 7.499,-7.436 0.017,-1.95 0.039,-4.712 0.064,-7.946 3.764,-0.401 6.696,-3.587 6.696,-7.458 0,-3.836 -2.881,-7 -6.597,-7.446 0.067,-12.149 0.093,-24.374 -0.06,-26.207 -0.401,-4.815 -3.344,-8.758 -7.496,-10.044 -4.147,-1.285 -8.507,0.263 -11.666,4.139 -2.959,3.631 -15.591,26.34 -20.885,35.936 -1.281,2.324 -1.24,5.151 0.109,7.436 1.349,2.285 3.805,3.687 6.458,3.687 h 18.438 c -0.021,2.743 -0.041,5.368 -0.063,7.774 -0.033,4.143 3.296,7.529 7.438,7.565 z M 345.19,368.845 c 2.045,-3.644 4.032,-7.152 5.826,-10.283 -0.011,3.186 -0.026,6.684 -0.047,10.283 z"
       id="path898" />
    <path
       d="m 333.031,192.044 c 4.068,0.798 8.007,-1.85 8.805,-5.914 0.531,-2.704 2.924,-4.667 5.689,-4.667 3.069,0 5.59,2.397 5.786,5.418 l -0.13,1.017 c -0.446,1.702 -1.557,4.458 -4.284,8.355 -8.212,11.733 -13.111,18.148 -15.743,21.594 -3.383,4.429 -5.246,6.869 -3.998,10.926 0.734,2.386 2.608,4.289 5.016,5.091 1.001,0.333 1.801,0.6 12.03,0.6 4.004,0 9.451,-0.041 16.918,-0.134 4.143,-0.052 7.458,-3.452 7.405,-7.594 -0.051,-4.11 -3.398,-7.406 -7.497,-7.406 -0.032,0 -0.064,0 -0.096,0 -4.067,0.051 -8.341,0.089 -12.206,0.107 2.683,-3.632 6.121,-8.385 10.46,-14.584 3.439,-4.914 5.688,-9.587 6.687,-13.888 0.058,-0.246 0.102,-0.495 0.134,-0.745 l 0.257,-2.01 c 0.04,-0.315 0.061,-0.633 0.061,-0.951 0,-11.469 -9.33,-20.799 -20.799,-20.799 -9.916,0 -18.499,7.055 -20.408,16.776 -0.799,4.068 1.849,8.01 5.913,8.808 z"
       id="path900" />
    <path
       d="m 162.941,330.658 c -9.916,0 -18.499,7.055 -20.408,16.776 -0.798,4.064 1.85,8.006 5.914,8.805 4.064,0.795 8.007,-1.849 8.805,-5.914 0.531,-2.704 2.924,-4.667 5.689,-4.667 3.197,0 5.799,2.602 5.799,5.799 0,3.197 -2.602,5.798 -5.799,5.798 -4.143,0 -7.5,3.358 -7.5,7.5 0,4.142 3.357,7.5 7.5,7.5 3.197,0 5.799,2.602 5.799,5.799 0,3.197 -2.602,5.799 -5.799,5.799 -2.877,0 -5.346,-2.141 -5.742,-4.984 -0.037,-0.262 -0.056,-0.537 -0.056,-0.814 0,-4.142 -3.357,-7.5 -7.5,-7.5 -4.143,0 -7.5,3.358 -7.5,7.5 0,0.972 0.067,1.946 0.2,2.892 1.424,10.209 10.279,17.907 20.598,17.907 11.469,0 20.799,-9.33 20.799,-20.799 0,-5.055 -1.816,-9.691 -4.825,-13.299 3.009,-3.608 4.825,-8.244 4.825,-13.298 0,-11.47 -9.33,-20.8 -20.799,-20.8 z"
       id="path902" />
  </g>
  <path
     style="fill:#ffffff;stroke-width:0.507937"
     d="m 79.410491,495.89837 c -0.871439,-0.53139 -1.842867,-1.7075 -2.15873,-2.61358 -0.423911,-1.21604 -0.574296,-63.34769 -0.574296,-237.27049 0,-254.6742921 -0.181843,-237.893692 2.599046,-239.841503 1.086816,-0.761236 13.365267,-0.828289 151.672709,-0.828289 h 150.49015 v 17.417093 c 0,18.864398 0.24855,21.114828 2.81583,25.495566 1.80054,3.07238 5.84527,6.69517 9.26388,8.29747 l 2.90442,1.3613 19.42857,0.149587 19.42857,0.149587 V 280.01835 c 0,232.00308 0.24318,214.38632 -2.98238,216.05433 -1.38792,0.71772 -18.6654,0.79545 -176.42097,0.79374 C 84.890586,496.86439 80.959631,496.843 79.410491,495.89837 Z M 215.21029,423.08104 c 2.60397,-1.42303 5.17875,-3.90856 6.38599,-6.16463 1.08817,-2.03356 1.11621,-2.56298 1.26047,-23.79412 l 0.14754,-21.71429 26.26516,0.0117 26.26516,0.0117 -4.15766,3.9248 c -4.71429,4.45025 -5.32383,5.42175 -5.32383,8.48529 0,5.44751 4.66268,8.95586 9.84072,7.40448 1.41857,-0.42501 3.41293,-1.93536 6.55417,-4.96353 l 4.51517,-4.35268 v 14.52361 c 0,8.53408 0.22755,15.58464 0.55178,17.09644 0.84819,3.955 3.28332,7.08386 7.03,9.03272 l 3.17364,1.6508 h 49.64292 c 56.28496,0 52.66005,0.25982 57.0059,-4.08603 4.21158,-4.21157 3.99258,-1.1024 3.99258,-56.68552 0,-47.60834 -0.0268,-48.97637 -1.0126,-51.61106 -1.18547,-3.16845 -3.87962,-5.99025 -7.11438,-7.45146 -2.0796,-0.93941 -3.32612,-1.03352 -13.82359,-1.04367 l -11.53789,-0.0111 -1.73286,1.52147 c -2.26205,1.98611 -3.06812,4.02293 -2.74091,6.92592 0.31038,2.75373 1.52284,4.55454 3.93891,5.85029 1.50687,0.80814 2.9513,0.94041 10.26937,0.94041 h 8.51586 v 45.20635 45.20635 H 347.91556 302.70921 V 363.80384 318.6124 l 23.0744,-0.14189 c 22.55099,-0.13867 23.10691,-0.16614 24.50793,-1.21086 4.40443,-3.28431 4.41093,-10.23771 0.012,-12.91985 -1.55608,-0.94881 -2.73224,-0.99159 -27.30418,-0.99341 l -25.67803,-0.002 -2.62749,1.30933 c -2.83751,1.414 -4.59877,3.2158 -6.35815,6.50452 -1.06692,1.99434 -1.13031,2.82987 -1.37255,18.09091 l -0.25397,16 -4.3454,-4.16539 c -2.38996,-2.29097 -4.97628,-4.40525 -5.74735,-4.69841 -3.34381,-1.27132 -6.73639,-0.33111 -9.14833,2.53532 -1.11478,1.32484 -1.33035,2.07963 -1.33035,4.6581 v 3.07706 l 4.665,4.75698 4.665,4.75698 h -26.2523 -26.2523 V 338.6461 c 0,-9.6381 0.14194,-17.52381 0.31542,-17.52381 0.17348,0 5.69123,1.04739 12.26168,2.32752 11.76999,2.29319 11.97883,2.31509 14.15435,1.48426 2.69095,-1.02769 4.30412,-3.16107 4.63938,-6.13548 0.31084,-2.75775 -0.51827,-4.85966 -2.65798,-6.73834 -1.37505,-1.20732 -2.7926,-1.66653 -8.82629,-2.85924 -3.95348,-0.78151 -7.18815,-1.60268 -7.18815,-1.82481 0,-0.22214 8.51429,-6.86318 18.92064,-14.75787 10.40635,-7.89469 24.43094,-18.54185 31.16576,-23.66036 l 12.24513,-9.30637 49.97709,-0.1218 c 49.48093,-0.12059 49.99985,-0.13233 52.26851,-1.18245 2.76044,-1.27774 5.22445,-3.64897 6.74408,-6.49011 l 1.12324,-2.10003 0.13674,-49.68726 c 0.0908,-33.00884 -0.0394,-50.34121 -0.38786,-51.63547 -0.88197,-3.27541 -3.5327,-6.62545 -6.60603,-8.34882 l -2.79365,-1.56655 -49.47884,-0.13918 c -55.65533,-0.15656 -53.05324,-0.31613 -57.20161,3.50771 -1.22176,1.12618 -2.74704,3.11468 -3.38952,4.4189 -1.13133,2.29661 -1.17316,2.87171 -1.32786,18.2579 l -0.15973,15.8866 -4.15773,-3.88071 c -5.39941,-5.03967 -5.98844,-5.4012 -8.85657,-5.43588 -4.7012,-0.0568 -7.74015,2.85111 -7.7437,7.40989 -0.003,3.25794 0.74255,4.52105 5.22855,8.86366 l 3.80414,3.68254 h -26.1046 -26.10459 v -20.73491 c 0,-22.69575 -0.0914,-23.51813 -3.00818,-27.05665 -0.80081,-0.97152 -2.68015,-2.44443 -4.1763,-3.27314 l -2.72028,-1.50673 -49.48697,-0.13682 c -55.06722,-0.15226 -52.73341,-0.28619 -56.8815,3.26442 -1.226,1.04941 -2.74788,3.04135 -3.40997,4.4632 l -1.19577,2.56793 0.006,50.28572 c 0.006,47.57347 0.0561,50.3953 0.93237,52.31746 1.37813,3.02318 3.44439,5.21928 6.35577,6.75513 l 2.6005,1.37185 h 50.53968 50.53969 l 2.70402,-1.49788 c 1.48722,-0.82384 3.37578,-2.34605 4.19682,-3.38269 2.94763,-3.72168 3.00392,-4.22632 3.00392,-26.92932 v -20.76154 h 26.01983 26.01983 l -3.86809,3.93651 c -4.57173,4.65259 -4.99757,5.38588 -4.99507,8.60153 0.004,4.51142 2.80147,7.27149 7.37135,7.27149 3.03625,0 3.70531,-0.38661 8.99301,-5.19649 l 4.42975,-4.02946 0.14168,15.40662 c 0.12148,13.20981 0.033,15.49048 -0.62023,15.99469 -19.05171,14.70465 -60.23517,45.64138 -60.35259,45.33644 -0.0892,-0.23157 0.42652,-3.34503 1.14596,-6.9188 1.32717,-6.59251 1.3018,-7.96808 -0.19859,-10.77161 -2.21457,-4.13796 -10.20674,-4.08694 -12.93873,0.0826 -0.57283,0.87425 -5.87827,24.83473 -5.87827,26.5475 0,0.1358 -21.60734,0.24692 -48.01631,0.24692 -52.63004,0 -49.49781,-0.1784 -53.57587,3.05148 -1.07086,0.84814 -2.53642,2.72483 -3.25679,4.17043 l -1.30976,2.62834 0.0112,50.31297 c 0.011,49.49845 0.0279,50.34997 1.04462,52.59868 1.67384,3.70208 4.80174,6.4898 8.59173,7.65733 0.70023,0.21571 23.90171,0.35248 51.55885,0.30394 47.0379,-0.0825 50.39189,-0.14628 51.92965,-0.98664 z M 361.5295,396.95628 c 2.84127,-2.12131 3.3531,-3.38515 3.57133,-8.8185 l 0.20419,-5.08358 1.6147,-0.67467 c 3.58116,-1.4963 5.54525,-5.69505 4.42036,-9.44961 -0.64059,-2.1381 -3.60891,-5.07748 -5.12747,-5.07748 -0.92707,0 -0.97596,-0.62353 -1.12518,-14.3492 -0.14757,-13.57393 -0.21523,-14.45898 -1.25234,-16.38095 -4.00001,-7.41286 -13.10817,-8.09111 -18.36207,-1.36735 -3.05198,3.90581 -20.00445,33.60977 -21.25785,37.2478 -1.3403,3.89024 1.00968,8.50566 4.87786,9.58024 0.99366,0.27604 5.97809,0.50317 11.0765,0.50473 l 9.26984,0.003 v 4.28439 c 0,4.65367 0.48181,6.48895 2.19256,8.3518 2.47863,2.69898 7.15185,3.27952 9.89757,1.22955 z M 210.67525,99.141638 c 1.76971,-1.078963 3.62253,-4.415075 3.64185,-6.557399 0.0201,-2.224914 -1.89615,-5.363682 -3.99455,-6.54305 -1.9172,-1.077521 -2.44958,-1.109379 -18.53964,-1.109379 H 175.21715 V 67.915937 50.900064 h 80 80 V 67.915937 84.93181 h -49.32006 c -44.45264,0 -49.49154,0.08137 -51.05762,0.824528 -5.18645,2.461125 -5.61557,10.012551 -0.75356,13.260587 l 1.72591,1.152985 52.11536,-0.0112 c 49.33805,-0.0106 52.22364,-0.0605 54.14711,-0.937335 2.86965,-1.308145 5.12995,-3.350146 6.74012,-6.089174 l 1.38686,-2.359141 0.1471,-22.208295 c 0.1441,-21.756452 0.1249,-22.259876 -0.94352,-24.7435 -0.6189,-1.438657 -2.14229,-3.518925 -3.52208,-4.809557 -4.47166,-4.18271 2.74118,-3.889526 -91.96387,-3.738097 l -84.03509,0.134369 -2.79365,1.57576 c -1.5365,0.866667 -3.53453,2.538996 -4.44006,3.716285 -3.11782,4.053515 -3.24911,5.261555 -3.07843,28.325687 0.1381,18.6624 0.2446,20.934248 1.06711,22.763221 1.26979,2.823609 4.20614,5.741054 7.21329,7.166862 2.53313,1.201065 2.58948,1.204175 21.84127,1.207225 18.46443,0.003 19.37446,-0.0413 20.98191,-1.021402 z"
     id="path1474"
     transform="scale(1.0029004)" />
  <path
     style="fill:#ffffff;stroke-width:0.507937"
     d="m 117.31239,198.96356 v -44.95239 h 45.20634 45.20635 v 44.95239 44.95238 h -45.20635 -45.20634 z m 49.32762,33.68427 c 1.25799,-0.70703 2.34232,-1.8705 2.98979,-3.20799 0.97745,-2.01914 1.01592,-3.13633 1.01592,-29.50172 0,-25.69523 -0.0586,-27.51342 -0.9405,-29.17297 -0.51728,-0.97341 -1.69393,-2.28413 -2.6148,-2.91271 -1.56477,-1.06809 -2.20725,-1.14285 -9.82172,-1.14285 -7.6128,0 -8.25765,0.075 -9.82733,1.14285 -2.1106,1.43587 -3.20835,3.69573 -3.20835,6.60483 0,4.33341 3.4766,7.48806 8.25397,7.48962 l 2.4127,7.9e-4 v 22.22558 c 0,12.9352 0.20725,22.94821 0.4958,23.95435 1.36988,4.77648 6.86102,6.98388 11.24452,4.52022 z"
     id="path1476"
     transform="scale(1.0029004)" />
  <path
     style="fill:#ffffff;stroke-width:0.507937"
     d="M 117.31239,363.78895 V 318.5826 h 45.20634 45.20635 v 45.20635 45.20635 h -45.20635 -45.20634 z m 53.96355,32.13716 c 4.4282,-2.07346 8.08367,-5.72222 10.19232,-10.1736 1.50782,-3.18304 1.6219,-3.80409 1.6219,-8.82926 0,-5.31303 -0.035,-5.47394 -2.0503,-9.41841 l -2.05031,-4.01303 1.43242,-2.26412 c 3.98278,-6.2953 3.8999,-15.45227 -0.19829,-21.90779 -7.32723,-11.54197 -23.52051,-13.12892 -32.88898,-3.22315 -2.9472,3.11624 -4.96569,7.02505 -5.44916,10.55233 -0.82765,6.03836 5.07873,10.64431 10.65946,8.31254 2.05873,-0.86019 3.68633,-2.85785 4.47606,-5.49375 1.67859,-5.60262 8.97776,-5.94731 10.60951,-0.50101 1.08214,3.61186 -1.17881,6.28149 -6.10127,7.20414 -4.24743,0.79613 -6.63132,3.5728 -6.62771,7.71971 0.003,3.96034 2.63903,6.85919 6.7089,7.37904 3.1224,0.39882 4.71189,1.3584 5.70028,3.44127 1.06024,2.23431 0.70529,4.26747 -1.05178,6.02454 -1.6889,1.68891 -3.7165,2.08283 -5.93962,1.15395 -2.03809,-0.85157 -3.12154,-2.63441 -3.52619,-5.80245 -0.51985,-4.06988 -3.41869,-6.70546 -7.37903,-6.70891 -2.50549,-0.002 -4.38196,0.84134 -6.197,2.78571 -1.16504,1.24804 -1.26907,1.74462 -1.2605,6.01651 0.008,4.03355 0.19577,5.0382 1.40344,7.51283 2.65712,5.44474 6.8307,9.10976 12.80281,11.24281 1.90714,0.68116 3.69382,0.86977 7.11774,0.75137 3.87014,-0.13383 5.09668,-0.40403 7.9953,-1.76127 z"
     id="path1478"
     transform="scale(1.0029004)" />
  <path
     style="fill:#ffffff;stroke-width:0.507937"
     d="m 302.70921,198.96356 v -44.95239 h 45.20635 45.20635 v 44.95239 44.95238 h -45.20635 -45.20635 z m 63.07107,33.98165 c 3.43834,-1.76502 4.88183,-6.59683 3.04591,-10.19554 -1.79371,-3.51597 -2.90905,-3.94176 -11.08177,-4.23056 l -7.18702,-0.25397 5.2493,-7.36508 c 6.35995,-8.92337 8.08932,-11.72893 9.72311,-15.77379 3.4663,-8.58169 1.91661,-17.07272 -4.24044,-23.23419 -8.4366,-8.44263 -21.8478,-8.12019 -30.12128,0.72419 -7.79541,8.33331 -6.5468,19.06686 2.218,19.06686 3.84165,0 6.42944,-1.92996 7.69442,-5.73847 0.44945,-1.35316 1.40202,-2.92033 2.11684,-3.4826 1.42749,-1.12287 3.99778,-1.32879 5.8802,-0.47109 1.35992,0.61961 2.90171,2.93278 2.9011,4.35254 -0.001,2.80696 -4.34741,9.59333 -17.13552,26.7562 -7.67361,10.29872 -8.32681,12.00687 -6.23995,16.31775 1.57524,3.254 3.3769,4.04253 9.91555,4.33975 9.76862,0.44402 25.74157,-0.0317 27.26155,-0.812 z"
     id="path1480"
     transform="scale(1.0029004)" />
  <path
     style="fill:#ffffff;stroke-width:0.507937"
     d="m 399.36995,51.937204 c -2.40307,-1.46524 -2.73405,-3.454698 -2.57591,-15.483518 l 0.13739,-10.450989 13.45673,13.464556 13.45672,13.464557 -11.42498,-0.0019 c -10.43269,-0.0017 -11.56611,-0.08795 -13.04995,-0.992706 z"
     id="path1482"
     transform="scale(1.0029004)" />
</svg>
