<?xml version="1.0" encoding="UTF-8" standalone="no"?>
<svg
   xmlns:dc="http://purl.org/dc/elements/1.1/"
   xmlns:cc="http://creativecommons.org/ns#"
   xmlns:rdf="http://www.w3.org/1999/02/22-rdf-syntax-ns#"
   xmlns:svg="http://www.w3.org/2000/svg"
   xmlns="http://www.w3.org/2000/svg"
   xmlns:sodipodi="http://sodipodi.sourceforge.net/DTD/sodipodi-0.dtd"
   xmlns:inkscape="http://www.inkscape.org/namespaces/inkscape"
   id="Capa_1"
   enable-background="new 0 0 512 512"
   height="512"
   viewBox="0 0 512 512"
   width="512"
   version="1.1"
   sodipodi:docname="switch.svg"
   inkscape:version="1.0.2-2 (e86c870879, 2021-01-15)">
  <metadata
     id="metadata2279">
    <rdf:RDF>
      <cc:Work
         rdf:about="">
        <dc:format>image/svg+xml</dc:format>
        <dc:type
           rdf:resource="http://purl.org/dc/dcmitype/StillImage" />
        <dc:title></dc:title>
      </cc:Work>
    </rdf:RDF>
  </metadata>
  <defs
     id="defs2277" />
  <sodipodi:namedview
     pagecolor="#ffffff"
     bordercolor="#666666"
     borderopacity="1"
     objecttolerance="10"
     gridtolerance="10"
     guidetolerance="10"
     inkscape:pageopacity="0"
     inkscape:pageshadow="2"
     inkscape:window-width="3840"
     inkscape:window-height="2050"
     id="namedview2275"
     showgrid="false"
     inkscape:pagecheckerboard="true"
     showborder="false"
     inkscape:zoom="1.96875"
     inkscape:cx="256"
     inkscape:cy="252.44444"
     inkscape:window-x="5108"
     inkscape:window-y="-12"
     inkscape:window-maximized="1"
     inkscape:current-layer="Capa_1" />
  <g
     id="g2272">
    <path
       d="m366.035 0h-220.07c-26.029 0-47.205 21.176-47.205 47.205v417.591c0 26.029 21.176 47.205 47.205 47.205h220.069c26.029 0 47.205-21.176 47.205-47.205v-417.591c0-26.029-21.176-47.205-47.204-47.205zm27.204 464.795c0 15-12.204 27.205-27.205 27.205h-220.069c-15 0-27.205-12.204-27.205-27.205v-417.59c0-15 12.204-27.205 27.205-27.205h220.069c15 0 27.205 12.204 27.205 27.205z"
       id="path2264" />
    <path
       d="m310.114 91.962h-108.228c-5.523 0-10 4.477-10 10v308.876c0 5.523 4.477 10 10 10h108.229c5.523 0 10-4.477 10-10v-308.876c-.001-5.523-4.478-10-10.001-10zm-98.228 59.583h88.229v94.855h-88.229zm88.228-39.583v19.583h-88.229v-19.583zm0 288.876h-88.229v-134.438h88.229z"
       id="path2266" />
    <path
       d="m256 359.79c5.523 0 10-4.477 10-10v-32.34c0-5.523-4.477-10-10-10s-10 4.477-10 10v32.34c0 5.523 4.477 10 10 10z"
       id="path2268" />
    <path
       d="m256 173.006c-14.318 0-25.966 11.648-25.966 25.966s11.648 25.967 25.966 25.967 25.966-11.648 25.966-25.967c0-14.317-11.648-25.966-25.966-25.966zm0 31.933c-3.29 0-5.966-2.677-5.966-5.967s2.676-5.966 5.966-5.966 5.966 2.676 5.966 5.966-2.676 5.967-5.966 5.967z"
       id="path2270" />
  </g>
  <path
     style="fill:#ffffff;stroke-width:0.507937"
     d="m 139.47082,490.87873 c -9.7373,-2.6279 -17.13366,-10.10122 -19.58778,-19.79159 -0.69348,-2.7383 -0.76378,-26.21697 -0.64792,-216.38095 l 0.12996,-213.309365 1.14508,-3.006615 c 2.9078,-7.634958 8.5716,-13.367175 16.24649,-16.442739 l 3.43383,-1.376042 H 256 371.80952 l 3.43384,1.376042 c 7.78499,3.119689 13.63205,9.113884 16.24687,16.655704 l 1.14469,3.301587 V 256 470.09524 l -1.14469,3.30159 c -2.61482,7.54182 -8.46188,13.53601 -16.24687,16.6557 l -3.43384,1.37604 -114.79365,0.0964 c -99.32655,0.0834 -115.16437,-0.004 -117.54505,-0.64619 z m 174.96289,-70.75411 c 2.49099,-1.13151 4.58918,-3.51835 5.32033,-6.05227 0.38158,-1.32247 0.49885,-48.54818 0.39448,-158.87149 L 320,98.211246 318.77596,96.424899 c -0.67322,-0.982491 -2.0279,-2.337163 -3.0104,-3.010387 l -1.78637,-1.224036 H 256 198.02081 l -1.78637,1.224036 c -0.9825,0.673224 -2.33718,2.027896 -3.0104,3.010387 L 192,98.211246 191.85148,255.20086 c -0.10437,110.32331 0.0129,157.54902 0.39448,158.87149 0.73115,2.53392 2.82934,4.92076 5.32033,6.05227 1.95206,0.88669 4.8185,0.93244 58.43371,0.93244 53.61521,0 56.48165,-0.0458 58.43371,-0.93244 z"
     id="path2842" />
  <path
     style="fill:#ffffff;stroke-width:0.507937"
     d="M 212.06349,333.71429 V 266.66667 H 256 299.93651 v 67.04762 67.04761 H 256 212.06349 Z m 46.87103,25.87422 c 2.24133,-0.62242 5.13362,-3.01 6.36127,-5.25121 0.76862,-1.40319 0.86294,-3.65743 0.86294,-20.62301 0,-18.8297 -0.0132,-19.07232 -1.15289,-21.20579 -0.63409,-1.18699 -2.10311,-2.78699 -3.26449,-3.55555 -1.8091,-1.19721 -2.63159,-1.39739 -5.74135,-1.39739 -3.10976,0 -3.93225,0.20018 -5.74135,1.39739 -1.16138,0.76856 -2.6304,2.36856 -3.26449,3.55555 -1.1397,2.13347 -1.15289,2.37609 -1.15289,21.20579 0,20.93273 -0.0688,20.42629 3.19898,23.53223 2.64649,2.51538 6.22214,3.36174 9.89427,2.34199 z"
     id="path2844" />
  <path
     style="fill:#ffffff;stroke-width:0.507937"
     d="M 212.06349,199.11111 V 151.87302 H 256 299.93651 v 47.23809 47.2381 H 256 212.06349 Z m 50.82845,25.08575 c 7.49898,-2.2262 13.19793,-6.90834 16.43061,-13.49905 5.17823,-10.55722 3.30403,-21.88768 -4.98997,-30.16678 -6.90021,-6.88782 -15.49598,-9.23103 -24.97217,-6.80743 -5.0656,1.29556 -8.6646,3.45771 -12.4243,7.46406 -15.58397,16.60636 -3.94544,43.65786 18.84471,43.8009 2.60321,0.0163 5.46096,-0.30182 7.11112,-0.7917 z"
     id="path2846" />
  <path
     style="fill:#ffffff;stroke-width:0.507937"
     d="m 254.22222,204.36426 c -1.4559,-0.57426 -3.50799,-2.8644 -3.81364,-4.25604 -0.40285,-1.83415 0.84387,-4.75538 2.48974,-5.83379 1.66578,-1.09146 4.53758,-1.09146 6.20336,0 1.64587,1.07841 2.89259,3.99964 2.48974,5.83379 -0.62602,2.85024 -4.80877,5.26597 -7.3692,4.25604 z"
     id="path2848" />
  <path
     style="fill:#ffffff;stroke-width:0.507937"
     d="m 212.06349,121.90476 v -9.65079 H 256 299.93651 v 9.65079 9.6508 H 256 212.06349 Z"
     id="path2850" />
</svg>
