<?xml version="1.0" encoding="UTF-8" standalone="no"?>
<svg
   xmlns:dc="http://purl.org/dc/elements/1.1/"
   xmlns:cc="http://creativecommons.org/ns#"
   xmlns:rdf="http://www.w3.org/1999/02/22-rdf-syntax-ns#"
   xmlns:svg="http://www.w3.org/2000/svg"
   xmlns="http://www.w3.org/2000/svg"
   xmlns:sodipodi="http://sodipodi.sourceforge.net/DTD/sodipodi-0.dtd"
   xmlns:inkscape="http://www.inkscape.org/namespaces/inkscape"
   id="Capa_1"
   enable-background="new 0 0 512 512"
   height="512"
   viewBox="0 0 512 512"
   width="512"
   version="1.1"
   sodipodi:docname="thief.svg"
   inkscape:version="1.0.2-2 (e86c870879, 2021-01-15)">
  <metadata
     id="metadata853">
    <rdf:RDF>
      <cc:Work
         rdf:about="">
        <dc:format>image/svg+xml</dc:format>
        <dc:type
           rdf:resource="http://purl.org/dc/dcmitype/StillImage" />
        <dc:title></dc:title>
      </cc:Work>
    </rdf:RDF>
  </metadata>
  <defs
     id="defs851" />
  <sodipodi:namedview
     pagecolor="#ffffff"
     bordercolor="#666666"
     borderopacity="1"
     objecttolerance="10"
     gridtolerance="10"
     guidetolerance="10"
     inkscape:pageopacity="0"
     inkscape:pageshadow="2"
     inkscape:window-width="3840"
     inkscape:window-height="2050"
     id="namedview849"
     showgrid="false"
     inkscape:pagecheckerboard="true"
     showborder="false"
     inkscape:zoom="1.96875"
     inkscape:cx="256"
     inkscape:cy="252.44444"
     inkscape:window-x="5108"
     inkscape:window-y="-12"
     inkscape:window-maximized="1"
     inkscape:current-layer="Capa_1" />
  <g
     id="g846">
    <path
       d="m366 290h-45v-20.185c30.173-20.75 50-55.508 50-94.815v-18.791l25.629 20.503c2.766 2.213 6.075 3.288 9.361 3.288 4.4 0 8.76-1.928 11.723-5.631 5.175-6.469 4.126-15.908-2.342-21.083l-35.359-28.286 35.359-28.287c6.469-5.175 7.518-14.614 2.342-21.083s-14.613-7.519-21.083-2.343l-25.63 20.504v-8.791c0-46.869-38.131-85-85-85h-60c-46.869 0-85 38.131-85 85v90c0 39.307 19.827 74.065 50 94.815v20.185h-45c-52.383 0-95 42.617-95 95v112c0 8.284 6.716 15 15 15h380c8.284 0 15-6.716 15-15v-112c0-52.383-42.617-95-95-95zm-284.975 94h349.949c.005.334.025.665.025 1v33h-349.999v-33c0-.335.02-.666.025-1zm342.094-30h-115.155c7.238-9.619 11.853-21.307 12.824-34h45.212c24.623 0 46.092 13.763 57.119 34zm-197.119-324h60c30.327 0 55 24.673 55 55v5h-85-85v-5c0-30.327 24.673-55 55-55zm114.644 90c-2.434 16.939-17.042 30-34.644 30s-32.21-13.061-34.644-30zm-100 0c-2.434 16.939-17.042 30-34.644 30s-32.21-13.061-34.644-30zm-69.644 55v-5.271c10.112 6.489 22.119 10.271 35 10.271 20.085 0 38.068-9.16 50-23.518 11.932 14.358 29.915 23.518 50 23.518 12.881 0 24.888-3.782 35-10.271v5.271c0 46.869-38.131 85-85 85s-85-38.131-85-85zm85 115c12.2 0 23.959-1.917 35-5.452v30.452c0 19.299-15.701 35-35 35s-35-15.701-35-35v-30.452c11.041 3.535 22.8 5.452 35 5.452zm-110 30h45.211c.971 12.693 5.587 24.381 12.824 34h-115.154c11.027-20.237 32.496-34 57.119-34zm-65 162v-34h350v34z"
       id="path844" />
  </g>
  <path
     style="fill:#ffffff;stroke-width:0.507937"
     d="m 171.1776,85.968254 c 0.007,-8.563511 2.14212,-17.66356 5.90447,-25.159508 2.82229,-5.623037 5.12502,-8.851961 9.73995,-13.657527 6.23541,-6.492993 12.80446,-10.754659 21.25438,-13.788764 7.87439,-2.827449 8.86655,-2.886838 48.1067,-2.879592 33.29209,0.0061 36.49394,0.08128 40.70579,0.955147 9.71208,2.015048 18.79078,6.720177 26.02294,13.486643 5.28058,4.940546 8.4838,9.100582 11.4915,14.924056 4.20497,8.141596 6.41223,17.123041 6.41907,26.119545 l 0.003,3.936508 H 256 171.1746 Z"
     id="path855" />
  <path
     style="fill:#ffffff;stroke-width:0.507937"
     d="m 199.56688,149.11201 c -13.95216,-2.924 -24.51504,-13.38698 -27.59521,-27.33423 l -0.30848,-1.39683 h 34.33574 34.33575 l -0.35331,1.6508 c -3.29868,15.41238 -16.71303,26.80604 -32.44981,27.56171 -2.83727,0.13624 -5.901,-0.049 -7.96468,-0.48145 z"
     id="path857" />
  <path
     style="fill:#ffffff;stroke-width:0.507937"
     d="m 300.57509,149.31622 c -14.01681,-2.35974 -25.58814,-13.41565 -28.55646,-27.28447 l -0.35331,-1.6508 h 34.33575 34.33574 l -0.30848,1.39683 c -3.12553,14.15262 -13.85377,24.62976 -27.98947,27.33437 -4.10358,0.78514 -7.63843,0.84807 -11.46377,0.20407 z"
     id="path859" />
  <path
     style="fill:#ffffff;stroke-width:0.507937"
     d="m 246.09524,259.23593 c -21.7613,-3.26961 -39.84313,-12.82216 -53.4798,-28.25315 -13.66092,-15.45843 -21.44084,-36.04125 -21.44084,-56.72459 v -4.06756 l 2.97737,1.74499 c 9.54805,5.59596 23.50454,8.87844 34.87044,8.20131 16.72411,-0.99635 30.61592,-7.04875 42.52164,-18.52589 L 256,157.31549 l 4.44444,4.27836 c 11.96604,11.51889 25.73718,17.54142 42.37916,18.53366 11.52752,0.6873 25.41753,-2.56145 35.02443,-8.19189 l 2.97737,-1.74499 v 4.06756 c 0,13.11137 -3.42548,27.35709 -9.37499,38.9883 -11.75442,22.97973 -32.33403,38.83017 -57.9266,44.61515 -4.71368,1.06549 -7.1757,1.28956 -15.74603,1.4331 -5.5873,0.0936 -10.84445,0.0671 -11.68254,-0.0588 z"
     id="path861" />
  <path
     style="fill:#ffffff;stroke-width:0.507937"
     d="m 89.906661,353.14286 c 0.0077,-1.5456 7.461141,-11.10475 11.885999,-15.24399 8.95238,-8.37451 20.6125,-14.2927 32.82062,-16.65836 3.51987,-0.68207 9.05636,-0.88132 30.28317,-1.08983 l 25.9758,-0.25516 0.36677,3.22684 c 0.93607,8.23545 4.38436,18.0283 9.10617,25.86074 l 2.73739,4.54071 h -56.58891 c -31.1239,0 -56.588054,-0.17143 -56.587009,-0.38095 z"
     id="path863" />
  <path
     style="fill:#ffffff;stroke-width:0.507937"
     d="m 251.68254,349.44018 c -7.85342,-1.07431 -14.45692,-4.40244 -20.06349,-10.11191 -4.30867,-4.38773 -6.5692,-7.91114 -8.54389,-13.31704 l -1.36087,-3.72552 -0.15532,-18.59842 -0.15531,-18.59843 5.48865,1.40406 c 9.55953,2.44543 14.57715,3.11216 25.57575,3.39844 13.52915,0.35215 23.91411,-0.81859 34.75073,-3.91759 l 3.37794,-0.966 -0.15551,18.63897 -0.15551,18.63897 -1.36086,3.72552 c -0.74848,2.04903 -2.11991,5.01073 -3.04762,6.58156 -2.48589,4.20918 -8.67048,10.26271 -12.85494,12.58252 -6.37138,3.53223 -14.6299,5.18274 -21.33975,4.26487 z"
     id="path865" />
  <path
     style="fill:#ffffff;stroke-width:0.507937"
     d="m 311.6548,348.9831 c 4.68796,-7.77627 7.55913,-15.73336 8.87308,-24.59068 l 0.66704,-4.49646 25.94222,0.25494 c 21.19616,0.2083 26.73024,0.40764 30.24958,1.08961 15.61514,3.02587 29.82981,11.64212 39.33789,23.84474 3.22854,4.14348 5.3652,7.35028 5.36873,8.05761 10e-4,0.20952 -25.46311,0.38095 -56.58701,0.38095 h -56.58891 z"
     id="path867" />
  <path
     style="fill:#ffffff;stroke-width:0.507937"
     d="M 81.269841,400.7619 V 384 H 256 430.73016 v 16.7619 16.76191 H 256 81.269841 Z"
     id="path869" />
  <path
     style="fill:#ffffff;stroke-width:0.507937"
     d="M 81.269841,464.7619 V 448 H 256 430.73016 v 16.7619 16.76191 H 256 81.269841 Z"
     id="path871" />
</svg>
