<?xml version="1.0" encoding="UTF-8" standalone="no"?>
<svg
   xmlns:dc="http://purl.org/dc/elements/1.1/"
   xmlns:cc="http://creativecommons.org/ns#"
   xmlns:rdf="http://www.w3.org/1999/02/22-rdf-syntax-ns#"
   xmlns:svg="http://www.w3.org/2000/svg"
   xmlns="http://www.w3.org/2000/svg"
   xmlns:sodipodi="http://sodipodi.sourceforge.net/DTD/sodipodi-0.dtd"
   xmlns:inkscape="http://www.inkscape.org/namespaces/inkscape"
   version="1.1"
   id="Capa_1"
   x="0px"
   y="0px"
   viewBox="0 0 480 480"
   style="enable-background:new 0 0 480 480;"
   xml:space="preserve"
   sodipodi:docname="volume.svg"
   inkscape:version="1.0.2-2 (e86c870879, 2021-01-15)"><metadata
   id="metadata1796"><rdf:RDF><cc:Work
       rdf:about=""><dc:format>image/svg+xml</dc:format><dc:type
         rdf:resource="http://purl.org/dc/dcmitype/StillImage" /></cc:Work></rdf:RDF></metadata><defs
   id="defs1794" /><sodipodi:namedview
   pagecolor="#ffffff"
   bordercolor="#666666"
   borderopacity="1"
   objecttolerance="10"
   gridtolerance="10"
   guidetolerance="10"
   inkscape:pageopacity="0"
   inkscape:pageshadow="2"
   inkscape:window-width="3840"
   inkscape:window-height="2050"
   id="namedview1792"
   showgrid="false"
   inkscape:zoom="2.1"
   inkscape:cx="240"
   inkscape:cy="236.66667"
   inkscape:window-x="5108"
   inkscape:window-y="-12"
   inkscape:window-maximized="1"
   inkscape:current-layer="Capa_1" />
<g
   id="g1747">
	<g
   id="g1745">
		<path
   d="M278.944,17.577c-5.568-2.656-12.128-1.952-16.928,1.92L106.368,144.009H32c-17.632,0-32,14.368-32,32v128    c0,17.632,14.368,32,32,32h74.368l155.616,124.512c2.912,2.304,6.464,3.488,10.016,3.488c2.368,0,4.736-0.512,6.944-1.568    c5.536-2.688,9.056-8.288,9.056-14.432v-416C288,25.865,284.48,20.265,278.944,17.577z M96,304.009H32v-128h64V304.009z     M256,414.697l-128-102.4V167.721l128-102.4V414.697z"
   id="path1743" />
	</g>
</g>
<g
   id="g1753">
	<g
   id="g1751">
		<path
   d="M369.024,126.857c-6.304-6.24-16.416-6.144-22.624,0.128c-6.208,6.304-6.144,16.416,0.128,22.624    c24.16,23.904,37.472,56,37.472,90.4c0,34.4-13.312,66.496-37.472,90.4c-6.304,6.208-6.368,16.32-0.128,22.624    c3.136,3.168,7.264,4.736,11.36,4.736c4.064,0,8.128-1.536,11.264-4.64c30.304-29.92,46.976-70.08,46.976-113.12    C416,196.969,399.328,156.809,369.024,126.857z"
   id="path1749" />
	</g>
</g>
<g
   id="g1759">
	<g
   id="g1757">
		<path
   d="M414.144,81.769c-6.272-6.208-16.416-6.176-22.624,0.096c-6.208,6.272-6.176,16.416,0.096,22.624    C427.968,140.553,448,188.681,448,240.009s-20.032,99.456-56.384,135.52c-6.272,6.208-6.304,16.352-0.096,22.624    c3.136,3.168,7.232,4.736,11.36,4.736c4.064,0,8.128-1.536,11.264-4.64C456.608,356.137,480,299.945,480,240.009    C480,180.073,456.608,123.881,414.144,81.769z"
   id="path1755" />
	</g>
</g>
<g
   id="g1761">
</g>
<g
   id="g1763">
</g>
<g
   id="g1765">
</g>
<g
   id="g1767">
</g>
<g
   id="g1769">
</g>
<g
   id="g1771">
</g>
<g
   id="g1773">
</g>
<g
   id="g1775">
</g>
<g
   id="g1777">
</g>
<g
   id="g1779">
</g>
<g
   id="g1781">
</g>
<g
   id="g1783">
</g>
<g
   id="g1785">
</g>
<g
   id="g1787">
</g>
<g
   id="g1789">
</g>
<path
   style="fill:#ffffff;stroke-width:0.47619"
   d="M 32.380952,240 V 176.19048 H 64.047619 95.714286 V 240 303.80952 H 64.047619 32.380952 Z"
   id="path2359" /><path
   style="fill:#ffffff;stroke-width:0.47619"
   d="M 191.81067,363.02371 128.14515,312.14286 V 240 167.85714 l 63.66552,-50.88085 63.66552,-50.88086 0.12032,86.95228 c 0.0662,47.82376 0.0662,126.08082 0,173.90458 l -0.12032,86.95228 z"
   id="path2361" /></svg>
